G04 ================== begin FILE IDENTIFICATION RECORD ==================*
G04 Layout Name:  D:/Vishay/PCB/sic431/REF BOARD V4/SiC43x REF PCB.brd*
G04 Film Name:    BOTTOM*
G04 File Format:  Gerber RS274X*
G04 File Origin:  Cadence Allegro 17.2-S002*
G04 Origin Date:  Wed Nov 29 17:49:48 2017*
G04 *
G04 Layer:  ETCH/BOTTOM*
G04 Layer:  PIN/BOTTOM*
G04 Layer:  VIA CLASS/BOTTOM*
G04 *
G04 Offset:    (0.000 0.000)*
G04 Mirror:    No*
G04 Mode:      Positive*
G04 Rotation:  0*
G04 FullContactRelief:  No*
G04 UndefLineWidth:     5.000*
G04 ================== end FILE IDENTIFICATION RECORD ====================*
%FSLAX25Y25*MOIN*%
%IR0*IPPOS*OFA0.00000B0.00000*MIA0B0*SFA1.00000B1.00000*%
%ADD11C,.1*%
%ADD12R,.110236X.094488*%
%ADD15C,.02*%
%ADD13C,.06*%
%ADD17C,.016*%
%ADD16R,.015748X.023622*%
%AMMACRO10*
4,1,8,.100394,-.05315,
.100394,-.001969,
.055118,-.001969,
.055118,.053149,
-.055118,.053149,
-.055118,-.001969,
-.100394,-.001969,
-.100394,-.05315,
.100394,-.05315,
0.0*
%
%ADD10MACRO10*%
%ADD19R,.031496X.031496*%
%ADD18R,.066929X.043307*%
%ADD14R,.098425X.047244*%
%ADD20C,.006*%
%ADD21C,.01*%
G75*
%LPD*%
G75*
G36*
G01X6509Y-73524D02*
X17809Y-62224D01*
X47024D01*
X47100Y-62300D01*
Y-95300D01*
X46500Y-95900D01*
X-110100D01*
X-111000Y-95000D01*
Y-93333D01*
X-110991Y-93324D01*
Y-60924D01*
X-110691Y-60624D01*
X-88291D01*
X-85191Y-63724D01*
Y-80924D01*
X-83191Y-82924D01*
X-39791D01*
X-38491Y-81624D01*
Y-76524D01*
X-35491Y-73524D01*
X6509D01*
G37*
G36*
G01X48013Y-17200D02*
X58900D01*
X59000Y-17300D01*
Y-23500D01*
X58876Y-23624D01*
X41009D01*
X39759Y-22374D01*
X27500D01*
X24759Y-25115D01*
Y-50174D01*
X5409Y-69524D01*
X-38391D01*
X-39991Y-71124D01*
Y-81024D01*
X-40291Y-81324D01*
X-82891D01*
X-83291Y-80924D01*
Y-60724D01*
X-90191Y-53824D01*
X-110591D01*
X-110991Y-53424D01*
Y-20924D01*
X-110691Y-20624D01*
X-86791D01*
X-72191Y-35224D01*
X-30191D01*
X-29991Y-35024D01*
Y-32124D01*
X-30191Y-31924D01*
X-71391D01*
X-87291Y-16024D01*
X-110991D01*
Y1276D01*
X-110791Y1476D01*
X-83891D01*
X-67091Y-15324D01*
X39500D01*
X41376Y-17200D01*
X46587D01*
X46632Y-17224D01*
G03X47968I668J1230D01*
G01X48013Y-17200D01*
G37*
G36*
G01X-59791Y-14724D02*
X-79691Y5176D01*
X-110791D01*
X-110991Y5376D01*
Y23476D01*
X-110691Y23776D01*
X-70491D01*
X-52891Y6176D01*
X13809D01*
X26109Y-6124D01*
X33109D01*
X33209Y-6224D01*
Y-7242D01*
X33100Y-7351D01*
Y-14633D01*
X33009Y-14724D01*
X-59791D01*
G37*
G36*
G01X47300Y-14594D02*
G02X46900Y-14200I0J400D01*
G03X44107Y-14360I-1400J-22D01*
G02X43709Y-14800I-398J-39D01*
G01X33800D01*
X33700Y-14700D01*
Y-7600D01*
X33800Y-7500D01*
X66800D01*
X70000Y-4300D01*
Y6600D01*
X71000Y7600D01*
X78100D01*
X78700Y7000D01*
Y-15700D01*
X77100Y-17300D01*
X64400D01*
X61900Y-14800D01*
X48032D01*
G03X47300Y-14594I-732J-1194D01*
G37*
G54D10*
X-73000Y-75590D03*
X-50900Y-75690D03*
G54D20*
G01X-19072Y20400D02*
X-31400D01*
X-36300Y25300D01*
G01X-19072Y9200D02*
X-30500D01*
X-36300Y15000D01*
G01X-19072Y41100D02*
X-31500D01*
X-36300Y45900D01*
G01X-19072Y30900D02*
X-31600D01*
X-36300Y35600D01*
G01X34700Y-3600D02*
X27700D01*
X14900Y9200D01*
X-15528D01*
G01Y20400D02*
Y30900D01*
G01Y9200D02*
Y20400D01*
G01Y30900D02*
Y41100D01*
G01X36964Y-4950D02*
Y-64D01*
X31400Y5500D01*
X20700D01*
X19728Y6472D01*
Y9400D01*
G01Y30400D02*
Y20000D01*
G01X23272Y9400D02*
X34200D01*
X39900Y15100D01*
G01X23272Y20000D02*
X34500D01*
X39900Y25400D01*
G01X19728Y20000D02*
Y9400D01*
G01X34800Y40900D02*
X23272D01*
G01X39900Y35700D02*
X34600Y30400D01*
X23272D01*
G01X19728Y40900D02*
Y30400D01*
G01X34900Y40900D02*
X34800D01*
G01D02*
X40000Y46100D01*
G01Y35800D02*
X39900Y35700D01*
G54D11*
X-94400Y-85825D03*
Y-66140D03*
Y-46455D03*
Y-26770D03*
Y-7085D03*
Y12600D03*
G54D21*
G01X44500Y-32509D02*
X39716D01*
X39675Y-32550D01*
X37100D01*
G01X33900Y-26000D02*
X36850D01*
X37100Y-26250D01*
G54D12*
X-73000Y-87598D03*
Y-62402D03*
X-50900Y-87698D03*
Y-62502D03*
G54D13*
X-40800Y-88100D03*
X-42300Y-58900D03*
X-36300Y15000D03*
X-46300D03*
X-36300Y25300D03*
X-46300D03*
X-36300Y45900D03*
X-46300D03*
X-36300Y35600D03*
X-46300D03*
X-26300Y15000D03*
Y25300D03*
Y45900D03*
Y35600D03*
X16500Y-24200D03*
X18000Y-7700D03*
X29100Y-27800D03*
X39900Y15100D03*
X29900D03*
X39900Y25400D03*
X29900D03*
X30000Y46100D03*
X40000D03*
X29900Y35700D03*
X39900D03*
X63600Y3200D03*
X49900Y15100D03*
Y25400D03*
X50000Y46100D03*
X49900Y35700D03*
X73900Y-71200D03*
X73600Y-50000D03*
X73700Y-31600D03*
X73600Y-13000D03*
Y3200D03*
G54D14*
X-30800Y-80487D03*
X-19000D03*
X-30800Y-66313D03*
X-19000D03*
X-7400Y-80487D03*
Y-66313D03*
G54D15*
X-26159Y-92551D03*
X-31159D03*
X-21196Y-92515D03*
X-21301Y-88788D03*
X-31264Y-88823D03*
X-26264D03*
X-27543Y-57086D03*
X-27438Y-60813D03*
X-17581Y-57051D03*
X-17476Y-60778D03*
X-22581Y-57051D03*
X-22476Y-60778D03*
X-32543Y-57086D03*
X-32438Y-60813D03*
X-19603Y-28601D03*
X-24603D03*
X-24498Y-32328D03*
X-19498D03*
X-21203Y-5252D03*
X-21308Y-1525D03*
X-1597Y-92496D03*
X3403D03*
X-6197Y-92515D03*
X-11196D03*
X-16196D03*
X-1752Y-88688D03*
X3248D03*
X-16301Y-88788D03*
X-11301D03*
X-6301D03*
X-7581Y-57051D03*
X-7476Y-60778D03*
X1969Y-56951D03*
X2124Y-60758D03*
X-3031Y-56951D03*
X-2877Y-60758D03*
X-12581Y-57051D03*
X-12476Y-60778D03*
X359Y-28566D03*
X-4641D03*
X-9641D03*
X-9536Y-32293D03*
X-4536D03*
X464D03*
X-14641Y-28566D03*
X-14536Y-32293D03*
X3358Y-5197D03*
X-16241Y-5217D03*
X-16346Y-1490D03*
X-1241Y-5217D03*
X-6241D03*
X-11241D03*
X3204Y-1390D03*
X-11346Y-1490D03*
X-6346D03*
X-1346D03*
X13096Y-84923D03*
X8133Y-84958D03*
X18096Y-84923D03*
X8112Y-81231D03*
X18112Y-81031D03*
X13112D03*
X13365Y-92460D03*
X18365D03*
X8365D03*
X13211Y-88653D03*
X18211D03*
X8211D03*
X9909Y-28466D03*
X10063Y-32273D03*
X4909Y-28466D03*
X5063Y-32273D03*
X8358Y-5197D03*
X8204Y-1390D03*
X33419Y-67651D03*
X38419D03*
X28419D03*
X33264Y-63843D03*
X38264D03*
X28264D03*
X33900Y-26000D03*
G54D16*
X-19072Y9200D03*
Y20400D03*
Y41100D03*
Y30900D03*
X-15528Y9200D03*
Y20400D03*
Y41100D03*
Y30900D03*
X23272Y9400D03*
X19728D03*
X23272Y20000D03*
X19728D03*
X23272Y30400D03*
X19728D03*
X23272Y40900D03*
X19728D03*
G54D17*
X29500Y-16800D03*
X37800Y-16700D03*
X33500Y-16800D03*
X45500Y-14222D03*
X33400Y-19900D03*
X29400Y-19800D03*
X45800Y0D03*
X30000Y-12800D03*
X36668Y-12746D03*
X36964Y-4950D03*
X34700Y-3600D03*
X64000Y-31572D03*
X66700Y-25500D03*
X56100Y-20200D03*
X54200D03*
X52200D03*
X56100Y-18400D03*
X54200D03*
X52200D03*
X47300Y-15994D03*
G54D18*
X44500Y-32509D03*
Y-21091D03*
G54D19*
X37100Y-32550D03*
Y-26250D03*
M02*
