G04 ================== begin FILE IDENTIFICATION RECORD ==================*
G04 Layout Name:  D:/Vishay/PCB/sic431/REF BOARD V4/SiC43x REF PCB.brd*
G04 Film Name:    TOP*
G04 File Format:  Gerber RS274X*
G04 File Origin:  Cadence Allegro 17.2-S002*
G04 Origin Date:  Wed Nov 29 17:49:48 2017*
G04 *
G04 Layer:  VIA CLASS/TOP*
G04 Layer:  PIN/TOP*
G04 Layer:  ETCH/TOP*
G04 *
G04 Offset:    (0.000 0.000)*
G04 Mirror:    No*
G04 Mode:      Positive*
G04 Rotation:  0*
G04 FullContactRelief:  No*
G04 UndefLineWidth:     5.000*
G04 ================== end FILE IDENTIFICATION RECORD ====================*
%FSLAX25Y25*MOIN*%
%IR0*IPPOS*OFA0.00000B0.00000*MIA0B0*SFA1.00000B1.00000*%
%AMMACRO18*
4,1,20,.045276,.01378,
.045276,-.013779,
.035433,-.013779,
.035433,.005906,
.027559,.005906,
.027559,-.013779,
.017717,-.013779,
.017717,.005906,
0.0,.005906,
0.0,-.013779,
-.009843,-.013779,
-.009843,.005906,
-.017717,.005906,
-.017717,-.013779,
-.027559,-.013779,
-.027559,.005906,
-.035433,.005906,
-.035433,-.013779,
-.045276,-.013779,
-.045276,.01378,
.045276,.01378,
0.0*
%
%ADD18MACRO18*%
%ADD10C,.1*%
%AMMACRO19*
4,1,10,-.035433,-.02067,
-.035433,-.008859,
-.007874,-.008859,
-.007874,-.002953,
-.035433,-.002953,
-.035433,.008858,
-.007874,.008858,
-.007874,.020669,
.035433,.020669,
.035433,-.02067,
-.035433,-.02067,
0.0*
%
%ADD19MACRO19*%
%ADD13C,.02*%
%AMMACRO22*
4,1,15,-.039961,-.023622,
-.039961,-.019685,
-.06752,-.019685,
-.06752,-.007874,
-.039961,-.007874,
-.039961,-.001969,
-.06752,-.001969,
-.06752,.009842,
-.039961,.009842,
-.039961,.023622,
.067519,.023622,
.067519,.008661,
.041535,.008661,
.041535,-.000787,
.041535,-.023622,
-.039961,-.023622,
0.0*
%
%ADD22MACRO22*%
%ADD11C,.06*%
%ADD23C,.016*%
%ADD15R,.195X.282*%
%ADD20R,.061024X.041339*%
%ADD17R,.029528X.011811*%
%ADD16R,.023622X.017717*%
%ADD25R,.017717X.023622*%
%ADD21R,.011811X.029528*%
%ADD24R,.023622X.015748*%
%ADD14R,.031496X.031496*%
%ADD27R,.035433X.019685*%
%ADD26R,.019685X.035433*%
%ADD12R,.098425X.047244*%
%ADD28C,.006*%
%ADD29C,.008*%
%ADD30C,.015*%
G75*
%LPD*%
G75*
G36*
G01X6508Y-73552D02*
X17808Y-62252D01*
X47008D01*
X47108Y-62352D01*
Y-95352D01*
X46508Y-95952D01*
X-110092D01*
X-110992Y-95052D01*
Y-58552D01*
X-110892Y-58452D01*
X-64192D01*
X-48342Y-74302D01*
X-142D01*
X608Y-73552D01*
X6508D01*
G37*
G36*
G01X308Y-71352D02*
X-492Y-70552D01*
X-47792D01*
X-64492Y-53852D01*
X-110692D01*
X-110992Y-53552D01*
Y-20752D01*
X-110892Y-20652D01*
X-86792D01*
X-72192Y-35252D01*
X-30192D01*
X-29992Y-35052D01*
Y-32152D01*
X-30192Y-31952D01*
X-71392D01*
X-87392Y-15952D01*
X-110892D01*
X-110992Y-15852D01*
Y1348D01*
X-110892Y1448D01*
X-83892D01*
X-63692Y-18752D01*
X16908D01*
X18608Y-17052D01*
X23608D01*
X24808Y-15852D01*
X33208D01*
X33608Y-15452D01*
Y-10492D01*
X33700Y-10400D01*
X39600D01*
X39800Y-10600D01*
Y-11700D01*
X40000Y-11900D01*
X44400D01*
X45800Y-10500D01*
Y-8500D01*
X46350Y-7950D01*
X69450D01*
X69908Y-7492D01*
Y6348D01*
X70908Y7348D01*
X78008D01*
X78608Y6748D01*
Y-15952D01*
X77008Y-17552D01*
X70900D01*
X68048Y-14700D01*
X50900D01*
X50600Y-14400D01*
Y-11900D01*
X50200Y-11500D01*
X46200D01*
X44700Y-13000D01*
X40000D01*
X39800Y-13200D01*
Y-16900D01*
X40100Y-17200D01*
X46300D01*
X46500Y-17400D01*
X57200D01*
X57300Y-17500D01*
Y-20800D01*
X57000Y-21100D01*
X47000D01*
X46400Y-20500D01*
Y-19814D01*
X46400Y-19700D01*
X45000Y-18300D01*
X39800D01*
X39700Y-18200D01*
X36700D01*
X36508Y-18392D01*
Y-20652D01*
X36208Y-20952D01*
X26208D01*
X15208Y-31952D01*
Y-32052D01*
X5808Y-41452D01*
Y-69852D01*
X4308Y-71352D01*
X308D01*
G37*
G36*
G01X-54842Y8098D02*
X11858D01*
X27408Y-7452D01*
Y-10352D01*
X27556Y-10500D01*
X31208D01*
X31900Y-9808D01*
Y-6200D01*
X32000Y-6100D01*
X33000D01*
X33100Y-6200D01*
Y-9900D01*
X32800Y-10200D01*
Y-10208D01*
X32408Y-10600D01*
Y-14852D01*
X32308Y-14952D01*
X23808D01*
X23308Y-15452D01*
X18708D01*
X16708Y-13452D01*
X-61092D01*
X-79692Y5148D01*
X-110792D01*
X-110992Y5348D01*
Y23448D01*
X-110692Y23748D01*
X-70492D01*
X-54842Y8098D01*
G37*
G36*
G01X14500Y-60000D02*
X14100Y-59600D01*
Y-35000D01*
X27400Y-21700D01*
X37400D01*
X37555Y-21855D01*
X37547Y-21947D01*
G03X37545Y-21998I598J-51D01*
G01Y-24950D01*
G03X38084Y-25548I600J0D01*
G01X38155Y-25555D01*
X39800Y-27200D01*
X46600D01*
X47200Y-27800D01*
Y-59500D01*
X46700Y-60000D01*
X14500D01*
G37*
G54D10*
X-94400Y-85825D03*
Y-66140D03*
Y-46455D03*
Y-26770D03*
Y-7085D03*
Y12600D03*
G54D20*
X36668Y-12746D03*
G54D11*
X-40800Y-88100D03*
X-42300Y-58900D03*
X-36300Y15000D03*
X-46300D03*
X-36300Y25300D03*
X-46300D03*
X-36300Y45900D03*
X-46300D03*
X-36300Y35600D03*
X-46300D03*
X-26300Y15000D03*
Y25300D03*
Y45900D03*
Y35600D03*
X16500Y-24200D03*
X18000Y-7700D03*
X29100Y-27800D03*
X39900Y15100D03*
X29900D03*
X39900Y25400D03*
X29900D03*
X30000Y46100D03*
X40000D03*
X29900Y35700D03*
X39900D03*
X63600Y3200D03*
X49900Y15100D03*
Y25400D03*
X50000Y46100D03*
X49900Y35700D03*
X73900Y-71200D03*
X73600Y-50000D03*
X73700Y-31600D03*
X73600Y-13000D03*
Y3200D03*
G54D30*
G01X49100Y-25550D02*
X66200Y-42650D01*
Y-67628D01*
G01X73900Y-71200D02*
X68209D01*
X68181Y-71172D01*
X66200D01*
G01X56100Y-20200D02*
X58300Y-22400D01*
Y-29300D01*
X73600Y-44600D01*
Y-50000D01*
G54D12*
X-42300Y-80487D03*
Y-66313D03*
X-19100Y-80487D03*
X-30800D03*
X-19100Y-66313D03*
X-30800D03*
X-18500Y-24087D03*
Y-9913D03*
X-7500Y-80487D03*
Y-66313D03*
X-6800Y-24087D03*
X4800D03*
X-6800Y-9913D03*
X4800D03*
G54D21*
X38735Y-23474D03*
X40507Y-7726D03*
X38735D03*
X36964D03*
X35192D03*
X32436D03*
X30665D03*
X28893D03*
G54D22*
X31806Y-18356D03*
G54D13*
X-26159Y-92551D03*
X-31159D03*
X-21196Y-92515D03*
X-21301Y-88788D03*
X-31264Y-88823D03*
X-26264D03*
X-27543Y-57086D03*
X-27438Y-60813D03*
X-17581Y-57051D03*
X-17476Y-60778D03*
X-22581Y-57051D03*
X-22476Y-60778D03*
X-32543Y-57086D03*
X-32438Y-60813D03*
X-19603Y-28601D03*
X-24603D03*
X-24498Y-32328D03*
X-19498D03*
X-21203Y-5252D03*
X-21308Y-1525D03*
X-1597Y-92496D03*
X3403D03*
X-6197Y-92515D03*
X-11196D03*
X-16196D03*
X-1752Y-88688D03*
X3248D03*
X-16301Y-88788D03*
X-11301D03*
X-6301D03*
X-7581Y-57051D03*
X-7476Y-60778D03*
X1969Y-56951D03*
X2124Y-60758D03*
X-3031Y-56951D03*
X-2877Y-60758D03*
X-12581Y-57051D03*
X-12476Y-60778D03*
X359Y-28566D03*
X-4641D03*
X-9641D03*
X-9536Y-32293D03*
X-4536D03*
X464D03*
X-14641Y-28566D03*
X-14536Y-32293D03*
X3358Y-5197D03*
X-16241Y-5217D03*
X-16346Y-1490D03*
X-1241Y-5217D03*
X-6241D03*
X-11241D03*
X3204Y-1390D03*
X-11346Y-1490D03*
X-6346D03*
X-1346D03*
X13096Y-84923D03*
X8133Y-84958D03*
X18096Y-84923D03*
X8112Y-81231D03*
X18112Y-81031D03*
X13112D03*
X13365Y-92460D03*
X18365D03*
X8365D03*
X13211Y-88653D03*
X18211D03*
X8211D03*
X9909Y-28466D03*
X10063Y-32273D03*
X4909Y-28466D03*
X5063Y-32273D03*
X8358Y-5197D03*
X8204Y-1390D03*
X33419Y-67651D03*
X38419D03*
X28419D03*
X33264Y-63843D03*
X38264D03*
X28264D03*
X33900Y-26000D03*
G54D14*
X2400Y-75750D03*
Y-69450D03*
X49100Y-19250D03*
Y-25550D03*
G54D23*
X29500Y-16800D03*
X37800Y-16700D03*
X33500Y-16800D03*
X45500Y-14222D03*
X33400Y-19900D03*
X29400Y-19800D03*
X45800Y0D03*
X30000Y-12800D03*
X36668Y-12746D03*
X36964Y-4950D03*
X34700Y-3600D03*
X64000Y-31572D03*
X66700Y-25500D03*
X56100Y-20200D03*
X54200D03*
X52200D03*
X56100Y-18400D03*
X54200D03*
X52200D03*
X47300Y-15994D03*
G54D24*
X38700Y672D03*
Y-2872D03*
X27300Y-2672D03*
Y872D03*
X66200Y-67628D03*
Y-71172D03*
X66700Y-28028D03*
Y-31572D03*
G54D15*
X33100Y-80300D03*
Y-45300D03*
G54D25*
X51670Y-13400D03*
X47930D03*
X49830Y4200D03*
X53570D03*
G54D16*
X20600Y-17970D03*
Y-14230D03*
X30700Y-2870D03*
Y870D03*
G54D26*
X54153Y-200D03*
X48247D03*
G54D17*
X42574Y-14222D03*
Y-15994D03*
Y-17765D03*
Y-19537D03*
Y-21309D03*
Y-10679D03*
Y-12450D03*
G54D27*
X49000Y-4147D03*
Y-10053D03*
G54D18*
X32928Y-23474D03*
G54D28*
G01X42574Y-19537D02*
X44850D01*
X45500Y-20187D01*
Y-24324D01*
X46725Y-25550D01*
X49100D01*
G01X47300Y-15994D02*
X42574D01*
G01X45500Y-14222D02*
X42574D01*
G01X47100D02*
X45500D01*
G01X38700Y-2872D02*
X40681D01*
X41500Y-2053D01*
Y5200D01*
X44100Y7800D01*
X59000D01*
X63600Y3200D01*
G01X38700Y672D02*
X34572D01*
X32800Y-1100D01*
Y-7362D01*
G01D02*
X32436Y-7726D01*
G01X28893D02*
Y-5293D01*
X27300Y-3700D01*
Y-2672D01*
G01X30665Y-7726D02*
Y-5450D01*
X30700D01*
Y-2870D01*
G01X35192Y-7726D02*
Y-5992D01*
X34700Y-5500D01*
Y-3600D01*
G01X36964Y-7726D02*
Y-4950D01*
G01X38735Y-7726D02*
Y-4494D01*
X38700Y-4459D01*
Y-2872D01*
G01X40507Y-7726D02*
Y-5293D01*
X45800Y0D01*
G01X30700Y870D02*
X27302D01*
X27300Y872D01*
G01X47100Y-14222D02*
X47108D01*
X47930Y-13400D01*
G01X47900D02*
Y-13422D01*
X47100Y-14222D01*
G01X66700Y-31572D02*
X64000D01*
G01X73700Y-31600D02*
X68709D01*
X68681Y-31572D01*
X66700D01*
G54D19*
X28598Y-12746D03*
G54D29*
G01X42574Y-10679D02*
Y-7902D01*
X46328Y-4147D01*
X49000D01*
G01X45800Y0D02*
X46000Y-200D01*
X48247D01*
G01D02*
Y2647D01*
X49800Y4200D01*
X49830D01*
G01X54153Y-200D02*
Y3617D01*
X53570Y4200D01*
G01X49000Y-4147D02*
X52877D01*
X54153Y-2872D01*
Y-200D01*
G01X66700Y-28028D02*
Y-25500D01*
M02*
