%TF.GenerationSoftware,KiCad,Pcbnew,7.0.9*%
%TF.CreationDate,2024-04-04T22:54:04+08:00*%
%TF.ProjectId,power_module_v0.1,706f7765-725f-46d6-9f64-756c655f7630,rev?*%
%TF.SameCoordinates,Original*%
%TF.FileFunction,Soldermask,Bot*%
%TF.FilePolarity,Negative*%
%FSLAX46Y46*%
G04 Gerber Fmt 4.6, Leading zero omitted, Abs format (unit mm)*
G04 Created by KiCad (PCBNEW 7.0.9) date 2024-04-04 22:54:04*
%MOMM*%
%LPD*%
G01*
G04 APERTURE LIST*
%ADD10C,0.010000*%
G04 APERTURE END LIST*
D10*
X116600000Y-112600000D02*
X117400000Y-112600000D01*
X117400000Y-113400000D01*
X116600000Y-113400000D01*
X116600000Y-112600000D01*
G36*
X116600000Y-112600000D02*
G01*
X117400000Y-112600000D01*
X117400000Y-113400000D01*
X116600000Y-113400000D01*
X116600000Y-112600000D01*
G37*
X116600000Y-111100000D02*
X117400000Y-111100000D01*
X117400000Y-111900000D01*
X116600000Y-111900000D01*
X116600000Y-111100000D01*
G36*
X116600000Y-111100000D02*
G01*
X117400000Y-111100000D01*
X117400000Y-111900000D01*
X116600000Y-111900000D01*
X116600000Y-111100000D01*
G37*
X116600000Y-109600000D02*
X117400000Y-109600000D01*
X117400000Y-110400000D01*
X116600000Y-110400000D01*
X116600000Y-109600000D01*
G36*
X116600000Y-109600000D02*
G01*
X117400000Y-109600000D01*
X117400000Y-110400000D01*
X116600000Y-110400000D01*
X116600000Y-109600000D01*
G37*
X116600000Y-108100000D02*
X117400000Y-108100000D01*
X117400000Y-108900000D01*
X116600000Y-108900000D01*
X116600000Y-108100000D01*
G36*
X116600000Y-108100000D02*
G01*
X117400000Y-108100000D01*
X117400000Y-108900000D01*
X116600000Y-108900000D01*
X116600000Y-108100000D01*
G37*
X116600000Y-106600000D02*
X117400000Y-106600000D01*
X117400000Y-107400000D01*
X116600000Y-107400000D01*
X116600000Y-106600000D01*
G36*
X116600000Y-106600000D02*
G01*
X117400000Y-106600000D01*
X117400000Y-107400000D01*
X116600000Y-107400000D01*
X116600000Y-106600000D01*
G37*
X116600000Y-105100000D02*
X117400000Y-105100000D01*
X117400000Y-105900000D01*
X116600000Y-105900000D01*
X116600000Y-105100000D01*
G36*
X116600000Y-105100000D02*
G01*
X117400000Y-105100000D01*
X117400000Y-105900000D01*
X116600000Y-105900000D01*
X116600000Y-105100000D01*
G37*
X116600000Y-103600000D02*
X117400000Y-103600000D01*
X117400000Y-104400000D01*
X116600000Y-104400000D01*
X116600000Y-103600000D01*
G36*
X116600000Y-103600000D02*
G01*
X117400000Y-103600000D01*
X117400000Y-104400000D01*
X116600000Y-104400000D01*
X116600000Y-103600000D01*
G37*
X116600000Y-102100000D02*
X117400000Y-102100000D01*
X117400000Y-102900000D01*
X116600000Y-102900000D01*
X116600000Y-102100000D01*
G36*
X116600000Y-102100000D02*
G01*
X117400000Y-102100000D01*
X117400000Y-102900000D01*
X116600000Y-102900000D01*
X116600000Y-102100000D01*
G37*
X116600000Y-97600000D02*
X117400000Y-97600000D01*
X117400000Y-98400000D01*
X116600000Y-98400000D01*
X116600000Y-97600000D01*
G36*
X116600000Y-97600000D02*
G01*
X117400000Y-97600000D01*
X117400000Y-98400000D01*
X116600000Y-98400000D01*
X116600000Y-97600000D01*
G37*
X116600000Y-96100000D02*
X117400000Y-96100000D01*
X117400000Y-96900000D01*
X116600000Y-96900000D01*
X116600000Y-96100000D01*
G36*
X116600000Y-96100000D02*
G01*
X117400000Y-96100000D01*
X117400000Y-96900000D01*
X116600000Y-96900000D01*
X116600000Y-96100000D01*
G37*
X116600000Y-94600000D02*
X117400000Y-94600000D01*
X117400000Y-95400000D01*
X116600000Y-95400000D01*
X116600000Y-94600000D01*
G36*
X116600000Y-94600000D02*
G01*
X117400000Y-94600000D01*
X117400000Y-95400000D01*
X116600000Y-95400000D01*
X116600000Y-94600000D01*
G37*
X149850000Y-105600000D02*
X150650000Y-105600000D01*
X150650000Y-106400000D01*
X149850000Y-106400000D01*
X149850000Y-105600000D01*
G36*
X149850000Y-105600000D02*
G01*
X150650000Y-105600000D01*
X150650000Y-106400000D01*
X149850000Y-106400000D01*
X149850000Y-105600000D01*
G37*
X149850000Y-104600000D02*
X150650000Y-104600000D01*
X150650000Y-105400000D01*
X149850000Y-105400000D01*
X149850000Y-104600000D01*
G36*
X149850000Y-104600000D02*
G01*
X150650000Y-104600000D01*
X150650000Y-105400000D01*
X149850000Y-105400000D01*
X149850000Y-104600000D01*
G37*
X149850000Y-103600000D02*
X150650000Y-103600000D01*
X150650000Y-104400000D01*
X149850000Y-104400000D01*
X149850000Y-103600000D01*
G36*
X149850000Y-103600000D02*
G01*
X150650000Y-103600000D01*
X150650000Y-104400000D01*
X149850000Y-104400000D01*
X149850000Y-103600000D01*
G37*
X149850000Y-102600000D02*
X150650000Y-102600000D01*
X150650000Y-103400000D01*
X149850000Y-103400000D01*
X149850000Y-102600000D01*
G36*
X149850000Y-102600000D02*
G01*
X150650000Y-102600000D01*
X150650000Y-103400000D01*
X149850000Y-103400000D01*
X149850000Y-102600000D01*
G37*
X149850000Y-90100000D02*
X150650000Y-90100000D01*
X150650000Y-90900000D01*
X149850000Y-90900000D01*
X149850000Y-90100000D01*
G36*
X149850000Y-90100000D02*
G01*
X150650000Y-90100000D01*
X150650000Y-90900000D01*
X149850000Y-90900000D01*
X149850000Y-90100000D01*
G37*
X149850000Y-91100000D02*
X150650000Y-91100000D01*
X150650000Y-91900000D01*
X149850000Y-91900000D01*
X149850000Y-91100000D01*
G36*
X149850000Y-91100000D02*
G01*
X150650000Y-91100000D01*
X150650000Y-91900000D01*
X149850000Y-91900000D01*
X149850000Y-91100000D01*
G37*
X149850000Y-92100000D02*
X150650000Y-92100000D01*
X150650000Y-92900000D01*
X149850000Y-92900000D01*
X149850000Y-92100000D01*
G36*
X149850000Y-92100000D02*
G01*
X150650000Y-92100000D01*
X150650000Y-92900000D01*
X149850000Y-92900000D01*
X149850000Y-92100000D01*
G37*
X149850000Y-93100000D02*
X150650000Y-93100000D01*
X150650000Y-93900000D01*
X149850000Y-93900000D01*
X149850000Y-93100000D01*
G36*
X149850000Y-93100000D02*
G01*
X150650000Y-93100000D01*
X150650000Y-93900000D01*
X149850000Y-93900000D01*
X149850000Y-93100000D01*
G37*
X149850000Y-95100000D02*
X150650000Y-95100000D01*
X150650000Y-95900000D01*
X149850000Y-95900000D01*
X149850000Y-95100000D01*
G36*
X149850000Y-95100000D02*
G01*
X150650000Y-95100000D01*
X150650000Y-95900000D01*
X149850000Y-95900000D01*
X149850000Y-95100000D01*
G37*
X149850000Y-96100000D02*
X150650000Y-96100000D01*
X150650000Y-96900000D01*
X149850000Y-96900000D01*
X149850000Y-96100000D01*
G36*
X149850000Y-96100000D02*
G01*
X150650000Y-96100000D01*
X150650000Y-96900000D01*
X149850000Y-96900000D01*
X149850000Y-96100000D01*
G37*
X149850000Y-97100000D02*
X150650000Y-97100000D01*
X150650000Y-97900000D01*
X149850000Y-97900000D01*
X149850000Y-97100000D01*
G36*
X149850000Y-97100000D02*
G01*
X150650000Y-97100000D01*
X150650000Y-97900000D01*
X149850000Y-97900000D01*
X149850000Y-97100000D01*
G37*
X149850000Y-98100000D02*
X150650000Y-98100000D01*
X150650000Y-98900000D01*
X149850000Y-98900000D01*
X149850000Y-98100000D01*
G36*
X149850000Y-98100000D02*
G01*
X150650000Y-98100000D01*
X150650000Y-98900000D01*
X149850000Y-98900000D01*
X149850000Y-98100000D01*
G37*
X149850000Y-99100000D02*
X150650000Y-99100000D01*
X150650000Y-99900000D01*
X149850000Y-99900000D01*
X149850000Y-99100000D01*
G36*
X149850000Y-99100000D02*
G01*
X150650000Y-99100000D01*
X150650000Y-99900000D01*
X149850000Y-99900000D01*
X149850000Y-99100000D01*
G37*
X149800000Y-100600000D02*
X150600000Y-100600000D01*
X150600000Y-101400000D01*
X149800000Y-101400000D01*
X149800000Y-100600000D01*
G36*
X149800000Y-100600000D02*
G01*
X150600000Y-100600000D01*
X150600000Y-101400000D01*
X149800000Y-101400000D01*
X149800000Y-100600000D01*
G37*
X149800000Y-101600000D02*
X150600000Y-101600000D01*
X150600000Y-102400000D01*
X149800000Y-102400000D01*
X149800000Y-101600000D01*
G36*
X149800000Y-101600000D02*
G01*
X150600000Y-101600000D01*
X150600000Y-102400000D01*
X149800000Y-102400000D01*
X149800000Y-101600000D01*
G37*
M02*
