M48
; DRILL file {KiCad 7.0.9} date Thu Apr  4 22:53:38 2024
; FORMAT={-:-/ absolute / inch / decimal}
; #@! TF.CreationDate,2024-04-04T22:53:38+08:00
; #@! TF.GenerationSoftware,Kicad,Pcbnew,7.0.9
; #@! TF.FileFunction,Plated,1,4,PTH
FMAT,2
INCH
; #@! TA.AperFunction,Plated,PTH,ViaDrill
T1C0.0118
; #@! TA.AperFunction,Plated,PTH,ViaDrill
T2C0.0157
%
G90
G05
T1
X4.6063Y-3.8917
X4.6063Y-3.9213
X4.6142Y-3.563
X4.6142Y-3.6575
X4.6142Y-3.7008
X4.6191Y-3.6289
X4.6252Y-4.1244
X4.6319Y-3.8917
X4.6331Y-3.9213
X4.6354Y-4.2177
X4.6398Y-3.6575
X4.6398Y-3.7008
X4.6457Y-3.9744
X4.648Y-4.1012
X4.6484Y-4.0752
X4.6484Y-4.2984
X4.6496Y-4.4764
X4.6496Y-4.192
X4.6575Y-3.563
X4.6654Y-3.7283
X4.6654Y-4.0354
X4.6811Y-4.4764
X4.6831Y-3.5965
X4.6902Y-4.3567
X4.7008Y-3.7717
X4.7008Y-3.7953
X4.7019Y-4.1552
X4.7028Y-4.0652
X4.7047Y-3.563
X4.7052Y-4.2429
X4.7126Y-3.9134
X4.7126Y-4.4764
X4.7185Y-4.1358
X4.724Y-4.3146
X4.7252Y-4.3461
X4.7264Y-3.7713
X4.7283Y-3.7953
X4.7323Y-4.248
X4.7441Y-4.4764
X4.7461Y-3.6378
X4.748Y-3.563
X4.7492Y-4.4433
X4.7524Y-4.2691
X4.7539Y-3.8287
X4.7559Y-3.8071
X4.7677Y-4.3071
X4.7677Y-4.3386
X4.7717Y-3.6693
X4.7736Y-3.9016
X4.7756Y-4.4764
X4.7776Y-3.6378
X4.7791Y-3.7047
X4.7795Y-3.7402
X4.7795Y-3.7677
X4.7795Y-3.8071
X4.7795Y-3.8307
X4.7812Y-4.0512
X4.7815Y-4.4437
X4.7835Y-4.2697
X4.7881Y-3.8799
X4.7913Y-3.563
X4.7941Y-4.3489
X4.8031Y-4.0354
X4.8031Y-4.0669
X4.8071Y-4.4764
X4.811Y-4.2598
X4.811Y-4.2913
X4.811Y-4.437
X4.813Y-3.5827
X4.815Y-3.8858
X4.8196Y-3.6075
X4.8307Y-3.6693
X4.8307Y-3.7008
X4.8307Y-4.3425
X4.8346Y-3.8051
X4.8346Y-4.4764
X4.8386Y-4.437
X4.8406Y-3.6378
X4.8425Y-3.563
X4.8425Y-3.5945
X4.8465Y-3.8894
X4.8504Y-4.3228
X4.8514Y-4.0004
X4.8622Y-3.6535
X4.8622Y-3.6851
X4.8622Y-3.7126
X4.8661Y-4.4764
X4.8693Y-4.4126
X4.8717Y-4.0533
X4.8736Y-4.185
X4.8744Y-3.9853
X4.8858Y-4.3898
X4.8898Y-3.563
X4.8917Y-3.6063
X4.8917Y-3.6358
X4.8976Y-4.4764
X4.9059Y-4.2008
X4.9073Y-4.2711
X4.9094Y-4.3661
X4.9252Y-4.4764
X4.9291Y-4.3484
X4.9303Y-4.2512
X4.9331Y-3.9528
X4.9331Y-3.9961
X4.9331Y-4.0236
X4.9331Y-4.0472
X4.9449Y-3.563
X4.9449Y-3.5984
X4.9449Y-3.6929
X4.9449Y-3.7165
X4.9449Y-3.7402
X4.9449Y-3.7638
X4.9449Y-3.7874
X4.9469Y-4.3307
X4.952Y-4.228
X4.9528Y-4.0157
X4.9567Y-3.8071
X4.9587Y-4.4724
X4.9646Y-4.4488
X4.9665Y-4.311
X4.9665Y-4.3465
X4.9665Y-4.3701
X4.9665Y-4.3996
X4.9665Y-4.4232
X4.9685Y-3.6929
X4.9685Y-3.7165
X4.9685Y-3.7402
X4.9685Y-3.7638
X4.9685Y-3.7874
X4.9685Y-4.0335
X4.9685Y-4.0591
X4.9685Y-4.0827
X4.9685Y-4.1083
X4.9685Y-4.1318
X4.9685Y-4.2087
X4.9687Y-4.1555
X4.9803Y-3.8071
X4.9921Y-3.6929
X4.9921Y-3.7165
X4.9921Y-3.7402
X4.9921Y-3.7638
X4.9921Y-3.7874
X5.0157Y-3.7323
X5.0157Y-3.9055
X5.0177Y-3.9665
X5.0433Y-3.6929
X5.0433Y-3.9665
X5.063Y-4.3209
X5.063Y-4.3504
X5.063Y-4.3799
X5.063Y-4.4094
X5.063Y-4.439
X5.063Y-4.4685
X5.0669Y-3.9665
X5.0669Y-4.0039
X5.0709Y-3.6929
X5.0787Y-3.7323
X5.0787Y-3.7559
X5.0787Y-3.7795
X5.0827Y-3.5728
X5.0827Y-3.6024
X5.0984Y-3.6929
X5.1024Y-4.3209
X5.1024Y-4.3504
X5.1024Y-4.3799
X5.1024Y-4.4094
X5.1024Y-4.439
X5.1024Y-4.4685
X5.1102Y-3.7323
X5.1102Y-3.7559
X5.1102Y-3.7795
X5.1122Y-3.5728
X5.1122Y-3.6024
X5.126Y-3.6929
X5.1319Y-4.3209
X5.1319Y-4.3504
X5.1319Y-4.3799
X5.1319Y-4.4094
X5.1319Y-4.439
X5.1319Y-4.4685
X5.1339Y-3.7323
X5.1339Y-3.7559
X5.1339Y-3.7795
X5.1417Y-3.5728
X5.1417Y-3.6024
X5.1614Y-4.3209
X5.1614Y-4.3504
X5.1614Y-4.3799
X5.1614Y-4.4094
X5.1614Y-4.439
X5.1614Y-4.4685
X5.1713Y-3.5728
X5.1713Y-3.6024
X5.1772Y-3.7559
X5.1909Y-4.3209
X5.1909Y-4.3504
X5.1909Y-4.3799
X5.1909Y-4.4094
X5.1909Y-4.439
X5.1909Y-4.4685
X5.2008Y-3.5728
X5.2008Y-3.6024
X5.2008Y-3.6319
X5.2008Y-3.6614
X5.2008Y-3.7559
X5.2205Y-4.3209
X5.2205Y-4.3504
X5.2205Y-4.3799
X5.2205Y-4.4094
X5.2205Y-4.439
X5.2205Y-4.4685
X5.2303Y-3.5728
X5.2303Y-3.6024
X5.2303Y-3.6319
X5.2303Y-3.7795
X5.25Y-4.3209
X5.25Y-4.3504
X5.25Y-4.3799
X5.25Y-4.4094
X5.25Y-4.439
X5.25Y-4.4685
X5.2587Y-4.2768
X5.2594Y-4.2047
X5.2598Y-3.5728
X5.2598Y-3.6024
X5.2598Y-3.6319
X5.2598Y-3.9567
X5.2598Y-3.9862
X5.2598Y-4.0157
X5.2598Y-4.0945
X5.2598Y-4.124
X5.2598Y-4.1535
X5.2697Y-3.7795
X5.2795Y-4.3209
X5.2795Y-4.3504
X5.2795Y-4.3799
X5.2795Y-4.4094
X5.2795Y-4.439
X5.2795Y-4.4685
X5.289Y-4.2047
X5.2894Y-3.5728
X5.2894Y-3.6024
X5.2894Y-3.6319
X5.2894Y-3.9272
X5.2894Y-3.9567
X5.2894Y-3.9862
X5.2894Y-4.0157
X5.2894Y-4.0945
X5.2894Y-4.124
X5.2894Y-4.1535
X5.298Y-4.2768
X5.2992Y-3.7795
X5.2992Y-3.8091
X5.3091Y-4.3799
X5.3091Y-4.4094
X5.3091Y-4.439
X5.3091Y-4.4685
X5.3185Y-4.2047
X5.3189Y-3.5728
X5.3189Y-3.6024
X5.3189Y-3.6319
X5.3189Y-3.8386
X5.3189Y-3.8681
X5.3189Y-3.9272
X5.3189Y-3.9567
X5.3189Y-3.9862
X5.3189Y-4.0157
X5.3189Y-4.0945
X5.3189Y-4.124
X5.3189Y-4.1535
X5.3374Y-4.2768
X5.3386Y-4.3799
X5.3386Y-4.4094
X5.3386Y-4.439
X5.3386Y-4.4685
X5.348Y-4.2047
X5.3484Y-3.5728
X5.3484Y-3.6024
X5.3484Y-3.6319
X5.3484Y-3.75
X5.3484Y-3.8386
X5.3484Y-3.8681
X5.3484Y-3.8976
X5.3484Y-3.9272
X5.3484Y-3.9567
X5.3484Y-3.9862
X5.3484Y-4.0157
X5.3484Y-4.0945
X5.3484Y-4.0945
X5.3484Y-4.124
X5.3484Y-4.1535
X5.3681Y-4.3799
X5.3681Y-4.4094
X5.3681Y-4.439
X5.3681Y-4.4685
X5.3768Y-4.2768
X5.3776Y-4.2047
X5.378Y-3.5728
X5.378Y-3.6024
X5.378Y-3.6319
X5.378Y-3.75
X5.378Y-3.8386
X5.378Y-3.8681
X5.378Y-3.8976
X5.378Y-3.9272
X5.378Y-3.9567
X5.378Y-3.9862
X5.378Y-4.0157
X5.378Y-4.0945
X5.378Y-4.0945
X5.378Y-4.0945
X5.378Y-4.124
X5.378Y-4.1535
X5.3976Y-4.4094
X5.3976Y-4.439
X5.3976Y-4.4685
X5.4071Y-4.2047
X5.4075Y-3.5728
X5.4075Y-3.6024
X5.4075Y-3.6319
X5.4075Y-3.75
X5.4075Y-3.8386
X5.4075Y-3.8681
X5.4075Y-3.8976
X5.4075Y-3.9272
X5.4075Y-3.9567
X5.4075Y-3.9862
X5.4075Y-4.0157
X5.4075Y-4.0945
X5.4075Y-4.0945
X5.4075Y-4.0945
X5.4075Y-4.124
X5.4075Y-4.124
X5.4075Y-4.1535
X5.4161Y-4.2768
X5.4272Y-4.3209
X5.4272Y-4.4094
X5.4272Y-4.439
X5.4272Y-4.4685
X5.4366Y-4.2047
X5.437Y-3.5728
X5.437Y-3.6024
X5.437Y-3.6319
X5.437Y-3.75
X5.437Y-3.8386
X5.437Y-3.8681
X5.437Y-3.8976
X5.437Y-3.9272
X5.437Y-3.9567
X5.437Y-3.9862
X5.437Y-4.0157
X5.437Y-4.0945
X5.437Y-4.0945
X5.437Y-4.0945
X5.437Y-4.124
X5.437Y-4.124
X5.437Y-4.1535
X5.437Y-4.1535
X5.4555Y-4.2768
X5.4567Y-4.3209
X5.4567Y-4.4094
X5.4567Y-4.439
X5.4567Y-4.4685
X5.4661Y-4.2047
X5.4665Y-3.5728
X5.4665Y-3.6024
X5.4665Y-3.6319
X5.4665Y-3.75
X5.4665Y-3.8386
X5.4665Y-3.8681
X5.4665Y-3.8976
X5.4665Y-3.9272
X5.4665Y-3.9567
X5.4665Y-3.9862
X5.4665Y-4.0157
X5.4665Y-4.0945
X5.4665Y-4.0945
X5.4665Y-4.124
X5.4665Y-4.1535
X5.4862Y-4.3209
X5.4862Y-4.4094
X5.4862Y-4.4685
X5.4868Y-4.4386
X5.4949Y-4.2768
X5.4957Y-4.2047
X5.4961Y-3.5728
X5.4961Y-3.6024
X5.4961Y-3.6319
X5.4961Y-3.75
X5.4961Y-3.8386
X5.4961Y-3.8681
X5.4961Y-3.8976
X5.4961Y-3.9272
X5.4961Y-3.9567
X5.4961Y-3.9862
X5.4961Y-4.0157
X5.4961Y-4.0945
X5.4961Y-4.0945
X5.4961Y-4.124
X5.4961Y-4.1535
X5.5118Y-4.3209
X5.5157Y-4.4094
X5.5157Y-4.439
X5.5157Y-4.4685
X5.5252Y-4.2047
X5.5256Y-3.5728
X5.5256Y-3.6024
X5.5256Y-3.6319
X5.5256Y-3.75
X5.5256Y-3.8386
X5.5256Y-3.8681
X5.5256Y-3.8976
X5.5256Y-3.9272
X5.5256Y-3.9567
X5.5256Y-3.9862
X5.5256Y-4.0157
X5.5256Y-4.0945
X5.5256Y-4.0945
X5.5256Y-4.124
X5.5256Y-4.1535
X5.5343Y-4.2768
X5.5453Y-4.3209
X5.5453Y-4.4094
X5.5453Y-4.439
X5.5453Y-4.4685
X5.5547Y-4.2047
X5.5551Y-3.5728
X5.5551Y-3.6024
X5.5551Y-3.6319
X5.5551Y-3.75
X5.5551Y-3.8386
X5.5551Y-3.8681
X5.5551Y-3.8976
X5.5551Y-3.9272
X5.5551Y-3.9567
X5.5551Y-3.9862
X5.5551Y-4.0157
X5.5551Y-4.0945
X5.5551Y-4.0945
X5.5551Y-4.124
X5.5551Y-4.1535
X5.5736Y-4.2768
X5.5748Y-4.3209
X5.5748Y-4.4094
X5.5748Y-4.439
X5.5748Y-4.4685
X5.5843Y-4.2047
X5.5846Y-3.5728
X5.5846Y-3.6024
X5.5846Y-3.6319
X5.5846Y-3.6614
X5.5846Y-3.6909
X5.5846Y-3.75
X5.5846Y-3.7795
X5.5846Y-3.8091
X5.5846Y-3.8386
X5.5846Y-3.8681
X5.5846Y-3.8976
X5.5846Y-3.9272
X5.5846Y-3.9567
X5.5846Y-3.9862
X5.5846Y-4.0157
X5.5846Y-4.0945
X5.5846Y-4.124
X5.5846Y-4.1535
X5.6043Y-4.3209
X5.6043Y-4.4094
X5.6043Y-4.439
X5.6043Y-4.4685
X5.613Y-4.2768
X5.6138Y-4.2047
X5.6142Y-3.5728
X5.6142Y-3.6024
X5.6142Y-3.6319
X5.6142Y-3.6614
X5.6142Y-3.6909
X5.6142Y-3.75
X5.6142Y-3.7795
X5.6142Y-3.8091
X5.6142Y-3.8386
X5.6142Y-3.8681
X5.6142Y-3.8976
X5.6142Y-3.9272
X5.6142Y-3.9567
X5.6142Y-3.9862
X5.6142Y-4.0157
X5.6142Y-4.124
X5.6142Y-4.1535
X5.6339Y-4.3209
X5.6339Y-4.4094
X5.6339Y-4.439
X5.6339Y-4.4685
X5.6433Y-4.2047
X5.6437Y-3.5728
X5.6437Y-3.6024
X5.6437Y-3.6319
X5.6437Y-3.6614
X5.6437Y-3.6909
X5.6437Y-3.75
X5.6437Y-3.7795
X5.6437Y-3.8091
X5.6437Y-3.8386
X5.6437Y-3.8681
X5.6437Y-3.8976
X5.6437Y-3.9272
X5.6437Y-3.9567
X5.6437Y-3.9862
X5.6437Y-4.0157
X5.6437Y-4.1535
X5.6524Y-4.2768
X5.6535Y-4.0492
X5.6634Y-4.3209
X5.6634Y-4.4094
X5.6634Y-4.439
X5.6634Y-4.4685
X5.6713Y-4.0728
X5.6728Y-4.2047
X5.6732Y-3.5728
X5.6732Y-3.6024
X5.6732Y-3.6319
X5.6732Y-3.6614
X5.6732Y-3.6909
X5.6732Y-3.75
X5.6732Y-3.7795
X5.6732Y-3.8091
X5.6732Y-3.8386
X5.6732Y-3.8681
X5.6732Y-3.8976
X5.6732Y-3.9272
X5.6732Y-3.9567
X5.6732Y-3.9862
X5.6732Y-4.0157
X5.6819Y-4.2768
X5.6909Y-4.0965
X5.6929Y-4.3209
X5.6929Y-4.4094
X5.6929Y-4.439
X5.6929Y-4.4685
X5.7008Y-4.1339
X5.7024Y-4.2047
X5.7028Y-3.5728
X5.7028Y-3.6024
X5.7028Y-3.6319
X5.7028Y-3.6614
X5.7028Y-3.6909
X5.7028Y-3.75
X5.7028Y-3.7795
X5.7028Y-3.8091
X5.7028Y-3.8386
X5.7028Y-3.8681
X5.7028Y-3.8976
X5.7028Y-3.9272
X5.7028Y-3.9567
X5.7028Y-3.9862
X5.7028Y-3.9862
X5.7028Y-4.0157
X5.7028Y-4.0453
X5.7028Y-4.0748
X5.7114Y-4.2768
X5.7224Y-4.0945
X5.7224Y-4.1339
X5.7224Y-4.3209
X5.7224Y-4.4094
X5.7224Y-4.439
X5.7224Y-4.4685
X5.7244Y-4.2047
X5.7323Y-3.5728
X5.7323Y-3.6024
X5.7323Y-3.6319
X5.7323Y-3.6614
X5.7323Y-3.6909
X5.7323Y-3.75
X5.7323Y-3.7795
X5.7323Y-3.8091
X5.7323Y-3.8386
X5.7323Y-3.8681
X5.7323Y-3.8976
X5.7323Y-3.9272
X5.752Y-4.4094
X5.752Y-4.439
X5.752Y-4.4685
X5.7537Y-4.1772
X5.7618Y-3.5728
X5.7618Y-3.6024
X5.7618Y-3.6319
X5.7618Y-3.6614
X5.7618Y-3.6909
X5.7618Y-3.75
X5.7618Y-3.7795
X5.7618Y-3.8091
X5.7618Y-3.8386
X5.7618Y-3.8681
X5.7618Y-3.8976
X5.7618Y-3.9272
X5.7618Y-4.3209
X5.7618Y-4.3504
X5.7618Y-4.3799
X5.7815Y-4.4094
X5.7815Y-4.439
X5.7815Y-4.4685
X5.7913Y-3.5728
X5.7913Y-3.6024
X5.7913Y-3.6319
X5.7913Y-3.6614
X5.7913Y-3.6909
X5.7913Y-3.75
X5.7913Y-3.7795
X5.7913Y-3.8091
X5.7913Y-3.8386
X5.7913Y-3.8681
X5.7913Y-3.8976
X5.7913Y-3.9272
X5.7913Y-4.3209
X5.7913Y-4.3504
X5.7913Y-4.3799
X5.7992Y-4.2283
X5.811Y-4.4094
X5.811Y-4.439
X5.811Y-4.4685
X5.8209Y-3.5728
X5.8209Y-3.6024
X5.8209Y-3.6319
X5.8209Y-3.6614
X5.8209Y-3.6909
X5.8209Y-3.75
X5.8209Y-3.7795
X5.8209Y-3.8091
X5.8209Y-3.8386
X5.8209Y-3.8681
X5.8209Y-3.8976
X5.8209Y-3.9272
X5.8209Y-4.0059
X5.8209Y-4.0354
X5.8209Y-4.065
X5.8209Y-4.0945
X5.8209Y-4.124
X5.8209Y-4.1535
X5.8209Y-4.1831
X5.8209Y-4.3209
X5.8209Y-4.3504
X5.8209Y-4.3799
X5.8248Y-3.9764
X5.8307Y-4.2283
X5.8504Y-3.5728
X5.8504Y-3.6024
X5.8504Y-3.6319
X5.8504Y-3.6614
X5.8504Y-3.6909
X5.8504Y-3.75
X5.8504Y-3.7795
X5.8504Y-3.8091
X5.8504Y-3.8386
X5.8504Y-3.8681
X5.8504Y-3.8976
X5.8504Y-3.9272
X5.8504Y-3.9764
X5.8504Y-4.0059
X5.8504Y-4.0354
X5.8504Y-4.065
X5.8504Y-4.0945
X5.8504Y-4.124
X5.8504Y-4.1535
X5.8504Y-4.1831
X5.8799Y-3.5728
X5.8799Y-3.6024
X5.8799Y-3.6319
X5.8799Y-3.6614
X5.8799Y-3.6909
X5.8799Y-3.75
X5.8799Y-3.7795
X5.8799Y-3.8091
X5.8799Y-3.8386
X5.8799Y-3.8681
X5.8799Y-3.8976
X5.8799Y-3.9272
X5.8799Y-3.9764
X5.8799Y-4.0059
X5.8799Y-4.0354
X5.8799Y-4.065
X5.8799Y-4.0945
X5.8799Y-4.124
X5.8799Y-4.1535
X5.8799Y-4.1831
T2
X4.5906Y-3.7402
X4.5906Y-3.7992
X4.5906Y-3.8583
X4.5906Y-4.0354
X4.5906Y-4.0945
X4.5906Y-4.0945
X4.5906Y-4.1535
X4.5906Y-4.2126
X4.5906Y-4.2717
X4.5906Y-4.3307
X4.5906Y-4.3898
X4.5906Y-4.4488
X5.9291Y-3.563
X5.9291Y-3.6024
X5.9291Y-3.6417
X5.9291Y-3.6811
X5.9291Y-3.7598
X5.9291Y-3.7992
X5.9291Y-3.8386
X5.9291Y-3.878
X5.9291Y-3.9173
X5.9291Y-3.9764
X5.9291Y-4.0157
X5.9291Y-4.0551
X5.9291Y-4.0945
X5.9291Y-4.1339
X5.9291Y-4.1732
T0
M30
