%TF.GenerationSoftware,KiCad,Pcbnew,7.0.9*%
%TF.CreationDate,2024-04-04T22:54:04+08:00*%
%TF.ProjectId,power_module_v0.1,706f7765-725f-46d6-9f64-756c655f7630,rev?*%
%TF.SameCoordinates,Original*%
%TF.FileFunction,Copper,L4,Bot*%
%TF.FilePolarity,Positive*%
%FSLAX46Y46*%
G04 Gerber Fmt 4.6, Leading zero omitted, Abs format (unit mm)*
G04 Created by KiCad (PCBNEW 7.0.9) date 2024-04-04 22:54:04*
%MOMM*%
%LPD*%
G01*
G04 APERTURE LIST*
%TA.AperFunction,ViaPad*%
%ADD10C,0.800000*%
%TD*%
%TA.AperFunction,ViaPad*%
%ADD11C,0.500000*%
%TD*%
G04 APERTURE END LIST*
D10*
%TO.N,Net-(U1-NRST)*%
X116600000Y-98000000D03*
D11*
X119700000Y-99400000D03*
%TO.N,GNDA*%
X148600000Y-96000000D03*
X137570000Y-108630000D03*
X145070000Y-108630000D03*
X144850000Y-98250000D03*
X120630000Y-112860000D03*
X135850000Y-102000000D03*
X136600000Y-95250000D03*
X137350000Y-101250000D03*
X126800000Y-95600000D03*
X139600000Y-101250000D03*
X138100000Y-104000000D03*
X134340000Y-106800000D03*
X126200000Y-104350000D03*
X128700000Y-101700000D03*
X149350000Y-95250000D03*
X124400000Y-113700000D03*
X143350000Y-101250000D03*
X126800000Y-93800000D03*
X140350000Y-102000000D03*
X147100000Y-97500000D03*
X136600000Y-98250000D03*
X149350000Y-96000000D03*
X134600000Y-96000000D03*
X134350000Y-99750000D03*
X138850000Y-104000000D03*
X124200000Y-90500000D03*
X117740000Y-107130000D03*
X134350000Y-104750000D03*
X138850000Y-105500000D03*
X136590000Y-106800000D03*
X139600000Y-100500000D03*
X117650000Y-98850000D03*
X134600000Y-96750000D03*
X136600000Y-99750000D03*
X136600000Y-102000000D03*
X138100000Y-99000000D03*
X133600000Y-104750000D03*
X144850000Y-103500000D03*
X141850000Y-104750000D03*
X121250000Y-99100000D03*
X142600000Y-100500000D03*
X139600000Y-104000000D03*
X122250000Y-91000000D03*
X137350000Y-99750000D03*
X141850000Y-99000000D03*
X129000000Y-95400000D03*
X138850000Y-95250000D03*
X139600000Y-97500000D03*
X138850000Y-104750000D03*
X122800000Y-96650000D03*
X142600000Y-97500000D03*
X138100000Y-100500000D03*
X148600000Y-95250000D03*
X138100000Y-104000000D03*
X123000000Y-90500000D03*
X125800000Y-102000000D03*
X126200000Y-96200000D03*
X119850000Y-105049500D03*
X120550000Y-92400000D03*
X146350000Y-98250000D03*
X128100000Y-100750000D03*
X138100000Y-104750000D03*
X135100000Y-104000000D03*
X137350000Y-100500000D03*
X130400000Y-96000000D03*
X122000000Y-103300000D03*
X135850000Y-98250000D03*
X124250000Y-91600000D03*
X136600000Y-104750000D03*
X135100000Y-97500000D03*
X135570000Y-108630000D03*
X117480000Y-104760000D03*
X138850000Y-97500000D03*
X137350000Y-104000000D03*
X137340000Y-106800000D03*
X144850000Y-101250000D03*
X136600000Y-104000000D03*
X141100000Y-104000000D03*
X125950000Y-113600000D03*
X122800000Y-113700000D03*
X147100000Y-96000000D03*
X125230000Y-107980000D03*
X134570000Y-108630000D03*
X144100000Y-96750000D03*
X121442984Y-102900000D03*
X124100000Y-111500000D03*
X144840000Y-106800000D03*
X126200000Y-103700000D03*
X136600000Y-99000000D03*
D10*
X116600000Y-102500000D03*
D11*
X119400000Y-96400000D03*
X122418886Y-91631114D03*
X126205014Y-105550500D03*
X136570000Y-108630000D03*
X148600000Y-99000000D03*
X122200000Y-109000000D03*
X141570000Y-108630000D03*
X140350000Y-100500000D03*
X137350000Y-104750000D03*
X143350000Y-102000000D03*
X142600000Y-98250000D03*
X135850000Y-104000000D03*
X141100000Y-102000000D03*
X141100000Y-101250000D03*
X143350000Y-95250000D03*
X121400000Y-95000000D03*
X135100000Y-104750000D03*
X146350000Y-96000000D03*
X144050000Y-103450000D03*
X133570000Y-108630000D03*
D10*
X150600000Y-99500000D03*
D11*
X132100000Y-95400000D03*
X144100000Y-96000000D03*
X140350000Y-101250000D03*
X140350000Y-97500000D03*
X117000000Y-99600000D03*
X140570000Y-108630000D03*
X139600000Y-104000000D03*
X126200000Y-95000000D03*
X125600000Y-94400000D03*
X121100000Y-109400000D03*
X143350000Y-105500000D03*
X126150000Y-109500000D03*
X138850000Y-99750000D03*
X140350000Y-95250000D03*
X134350000Y-100500000D03*
X122700000Y-94000000D03*
X148600000Y-96750000D03*
X138570000Y-108630000D03*
X121700000Y-90500000D03*
X135100000Y-100500000D03*
X140350000Y-99750000D03*
X135100000Y-99750000D03*
X141850000Y-95250000D03*
X138100000Y-105500000D03*
X142600000Y-105500000D03*
X120750000Y-97250000D03*
X134350000Y-104000000D03*
X133590000Y-106800000D03*
X142600000Y-104750000D03*
X147850000Y-96750000D03*
X134350000Y-101250000D03*
X117200000Y-90500000D03*
X137350000Y-99000000D03*
X125600000Y-96200000D03*
X135850000Y-104000000D03*
X136600000Y-104000000D03*
X140350000Y-104750000D03*
X138100000Y-98250000D03*
X121350000Y-92400000D03*
X121400000Y-96700000D03*
X144850000Y-102000000D03*
X148600000Y-99750000D03*
X133600000Y-105500000D03*
X122699500Y-93200000D03*
X126200000Y-106900000D03*
X141840000Y-106800000D03*
X133600000Y-101250000D03*
X137350000Y-102000000D03*
X147100000Y-96750000D03*
X120100000Y-96400000D03*
X136600000Y-105500000D03*
X139600000Y-99750000D03*
X141100000Y-97500000D03*
X138850000Y-98250000D03*
X145350000Y-105000000D03*
X126200000Y-103100000D03*
X135850000Y-105500000D03*
X138100000Y-105500000D03*
X117325000Y-92175000D03*
X117850000Y-94000000D03*
X126800000Y-95000000D03*
X137350000Y-104750000D03*
X143570000Y-108630000D03*
X149350000Y-99000000D03*
X126500000Y-96700000D03*
D10*
X150600000Y-95500000D03*
D11*
X144850000Y-102750000D03*
X126150000Y-110400000D03*
X137350000Y-104000000D03*
X138100000Y-97500000D03*
X117680000Y-99600000D03*
X137350000Y-105500000D03*
X124250000Y-92350000D03*
X129000000Y-96000000D03*
X121400000Y-95700000D03*
X135850000Y-95250000D03*
X138850000Y-99000000D03*
X140350000Y-104000000D03*
X146350000Y-96750000D03*
X136600000Y-101250000D03*
X122200000Y-108200000D03*
X126200000Y-93800000D03*
X144100000Y-95250000D03*
X138850000Y-100500000D03*
X142600000Y-96750000D03*
X135100000Y-102000000D03*
X140340000Y-106800000D03*
X141100000Y-99000000D03*
X135850000Y-101250000D03*
X122100000Y-113700000D03*
X137350000Y-97500000D03*
X121100000Y-110200000D03*
X146350000Y-95250000D03*
X122950000Y-92400000D03*
X144100000Y-100500000D03*
X119990000Y-109590000D03*
X147850000Y-97500000D03*
X142570000Y-108630000D03*
X119450498Y-103255169D03*
X141850000Y-96000000D03*
X122000000Y-102500000D03*
X138840000Y-106800000D03*
X144850000Y-95250000D03*
X141100000Y-99750000D03*
X145600000Y-95250000D03*
X121400000Y-97300000D03*
X139570000Y-108630000D03*
X125600000Y-93800000D03*
X138100000Y-104000000D03*
X149350000Y-97500000D03*
X119700000Y-113700000D03*
X120020000Y-110390000D03*
X145600000Y-99000000D03*
X147100000Y-99000000D03*
X135840000Y-106800000D03*
X117000000Y-98850000D03*
X135100000Y-101250000D03*
X147850000Y-98250000D03*
X125100000Y-113700000D03*
X138100000Y-102000000D03*
X126200000Y-94400000D03*
X142600000Y-99750000D03*
X139600000Y-98250000D03*
X125600000Y-91400000D03*
X147100000Y-95250000D03*
X118900000Y-113700000D03*
X144320000Y-108630000D03*
X141090000Y-106800000D03*
X134350000Y-102000000D03*
X136600000Y-104000000D03*
X142600000Y-95250000D03*
X121450000Y-112870000D03*
X143350000Y-98250000D03*
X149350000Y-99750000D03*
X129800000Y-95400000D03*
X123600000Y-113700000D03*
X125780000Y-107390000D03*
X120600000Y-90500000D03*
X126150000Y-111750000D03*
X137350000Y-104000000D03*
X147850000Y-99750000D03*
X145600000Y-99750000D03*
X118070000Y-109180000D03*
X142590000Y-106800000D03*
X138100000Y-95250000D03*
X139600000Y-104750000D03*
X147850000Y-99000000D03*
X118100000Y-113700000D03*
X126800000Y-96200000D03*
X143350000Y-96000000D03*
X143340000Y-106800000D03*
X121300000Y-113700000D03*
X125600000Y-95600000D03*
X135100000Y-105500000D03*
X145350000Y-104000000D03*
X144850000Y-97500000D03*
X147850000Y-95250000D03*
X130400000Y-95400000D03*
X144100000Y-102000000D03*
X144100000Y-98250000D03*
X139600000Y-99000000D03*
X145600000Y-96000000D03*
X139600000Y-102000000D03*
X141100000Y-105500000D03*
X147850000Y-96000000D03*
X144100000Y-101250000D03*
X141850000Y-105500000D03*
X145600000Y-97500000D03*
X142600000Y-102000000D03*
X138100000Y-99750000D03*
D10*
X150600000Y-98500000D03*
D11*
X119427657Y-105542937D03*
X141100000Y-95250000D03*
X141850000Y-99750000D03*
X125650000Y-110000000D03*
X118060000Y-104170000D03*
X138100000Y-104750000D03*
X125300000Y-102800000D03*
X125600000Y-95000000D03*
X141100000Y-104000000D03*
X141850000Y-101250000D03*
X117200000Y-92900000D03*
X138090000Y-106800000D03*
X138850000Y-101250000D03*
X137350000Y-95250000D03*
X129800000Y-94800000D03*
X138100000Y-101250000D03*
X118070000Y-103510000D03*
X140350000Y-98250000D03*
X118300000Y-90500000D03*
X144090000Y-106800000D03*
X123680000Y-112080000D03*
X142600000Y-99000000D03*
X131500000Y-95400000D03*
X136600000Y-97500000D03*
X144800000Y-105000000D03*
X121500000Y-108450000D03*
X124610000Y-106700000D03*
X125600000Y-90500000D03*
X149350000Y-98250000D03*
D10*
X150600000Y-97500000D03*
D11*
X124646256Y-108485630D03*
X125200000Y-110450000D03*
X141100000Y-104750000D03*
X144100000Y-99750000D03*
X146350000Y-99000000D03*
X126150000Y-111000000D03*
X149350000Y-96750000D03*
X135100000Y-98250000D03*
X145400000Y-106800000D03*
X144850000Y-100500000D03*
X140350000Y-99000000D03*
X135850000Y-97500000D03*
X126100000Y-113000000D03*
X133600000Y-102000000D03*
X142600000Y-96000000D03*
X125300000Y-102200000D03*
X118000000Y-100950000D03*
X119400000Y-95800000D03*
X132850000Y-96000000D03*
X142600000Y-101250000D03*
X141850000Y-96750000D03*
X127450000Y-100750000D03*
X126200000Y-95600000D03*
X128700000Y-100750000D03*
X129000000Y-94800000D03*
X123500000Y-92800000D03*
X120500000Y-113700000D03*
X143350000Y-99000000D03*
X141850000Y-104000000D03*
X130400000Y-94800000D03*
X119512640Y-107770232D03*
X143350000Y-99750000D03*
X135850000Y-104750000D03*
X141850000Y-100500000D03*
X143600000Y-102850000D03*
X124700000Y-110900000D03*
X138850000Y-102000000D03*
X141850000Y-97500000D03*
X143350000Y-100500000D03*
X145600000Y-98250000D03*
X141850000Y-102000000D03*
X125900000Y-96700000D03*
X123200000Y-109800000D03*
X135850000Y-99000000D03*
X146350000Y-97500000D03*
X126150000Y-112350000D03*
X140350000Y-105500000D03*
X125300000Y-101500000D03*
X139600000Y-105500000D03*
X135090000Y-106800000D03*
X119500000Y-90500000D03*
X135850000Y-100500000D03*
X120800000Y-96700000D03*
X123000000Y-91300000D03*
X126200000Y-104948977D03*
X133600000Y-104000000D03*
X129800000Y-96000000D03*
X144850000Y-96000000D03*
X148600000Y-98250000D03*
X136600000Y-100500000D03*
X144850000Y-99000000D03*
X147100000Y-98250000D03*
X137350000Y-98250000D03*
X144100000Y-97500000D03*
X118100916Y-106476196D03*
X148600000Y-97500000D03*
X146350000Y-99750000D03*
X143350000Y-96750000D03*
X133600000Y-100500000D03*
X123500000Y-93600497D03*
X126800000Y-94400000D03*
X145600000Y-96750000D03*
X144850000Y-99750000D03*
X139600000Y-95250000D03*
X139590000Y-106800000D03*
X121390000Y-94100000D03*
D10*
X150600000Y-96500000D03*
D11*
X133850000Y-96000000D03*
X135850000Y-99750000D03*
X144850000Y-101250000D03*
X141850000Y-98250000D03*
X144550000Y-104050000D03*
X122700000Y-110300000D03*
X127400000Y-94800000D03*
X120049445Y-95791374D03*
X143350000Y-97500000D03*
X117850000Y-92900000D03*
X138850000Y-104000000D03*
X141100000Y-98250000D03*
X134350000Y-105500000D03*
X140350000Y-104000000D03*
X117200000Y-94000000D03*
X144100000Y-99000000D03*
X126200000Y-102450497D03*
X147100000Y-99750000D03*
X144850000Y-96750000D03*
X141100000Y-100500000D03*
%TO.N,+5VA*%
X125300000Y-100400000D03*
X118950000Y-91350000D03*
%TO.N,Net-(U2-VSEN+)*%
X132600000Y-111250000D03*
X129600000Y-112000000D03*
X134850000Y-112000000D03*
X147600000Y-113500000D03*
X146850000Y-112750000D03*
X134850000Y-112750000D03*
X128600000Y-109750000D03*
X131100000Y-112000000D03*
X146350000Y-110500000D03*
X133350000Y-112000000D03*
X140100000Y-112750000D03*
X131850000Y-109750000D03*
X146850000Y-113500000D03*
X147850000Y-111250000D03*
X137850000Y-113500000D03*
X147850000Y-110500000D03*
X144600000Y-109750000D03*
X140100000Y-113500000D03*
X147100000Y-110500000D03*
X121770332Y-110461723D03*
X136350000Y-113500000D03*
X134850000Y-113500000D03*
X138600000Y-112000000D03*
X146100000Y-113500000D03*
X132600000Y-112750000D03*
X141600000Y-113500000D03*
X131100000Y-113500000D03*
X144600000Y-113500000D03*
X131100000Y-112750000D03*
X134850000Y-111250000D03*
X145350000Y-113500000D03*
X131850000Y-112000000D03*
X128600000Y-110500000D03*
X132600000Y-110500000D03*
X137850000Y-112000000D03*
X137100000Y-113500000D03*
X143100000Y-113500000D03*
X130350000Y-112000000D03*
X147850000Y-109750000D03*
X133350000Y-109750000D03*
X130350000Y-110500000D03*
X133350000Y-112750000D03*
X142350000Y-113500000D03*
X146100000Y-112750000D03*
X143100000Y-112750000D03*
X134100000Y-112000000D03*
X138600000Y-109750000D03*
X129600000Y-109750000D03*
X131100000Y-110500000D03*
X142350000Y-109750000D03*
X132600000Y-113500000D03*
X142350000Y-112000000D03*
X130350000Y-112750000D03*
X146100000Y-112000000D03*
X140850000Y-109750000D03*
X131100000Y-111250000D03*
X133350000Y-111250000D03*
X141600000Y-109750000D03*
X134100000Y-109750000D03*
X129600000Y-112750000D03*
X132600000Y-112000000D03*
X147600000Y-112000000D03*
X135600000Y-112000000D03*
X134100000Y-110500000D03*
X134100000Y-112750000D03*
X136350000Y-111250000D03*
X139350000Y-113500000D03*
X143850000Y-109750000D03*
X131850000Y-110500000D03*
X139350000Y-112000000D03*
X129600000Y-110500000D03*
X128600000Y-112000000D03*
X146144500Y-106100000D03*
X144600000Y-112000000D03*
X128600000Y-113500000D03*
X145350000Y-112000000D03*
X131850000Y-112750000D03*
X134100000Y-111250000D03*
X145350000Y-109750000D03*
X143100000Y-109750000D03*
X143850000Y-112000000D03*
X131850000Y-111250000D03*
X143100000Y-112000000D03*
X137850000Y-109750000D03*
X146350000Y-111250000D03*
X132600000Y-109750000D03*
X137850000Y-112750000D03*
X147100000Y-109750000D03*
X147100000Y-111250000D03*
X140850000Y-112000000D03*
X131850000Y-113500000D03*
X140850000Y-113500000D03*
X140100000Y-112000000D03*
X129600000Y-113500000D03*
X133350000Y-110500000D03*
X137100000Y-112750000D03*
X136350000Y-112750000D03*
X130350000Y-109750000D03*
X141600000Y-112750000D03*
X140850000Y-112750000D03*
X142350000Y-112750000D03*
X138600000Y-113500000D03*
X139364224Y-112741396D03*
X130350000Y-111250000D03*
X137100000Y-112000000D03*
X143850000Y-112750000D03*
X134100000Y-113500000D03*
X130350000Y-113500000D03*
X139350000Y-109750000D03*
X144600000Y-112750000D03*
X138600000Y-112750000D03*
X131100000Y-109750000D03*
X146350000Y-109750000D03*
X128600000Y-112750000D03*
X129600000Y-111250000D03*
X141600000Y-112000000D03*
X146850000Y-112000000D03*
X135600000Y-113500000D03*
X136350000Y-112000000D03*
X139999503Y-109750000D03*
X145350000Y-112750000D03*
X123500000Y-94300000D03*
X147600000Y-112750000D03*
X135600000Y-111250000D03*
X135600000Y-112750000D03*
X128600000Y-111250000D03*
X133350000Y-113500000D03*
X143850000Y-113500000D03*
%TO.N,VCC*%
X141850000Y-93750000D03*
X127400000Y-99200000D03*
X144850000Y-90750000D03*
X132850000Y-90750000D03*
X138100000Y-92250000D03*
X149350000Y-92250000D03*
X145600000Y-92250000D03*
X135850000Y-90750000D03*
X144100000Y-93750000D03*
X147850000Y-93750000D03*
X138850000Y-90750000D03*
X148600000Y-93750000D03*
X136600000Y-90750000D03*
X144850000Y-91500000D03*
X141100000Y-92250000D03*
X130200000Y-93800000D03*
X144100000Y-92250000D03*
X136600000Y-92250000D03*
X142600000Y-92250000D03*
X141850000Y-92250000D03*
X144850000Y-93750000D03*
X138850000Y-92250000D03*
X132100000Y-93000000D03*
X135850000Y-92250000D03*
X138850000Y-91500000D03*
X146350000Y-93750000D03*
X140350000Y-90750000D03*
X149350000Y-93750000D03*
X148600000Y-91500000D03*
X130600000Y-90750000D03*
X144100000Y-93000000D03*
X137350000Y-90750000D03*
X129100000Y-90750000D03*
X147100000Y-91500000D03*
X143350000Y-93000000D03*
X148600000Y-90750000D03*
X142600000Y-93000000D03*
X133600000Y-90750000D03*
X135850000Y-91500000D03*
D10*
X150600000Y-93500000D03*
D11*
X132100000Y-91500000D03*
X147850000Y-92250000D03*
X144100000Y-90750000D03*
X145600000Y-93750000D03*
X135100000Y-90750000D03*
X129850000Y-90750000D03*
X131350000Y-91500000D03*
X149350000Y-90750000D03*
X143350000Y-92250000D03*
X145600000Y-90750000D03*
X132100000Y-92250000D03*
X135100000Y-92250000D03*
X146350000Y-90750000D03*
X141850000Y-93000000D03*
X145600000Y-93000000D03*
X134350000Y-92250000D03*
X134350000Y-91500000D03*
X145600000Y-91500000D03*
D10*
X150600000Y-90500000D03*
D11*
X144100000Y-91500000D03*
X137350000Y-91500000D03*
X147100000Y-93000000D03*
X128100000Y-93800000D03*
X129850000Y-91500000D03*
X133600000Y-92250000D03*
X133600000Y-91500000D03*
X134350000Y-90750000D03*
X137350000Y-92250000D03*
X143350000Y-93750000D03*
X138100000Y-91500000D03*
X142600000Y-91500000D03*
X140350000Y-91500000D03*
D10*
X150600000Y-92500000D03*
D11*
X147100000Y-93750000D03*
X132100000Y-90750000D03*
X128800000Y-93800000D03*
X139600000Y-92250000D03*
X146350000Y-92250000D03*
X143350000Y-91500000D03*
X147850000Y-93000000D03*
X132850000Y-91500000D03*
X129100000Y-91500000D03*
X140350000Y-92250000D03*
X142600000Y-93750000D03*
X149350000Y-91500000D03*
X148600000Y-92250000D03*
X144850000Y-93000000D03*
X149350000Y-93000000D03*
X141850000Y-90750000D03*
X146350000Y-91500000D03*
X143350000Y-90750000D03*
X141100000Y-91500000D03*
X142600000Y-90750000D03*
X141850000Y-91500000D03*
X148600000Y-93000000D03*
X139600000Y-90750000D03*
X146350000Y-93000000D03*
X131350000Y-90750000D03*
X147100000Y-90750000D03*
X139600000Y-91500000D03*
X147850000Y-91500000D03*
X129500000Y-93800000D03*
X141100000Y-90750000D03*
X144850000Y-92250000D03*
X130600000Y-91500000D03*
X138100000Y-90750000D03*
X135100000Y-91500000D03*
X136600000Y-91500000D03*
X147100000Y-92250000D03*
D10*
X150600000Y-91500000D03*
D11*
X147850000Y-90750000D03*
X132850000Y-92250000D03*
%TO.N,+3.3V*%
X118500000Y-102500000D03*
X118500000Y-94700000D03*
X119130000Y-110660000D03*
D10*
X116600000Y-104000000D03*
D11*
X123790000Y-106300000D03*
X121200000Y-93200000D03*
X123100000Y-98790000D03*
X123742333Y-102953937D03*
D10*
X116600000Y-104000000D03*
D11*
%TO.N,I2C0_SCL*%
X123809998Y-101226361D03*
X120200000Y-107900000D03*
D10*
X116600000Y-111500000D03*
%TO.N,UART_TXD*%
X116600000Y-105500000D03*
%TO.N,UART_RXD*%
X116600000Y-107000000D03*
D11*
%TO.N,I2C0_SDA*%
X123224500Y-101609109D03*
X120711349Y-108434212D03*
D10*
X116600000Y-113000000D03*
D11*
%TO.N,Net-(U3-Vin-)*%
X147300000Y-107400000D03*
X122200000Y-112700000D03*
%TO.N,Net-(U3-Vin+)*%
X148100000Y-107400000D03*
X122899503Y-112700000D03*
%TO.N,/VOUT*%
X148600000Y-104000000D03*
X148600000Y-104750000D03*
X148600000Y-106250000D03*
X149350000Y-103250000D03*
X147850000Y-102500000D03*
D10*
X150600000Y-103000000D03*
D11*
X147850000Y-104750000D03*
X147850000Y-105500000D03*
X147850000Y-101750000D03*
X147850000Y-104000000D03*
X149350000Y-102500000D03*
D10*
X150600000Y-106000000D03*
D11*
X149350000Y-104750000D03*
X148600000Y-102500000D03*
D10*
X150600000Y-105000000D03*
D11*
X148600000Y-103250000D03*
X147950497Y-101000000D03*
X149350000Y-104000000D03*
X147850000Y-106250000D03*
X149350000Y-106250000D03*
D10*
X150600000Y-101000000D03*
D11*
X147850000Y-103250000D03*
D10*
X150600000Y-102000000D03*
D11*
X149350000Y-105500000D03*
X148600000Y-101000000D03*
X149350000Y-101000000D03*
X148600000Y-101750000D03*
X148600000Y-105500000D03*
D10*
X150600000Y-104000000D03*
D11*
X149350000Y-101750000D03*
D10*
%TO.N,GPIO2*%
X116600000Y-108500000D03*
%TO.N,GPIO3*%
X116600000Y-110000000D03*
D11*
%TO.N,SWDIO*%
X122300000Y-98700000D03*
D10*
X116600000Y-95000000D03*
%TO.N,SWCLK*%
X116600000Y-96500000D03*
D11*
X121617128Y-98549500D03*
%TD*%
%TA.AperFunction,Conductor*%
%TO.N,+3.3V*%
G36*
X117296632Y-103603368D02*
G01*
X117300000Y-103611500D01*
X117300000Y-104334724D01*
X117296632Y-104342856D01*
X117291745Y-104345757D01*
X117290929Y-104345996D01*
X117209740Y-104398174D01*
X117203523Y-104400000D01*
X116612000Y-104400000D01*
X116603868Y-104396632D01*
X116600500Y-104388500D01*
X116600500Y-103611500D01*
X116603868Y-103603368D01*
X116612000Y-103600000D01*
X117288500Y-103600000D01*
X117296632Y-103603368D01*
G37*
%TD.AperFunction*%
%TD*%
%TA.AperFunction,Conductor*%
%TO.N,Net-(U2-VSEN+)*%
G36*
X148143039Y-109419685D02*
G01*
X148188794Y-109472489D01*
X148200000Y-109524000D01*
X148200000Y-113676000D01*
X148180315Y-113743039D01*
X148127511Y-113788794D01*
X148076000Y-113800000D01*
X128124000Y-113800000D01*
X128056961Y-113780315D01*
X128011206Y-113727511D01*
X128000000Y-113676000D01*
X128000000Y-109524000D01*
X128019685Y-109456961D01*
X128072489Y-109411206D01*
X128124000Y-109400000D01*
X148076000Y-109400000D01*
X148143039Y-109419685D01*
G37*
%TD.AperFunction*%
%TD*%
%TA.AperFunction,Conductor*%
%TO.N,I2C0_SDA*%
G36*
X117296632Y-112603368D02*
G01*
X117300000Y-112611500D01*
X117300000Y-113388500D01*
X117296632Y-113396632D01*
X117288500Y-113400000D01*
X116612000Y-113400000D01*
X116603868Y-113396632D01*
X116600500Y-113388500D01*
X116600500Y-112611500D01*
X116603868Y-112603368D01*
X116612000Y-112600000D01*
X117288500Y-112600000D01*
X117296632Y-112603368D01*
G37*
%TD.AperFunction*%
%TD*%
%TA.AperFunction,Conductor*%
%TO.N,SWCLK*%
G36*
X117396632Y-96103368D02*
G01*
X117400000Y-96111500D01*
X117400000Y-96888500D01*
X117396632Y-96896632D01*
X117388500Y-96900000D01*
X116612000Y-96900000D01*
X116603868Y-96896632D01*
X116600500Y-96888500D01*
X116600500Y-96111500D01*
X116603868Y-96103368D01*
X116612000Y-96100000D01*
X117388500Y-96100000D01*
X117396632Y-96103368D01*
G37*
%TD.AperFunction*%
%TD*%
%TA.AperFunction,Conductor*%
%TO.N,GPIO3*%
G36*
X117296632Y-109603368D02*
G01*
X117300000Y-109611500D01*
X117300000Y-110388500D01*
X117296632Y-110396632D01*
X117288500Y-110400000D01*
X116612000Y-110400000D01*
X116603868Y-110396632D01*
X116600500Y-110388500D01*
X116600500Y-109611500D01*
X116603868Y-109603368D01*
X116612000Y-109600000D01*
X117288500Y-109600000D01*
X117296632Y-109603368D01*
G37*
%TD.AperFunction*%
%TD*%
%TA.AperFunction,Conductor*%
%TO.N,VCC*%
G36*
X150596132Y-90103368D02*
G01*
X150599500Y-90111500D01*
X150599500Y-90186001D01*
X149800000Y-90185773D01*
X149800000Y-90111500D01*
X149803368Y-90103368D01*
X149811500Y-90100000D01*
X150588000Y-90100000D01*
X150596132Y-90103368D01*
G37*
%TD.AperFunction*%
%TD*%
%TA.AperFunction,Conductor*%
%TO.N,VCC*%
G36*
X150591233Y-90185999D02*
G01*
X150599500Y-90224000D01*
X150599500Y-94176000D01*
X150579815Y-94243039D01*
X150527011Y-94288794D01*
X150475500Y-94300000D01*
X128214170Y-94300000D01*
X128147131Y-94280315D01*
X128101376Y-94227511D01*
X128090170Y-94176000D01*
X128090170Y-94120000D01*
X127754170Y-94120000D01*
X127687131Y-94100315D01*
X127641376Y-94047511D01*
X127630170Y-93996000D01*
X127630170Y-93564000D01*
X127649855Y-93496961D01*
X127702659Y-93451206D01*
X127754170Y-93440000D01*
X128100170Y-93440000D01*
X128100170Y-92404000D01*
X128119855Y-92336961D01*
X128172659Y-92291206D01*
X128224170Y-92280000D01*
X128640170Y-92280000D01*
X128640170Y-90304000D01*
X128659855Y-90236961D01*
X128712659Y-90191206D01*
X128764170Y-90180000D01*
X129550170Y-90180000D01*
X150591233Y-90185999D01*
G37*
%TD.AperFunction*%
%TD*%
%TA.AperFunction,Conductor*%
%TO.N,GPIO2*%
G36*
X117296632Y-108103368D02*
G01*
X117300000Y-108111500D01*
X117300000Y-108888500D01*
X117296632Y-108896632D01*
X117288500Y-108900000D01*
X116612000Y-108900000D01*
X116603868Y-108896632D01*
X116600500Y-108888500D01*
X116600500Y-108111500D01*
X116603868Y-108103368D01*
X116612000Y-108100000D01*
X117288500Y-108100000D01*
X117296632Y-108103368D01*
G37*
%TD.AperFunction*%
%TD*%
%TA.AperFunction,Conductor*%
%TO.N,GNDA*%
G36*
X128418159Y-90020185D02*
G01*
X128463914Y-90072989D01*
X128473858Y-90142147D01*
X128463793Y-90171981D01*
X128465377Y-90172647D01*
X128462679Y-90179064D01*
X128442996Y-90246096D01*
X128434670Y-90304003D01*
X128434670Y-91950500D01*
X128414985Y-92017539D01*
X128362181Y-92063294D01*
X128310670Y-92074500D01*
X128224162Y-92074500D01*
X128180483Y-92079197D01*
X128128977Y-92090402D01*
X128118799Y-92092889D01*
X128118794Y-92092891D01*
X128038086Y-92135899D01*
X128038083Y-92135901D01*
X127993414Y-92174607D01*
X127985281Y-92181655D01*
X127967329Y-92199243D01*
X127967324Y-92199249D01*
X127922681Y-92279059D01*
X127922679Y-92279064D01*
X127902996Y-92346096D01*
X127894670Y-92404003D01*
X127894670Y-93110500D01*
X127874985Y-93177539D01*
X127822181Y-93223294D01*
X127770670Y-93234500D01*
X127754162Y-93234500D01*
X127710483Y-93239197D01*
X127658977Y-93250402D01*
X127648799Y-93252889D01*
X127648794Y-93252891D01*
X127568086Y-93295899D01*
X127568083Y-93295901D01*
X127530780Y-93328225D01*
X127515281Y-93341655D01*
X127497329Y-93359243D01*
X127497324Y-93359249D01*
X127452681Y-93439059D01*
X127452679Y-93439064D01*
X127432996Y-93506096D01*
X127432995Y-93506101D01*
X127432995Y-93506102D01*
X127427551Y-93543967D01*
X127424670Y-93564003D01*
X127424670Y-93996007D01*
X127429367Y-94039686D01*
X127440572Y-94091193D01*
X127443059Y-94101370D01*
X127443060Y-94101373D01*
X127486070Y-94182085D01*
X127531825Y-94234889D01*
X127549416Y-94252843D01*
X127549417Y-94252844D01*
X127549419Y-94252845D01*
X127629229Y-94297488D01*
X127629233Y-94297490D01*
X127696272Y-94317175D01*
X127754170Y-94325500D01*
X127857740Y-94325500D01*
X127924779Y-94345185D01*
X127951451Y-94368296D01*
X127991825Y-94414889D01*
X128009416Y-94432843D01*
X128009417Y-94432844D01*
X128009419Y-94432845D01*
X128047126Y-94453937D01*
X128089233Y-94477490D01*
X128156272Y-94497175D01*
X128214170Y-94505500D01*
X128214174Y-94505500D01*
X150475500Y-94505500D01*
X150542539Y-94525185D01*
X150588294Y-94577989D01*
X150599500Y-94629500D01*
X150599500Y-100245682D01*
X150579815Y-100312721D01*
X150527011Y-100358476D01*
X150475682Y-100369682D01*
X147894457Y-100373477D01*
X147323511Y-100374317D01*
X147301744Y-100376682D01*
X147279973Y-100379047D01*
X147252890Y-100384960D01*
X147228653Y-100390253D01*
X147223640Y-100391480D01*
X147218628Y-100392706D01*
X147218626Y-100392707D01*
X147137916Y-100435716D01*
X147137913Y-100435718D01*
X147093244Y-100474424D01*
X147085111Y-100481472D01*
X147067159Y-100499060D01*
X147067154Y-100499066D01*
X147022511Y-100578876D01*
X147022509Y-100578881D01*
X147002826Y-100645913D01*
X147002825Y-100645918D01*
X147002825Y-100645919D01*
X146995458Y-100697159D01*
X146994500Y-100703820D01*
X146994500Y-106376007D01*
X146999197Y-106419686D01*
X147010402Y-106471193D01*
X147011446Y-106475464D01*
X147012890Y-106481373D01*
X147055900Y-106562085D01*
X147101655Y-106614889D01*
X147119246Y-106632843D01*
X147119247Y-106632844D01*
X147119249Y-106632845D01*
X147197563Y-106676651D01*
X147199063Y-106677490D01*
X147266102Y-106697175D01*
X147304963Y-106702762D01*
X147344324Y-106720739D01*
X147396223Y-106705500D01*
X148003776Y-106705500D01*
X148070815Y-106725185D01*
X148099999Y-106758865D01*
X148129184Y-106725185D01*
X148196223Y-106705500D01*
X150475500Y-106705500D01*
X150542539Y-106725185D01*
X150588294Y-106777989D01*
X150599500Y-106829500D01*
X150599500Y-113875500D01*
X150579815Y-113942539D01*
X150527011Y-113988294D01*
X150475500Y-113999500D01*
X148477862Y-113999500D01*
X148410823Y-113979815D01*
X148365068Y-113927011D01*
X148355124Y-113857853D01*
X148369641Y-113814967D01*
X148377490Y-113800937D01*
X148397175Y-113733898D01*
X148405500Y-113676000D01*
X148405500Y-109524000D01*
X148400803Y-109480316D01*
X148396535Y-109460701D01*
X148389598Y-109428807D01*
X148387110Y-109418629D01*
X148387110Y-109418627D01*
X148344100Y-109337915D01*
X148298345Y-109285111D01*
X148280756Y-109267159D01*
X148280750Y-109267154D01*
X148200940Y-109222511D01*
X148200935Y-109222509D01*
X148133903Y-109202826D01*
X148133899Y-109202825D01*
X148133898Y-109202825D01*
X148076000Y-109194500D01*
X128124000Y-109194500D01*
X128123992Y-109194500D01*
X128080313Y-109199197D01*
X128028807Y-109210402D01*
X128018629Y-109212889D01*
X128018624Y-109212891D01*
X127937916Y-109255899D01*
X127937913Y-109255901D01*
X127904205Y-109285110D01*
X127885111Y-109301655D01*
X127867159Y-109319243D01*
X127867154Y-109319249D01*
X127822511Y-109399059D01*
X127822509Y-109399064D01*
X127802826Y-109466096D01*
X127802825Y-109466101D01*
X127802825Y-109466102D01*
X127794502Y-109523992D01*
X127794500Y-109524003D01*
X127794500Y-113676007D01*
X127799197Y-113719686D01*
X127810402Y-113771193D01*
X127812889Y-113781370D01*
X127812890Y-113781373D01*
X127823315Y-113800937D01*
X127831974Y-113817185D01*
X127846130Y-113885606D01*
X127821047Y-113950818D01*
X127764690Y-113992117D01*
X127722542Y-113999500D01*
X117924000Y-113999500D01*
X117856961Y-113979815D01*
X117811206Y-113927011D01*
X117800000Y-113875500D01*
X117800000Y-112700000D01*
X121744867Y-112700000D01*
X121763302Y-112828225D01*
X121817117Y-112946061D01*
X121817118Y-112946063D01*
X121901951Y-113043967D01*
X122010931Y-113114004D01*
X122135225Y-113150499D01*
X122135227Y-113150500D01*
X122135228Y-113150500D01*
X122264773Y-113150500D01*
X122264773Y-113150499D01*
X122389069Y-113114004D01*
X122482713Y-113053822D01*
X122549752Y-113034139D01*
X122616790Y-113053823D01*
X122710434Y-113114004D01*
X122834728Y-113150499D01*
X122834730Y-113150500D01*
X122834731Y-113150500D01*
X122964276Y-113150500D01*
X122964276Y-113150499D01*
X123088572Y-113114004D01*
X123197552Y-113043967D01*
X123282385Y-112946063D01*
X123336200Y-112828226D01*
X123354636Y-112700000D01*
X123336200Y-112571774D01*
X123282385Y-112453937D01*
X123197552Y-112356033D01*
X123088572Y-112285996D01*
X123088568Y-112285994D01*
X123088567Y-112285994D01*
X122964277Y-112249500D01*
X122964275Y-112249500D01*
X122834731Y-112249500D01*
X122834729Y-112249500D01*
X122710438Y-112285994D01*
X122710435Y-112285995D01*
X122710434Y-112285996D01*
X122639099Y-112331839D01*
X122616790Y-112346177D01*
X122549750Y-112365861D01*
X122482713Y-112346177D01*
X122389069Y-112285996D01*
X122389065Y-112285994D01*
X122389064Y-112285994D01*
X122264774Y-112249500D01*
X122264772Y-112249500D01*
X122135228Y-112249500D01*
X122135226Y-112249500D01*
X122010935Y-112285994D01*
X122010932Y-112285995D01*
X122010931Y-112285996D01*
X121959677Y-112318934D01*
X121901950Y-112356033D01*
X121817118Y-112453937D01*
X121817117Y-112453938D01*
X121763302Y-112571774D01*
X121744867Y-112700000D01*
X117800000Y-112700000D01*
X117800000Y-110660000D01*
X118674867Y-110660000D01*
X118693302Y-110788225D01*
X118708732Y-110822011D01*
X118747118Y-110906063D01*
X118831951Y-111003967D01*
X118940931Y-111074004D01*
X119065225Y-111110499D01*
X119065227Y-111110500D01*
X119065228Y-111110500D01*
X119194773Y-111110500D01*
X119194773Y-111110499D01*
X119319069Y-111074004D01*
X119428049Y-111003967D01*
X119512882Y-110906063D01*
X119566697Y-110788226D01*
X119585133Y-110660000D01*
X119566697Y-110531774D01*
X119534705Y-110461723D01*
X121315199Y-110461723D01*
X121333634Y-110589948D01*
X121387449Y-110707784D01*
X121387450Y-110707786D01*
X121472283Y-110805690D01*
X121581263Y-110875727D01*
X121698466Y-110910140D01*
X121705557Y-110912222D01*
X121705559Y-110912223D01*
X121705560Y-110912223D01*
X121835105Y-110912223D01*
X121835105Y-110912222D01*
X121959401Y-110875727D01*
X122068381Y-110805690D01*
X122153214Y-110707786D01*
X122207029Y-110589949D01*
X122225465Y-110461723D01*
X122207029Y-110333497D01*
X122153214Y-110215660D01*
X122068381Y-110117756D01*
X121959401Y-110047719D01*
X121959397Y-110047717D01*
X121959396Y-110047717D01*
X121835106Y-110011223D01*
X121835104Y-110011223D01*
X121705560Y-110011223D01*
X121705558Y-110011223D01*
X121581267Y-110047717D01*
X121581264Y-110047718D01*
X121581263Y-110047719D01*
X121530009Y-110080657D01*
X121472282Y-110117756D01*
X121387450Y-110215660D01*
X121387449Y-110215661D01*
X121333634Y-110333497D01*
X121315199Y-110461723D01*
X119534705Y-110461723D01*
X119512882Y-110413937D01*
X119428049Y-110316033D01*
X119319069Y-110245996D01*
X119319065Y-110245994D01*
X119319064Y-110245994D01*
X119194774Y-110209500D01*
X119194772Y-110209500D01*
X119065228Y-110209500D01*
X119065226Y-110209500D01*
X118940935Y-110245994D01*
X118940932Y-110245995D01*
X118940931Y-110245996D01*
X118889677Y-110278934D01*
X118831950Y-110316033D01*
X118747118Y-110413937D01*
X118747117Y-110413938D01*
X118693302Y-110531774D01*
X118674867Y-110660000D01*
X117800000Y-110660000D01*
X117800000Y-107900000D01*
X119744867Y-107900000D01*
X119763302Y-108028225D01*
X119791626Y-108090245D01*
X119817118Y-108146063D01*
X119901951Y-108243967D01*
X120010931Y-108314004D01*
X120131594Y-108349433D01*
X120135225Y-108350499D01*
X120135227Y-108350500D01*
X120136733Y-108350500D01*
X120138178Y-108350924D01*
X120144005Y-108351762D01*
X120143884Y-108352599D01*
X120203772Y-108370185D01*
X120249527Y-108422989D01*
X120259471Y-108456853D01*
X120274651Y-108562437D01*
X120317729Y-108656762D01*
X120328467Y-108680275D01*
X120413300Y-108778179D01*
X120522280Y-108848216D01*
X120646574Y-108884711D01*
X120646576Y-108884712D01*
X120646577Y-108884712D01*
X120776122Y-108884712D01*
X120776122Y-108884711D01*
X120900418Y-108848216D01*
X121009398Y-108778179D01*
X121094231Y-108680275D01*
X121148046Y-108562438D01*
X121166482Y-108434212D01*
X121148046Y-108305986D01*
X121094231Y-108188149D01*
X121009398Y-108090245D01*
X120900418Y-108020208D01*
X120900414Y-108020206D01*
X120900413Y-108020206D01*
X120776123Y-107983712D01*
X120776121Y-107983712D01*
X120774616Y-107983712D01*
X120773170Y-107983287D01*
X120767344Y-107982450D01*
X120767464Y-107981612D01*
X120707577Y-107964027D01*
X120661822Y-107911223D01*
X120651878Y-107877359D01*
X120636697Y-107771774D01*
X120602404Y-107696684D01*
X120582882Y-107653937D01*
X120498049Y-107556033D01*
X120389069Y-107485996D01*
X120389065Y-107485994D01*
X120389064Y-107485994D01*
X120264774Y-107449500D01*
X120264772Y-107449500D01*
X120135228Y-107449500D01*
X120135226Y-107449500D01*
X120010935Y-107485994D01*
X120010932Y-107485995D01*
X120010931Y-107485996D01*
X119959677Y-107518934D01*
X119901950Y-107556033D01*
X119817118Y-107653937D01*
X119817117Y-107653938D01*
X119763302Y-107771774D01*
X119744867Y-107900000D01*
X117800000Y-107900000D01*
X117800000Y-107400000D01*
X146844867Y-107400000D01*
X146863302Y-107528225D01*
X146898593Y-107605500D01*
X146917118Y-107646063D01*
X147001951Y-107743967D01*
X147110931Y-107814004D01*
X147235225Y-107850499D01*
X147235227Y-107850500D01*
X147235228Y-107850500D01*
X147364773Y-107850500D01*
X147364773Y-107850499D01*
X147489069Y-107814004D01*
X147598049Y-107743967D01*
X147606284Y-107734462D01*
X147665061Y-107696686D01*
X147734930Y-107696684D01*
X147793710Y-107734456D01*
X147793716Y-107734463D01*
X147801949Y-107743966D01*
X147801951Y-107743967D01*
X147910931Y-107814004D01*
X148035225Y-107850499D01*
X148035227Y-107850500D01*
X148035228Y-107850500D01*
X148164773Y-107850500D01*
X148164773Y-107850499D01*
X148289069Y-107814004D01*
X148398049Y-107743967D01*
X148482882Y-107646063D01*
X148536697Y-107528226D01*
X148555133Y-107400000D01*
X148536697Y-107271774D01*
X148482882Y-107153937D01*
X148398049Y-107056033D01*
X148289069Y-106985996D01*
X148289065Y-106985994D01*
X148289064Y-106985994D01*
X148161290Y-106948477D01*
X148102512Y-106910703D01*
X148100000Y-106905203D01*
X148097489Y-106910703D01*
X148038711Y-106948477D01*
X148038710Y-106948477D01*
X147910935Y-106985994D01*
X147910932Y-106985995D01*
X147910931Y-106985996D01*
X147869435Y-107012663D01*
X147801948Y-107056034D01*
X147793713Y-107065539D01*
X147734936Y-107103314D01*
X147665066Y-107103314D01*
X147606288Y-107065540D01*
X147606287Y-107065539D01*
X147598051Y-107056034D01*
X147577301Y-107042699D01*
X147489069Y-106985996D01*
X147489065Y-106985994D01*
X147489064Y-106985994D01*
X147361290Y-106948477D01*
X147337671Y-106933298D01*
X147304958Y-106948238D01*
X147287313Y-106949500D01*
X147235226Y-106949500D01*
X147110935Y-106985994D01*
X147110932Y-106985995D01*
X147110931Y-106985996D01*
X147059677Y-107018934D01*
X147001950Y-107056033D01*
X146917118Y-107153937D01*
X146917117Y-107153938D01*
X146863302Y-107271774D01*
X146844867Y-107400000D01*
X117800000Y-107400000D01*
X117800000Y-106300000D01*
X123334867Y-106300000D01*
X123353302Y-106428225D01*
X123392477Y-106514004D01*
X123407118Y-106546063D01*
X123491951Y-106643967D01*
X123600931Y-106714004D01*
X123623869Y-106720739D01*
X123725225Y-106750499D01*
X123725227Y-106750500D01*
X123725228Y-106750500D01*
X123854773Y-106750500D01*
X123854773Y-106750499D01*
X123979069Y-106714004D01*
X124088049Y-106643967D01*
X124172882Y-106546063D01*
X124226697Y-106428226D01*
X124245133Y-106300000D01*
X124226697Y-106171774D01*
X124193919Y-106100000D01*
X145689367Y-106100000D01*
X145707802Y-106228225D01*
X145740581Y-106300000D01*
X145761618Y-106346063D01*
X145846451Y-106443967D01*
X145955431Y-106514004D01*
X146064617Y-106546063D01*
X146079725Y-106550499D01*
X146079727Y-106550500D01*
X146079728Y-106550500D01*
X146209273Y-106550500D01*
X146209273Y-106550499D01*
X146333569Y-106514004D01*
X146442549Y-106443967D01*
X146527382Y-106346063D01*
X146581197Y-106228226D01*
X146599633Y-106100000D01*
X146581197Y-105971774D01*
X146527382Y-105853937D01*
X146442549Y-105756033D01*
X146333569Y-105685996D01*
X146333565Y-105685994D01*
X146333564Y-105685994D01*
X146209274Y-105649500D01*
X146209272Y-105649500D01*
X146079728Y-105649500D01*
X146079726Y-105649500D01*
X145955435Y-105685994D01*
X145955432Y-105685995D01*
X145955431Y-105685996D01*
X145904177Y-105718934D01*
X145846450Y-105756033D01*
X145761618Y-105853937D01*
X145761617Y-105853938D01*
X145707802Y-105971774D01*
X145689367Y-106100000D01*
X124193919Y-106100000D01*
X124172882Y-106053937D01*
X124088049Y-105956033D01*
X123979069Y-105885996D01*
X123979065Y-105885994D01*
X123979064Y-105885994D01*
X123854774Y-105849500D01*
X123854772Y-105849500D01*
X123725228Y-105849500D01*
X123725226Y-105849500D01*
X123600935Y-105885994D01*
X123600932Y-105885995D01*
X123600931Y-105885996D01*
X123554007Y-105916152D01*
X123491950Y-105956033D01*
X123407118Y-106053937D01*
X123407117Y-106053938D01*
X123353302Y-106171774D01*
X123334867Y-106300000D01*
X117800000Y-106300000D01*
X117800000Y-103400000D01*
X117500000Y-103400000D01*
X117489606Y-103400000D01*
X117451176Y-103420984D01*
X117381484Y-103415998D01*
X117377370Y-103414379D01*
X117367135Y-103410140D01*
X117327817Y-103402320D01*
X117288500Y-103394500D01*
X116724500Y-103394500D01*
X116657461Y-103374815D01*
X116611706Y-103322011D01*
X116600500Y-103270500D01*
X116600500Y-102953937D01*
X123287200Y-102953937D01*
X123305635Y-103082162D01*
X123359450Y-103199998D01*
X123359451Y-103200000D01*
X123444284Y-103297904D01*
X123553264Y-103367941D01*
X123662450Y-103400000D01*
X123677558Y-103404436D01*
X123677560Y-103404437D01*
X123677561Y-103404437D01*
X123807106Y-103404437D01*
X123807106Y-103404436D01*
X123931402Y-103367941D01*
X124040382Y-103297904D01*
X124125215Y-103200000D01*
X124179030Y-103082163D01*
X124197466Y-102953937D01*
X124179030Y-102825711D01*
X124125215Y-102707874D01*
X124040382Y-102609970D01*
X123931402Y-102539933D01*
X123931398Y-102539931D01*
X123931397Y-102539931D01*
X123807107Y-102503437D01*
X123807105Y-102503437D01*
X123677561Y-102503437D01*
X123677559Y-102503437D01*
X123553268Y-102539931D01*
X123553265Y-102539932D01*
X123553264Y-102539933D01*
X123503805Y-102571718D01*
X123444283Y-102609970D01*
X123359451Y-102707874D01*
X123359450Y-102707875D01*
X123305635Y-102825711D01*
X123287200Y-102953937D01*
X116600500Y-102953937D01*
X116600500Y-102500000D01*
X118044867Y-102500000D01*
X118063302Y-102628225D01*
X118094784Y-102697159D01*
X118117118Y-102746063D01*
X118201951Y-102843967D01*
X118310931Y-102914004D01*
X118435225Y-102950499D01*
X118435227Y-102950500D01*
X118435228Y-102950500D01*
X118564773Y-102950500D01*
X118564773Y-102950499D01*
X118689069Y-102914004D01*
X118798049Y-102843967D01*
X118882882Y-102746063D01*
X118936697Y-102628226D01*
X118955133Y-102500000D01*
X118936697Y-102371774D01*
X118882882Y-102253937D01*
X118798049Y-102156033D01*
X118689069Y-102085996D01*
X118689065Y-102085994D01*
X118689064Y-102085994D01*
X118564774Y-102049500D01*
X118564772Y-102049500D01*
X118435228Y-102049500D01*
X118435226Y-102049500D01*
X118310935Y-102085994D01*
X118310932Y-102085995D01*
X118310931Y-102085996D01*
X118259677Y-102118934D01*
X118201950Y-102156033D01*
X118117118Y-102253937D01*
X118117117Y-102253938D01*
X118063302Y-102371774D01*
X118044867Y-102500000D01*
X116600500Y-102500000D01*
X116600500Y-101609109D01*
X122769367Y-101609109D01*
X122787802Y-101737334D01*
X122836168Y-101843238D01*
X122841618Y-101855172D01*
X122926451Y-101953076D01*
X123035431Y-102023113D01*
X123159725Y-102059608D01*
X123159727Y-102059609D01*
X123159728Y-102059609D01*
X123289273Y-102059609D01*
X123289273Y-102059608D01*
X123413569Y-102023113D01*
X123522549Y-101953076D01*
X123607382Y-101855172D01*
X123655710Y-101749348D01*
X123701465Y-101696545D01*
X123768504Y-101676861D01*
X123874771Y-101676861D01*
X123874771Y-101676860D01*
X123999067Y-101640365D01*
X124108047Y-101570328D01*
X124192880Y-101472424D01*
X124246695Y-101354587D01*
X124265131Y-101226361D01*
X124246695Y-101098135D01*
X124192880Y-100980298D01*
X124108047Y-100882394D01*
X123999067Y-100812357D01*
X123999063Y-100812355D01*
X123999062Y-100812355D01*
X123874772Y-100775861D01*
X123874770Y-100775861D01*
X123745226Y-100775861D01*
X123745224Y-100775861D01*
X123620933Y-100812355D01*
X123620930Y-100812356D01*
X123620929Y-100812357D01*
X123618365Y-100814005D01*
X123511948Y-100882394D01*
X123427116Y-100980298D01*
X123427115Y-100980299D01*
X123378788Y-101086121D01*
X123333033Y-101138925D01*
X123265994Y-101158609D01*
X123159726Y-101158609D01*
X123035435Y-101195103D01*
X123035432Y-101195104D01*
X123035431Y-101195105D01*
X122986796Y-101226361D01*
X122926450Y-101265142D01*
X122841618Y-101363046D01*
X122841617Y-101363047D01*
X122787802Y-101480883D01*
X122769367Y-101609109D01*
X116600500Y-101609109D01*
X116600500Y-100400000D01*
X124844867Y-100400000D01*
X124863302Y-100528225D01*
X124917049Y-100645913D01*
X124917118Y-100646063D01*
X125001951Y-100743967D01*
X125110931Y-100814004D01*
X125235225Y-100850499D01*
X125235227Y-100850500D01*
X125235228Y-100850500D01*
X125364773Y-100850500D01*
X125364773Y-100850499D01*
X125489069Y-100814004D01*
X125598049Y-100743967D01*
X125682882Y-100646063D01*
X125736697Y-100528226D01*
X125755133Y-100400000D01*
X125736697Y-100271774D01*
X125682882Y-100153937D01*
X125598049Y-100056033D01*
X125489069Y-99985996D01*
X125489065Y-99985994D01*
X125489064Y-99985994D01*
X125364774Y-99949500D01*
X125364772Y-99949500D01*
X125235228Y-99949500D01*
X125235226Y-99949500D01*
X125110935Y-99985994D01*
X125110932Y-99985995D01*
X125110931Y-99985996D01*
X125059677Y-100018934D01*
X125001950Y-100056033D01*
X124917118Y-100153937D01*
X124917117Y-100153938D01*
X124863302Y-100271774D01*
X124844867Y-100400000D01*
X116600500Y-100400000D01*
X116600500Y-99400000D01*
X119244867Y-99400000D01*
X119263302Y-99528225D01*
X119302477Y-99614004D01*
X119317118Y-99646063D01*
X119401951Y-99743967D01*
X119510931Y-99814004D01*
X119635225Y-99850499D01*
X119635227Y-99850500D01*
X119635228Y-99850500D01*
X119764773Y-99850500D01*
X119764773Y-99850499D01*
X119889069Y-99814004D01*
X119998049Y-99743967D01*
X120082882Y-99646063D01*
X120136697Y-99528226D01*
X120155133Y-99400000D01*
X120136697Y-99271774D01*
X120082882Y-99153937D01*
X119998049Y-99056033D01*
X119889069Y-98985996D01*
X119889065Y-98985994D01*
X119889064Y-98985994D01*
X119764774Y-98949500D01*
X119764772Y-98949500D01*
X119635228Y-98949500D01*
X119635226Y-98949500D01*
X119510935Y-98985994D01*
X119510932Y-98985995D01*
X119510931Y-98985996D01*
X119459677Y-99018934D01*
X119401950Y-99056033D01*
X119317118Y-99153937D01*
X119317117Y-99153938D01*
X119263302Y-99271774D01*
X119244867Y-99400000D01*
X116600500Y-99400000D01*
X116600500Y-98729500D01*
X116620185Y-98662461D01*
X116672989Y-98616706D01*
X116724500Y-98605500D01*
X116931872Y-98605500D01*
X116933801Y-98605361D01*
X116936652Y-98605157D01*
X116941077Y-98605000D01*
X117058923Y-98605000D01*
X117063347Y-98605157D01*
X117066198Y-98605361D01*
X117068128Y-98605500D01*
X117068129Y-98605500D01*
X117388500Y-98605500D01*
X117421083Y-98599019D01*
X117448638Y-98601484D01*
X117448638Y-98600000D01*
X117800000Y-98600000D01*
X117800000Y-98549500D01*
X121161995Y-98549500D01*
X121180430Y-98677725D01*
X121213209Y-98749500D01*
X121234246Y-98795563D01*
X121319079Y-98893467D01*
X121428059Y-98963504D01*
X121504655Y-98985994D01*
X121552353Y-98999999D01*
X121552355Y-99000000D01*
X121552356Y-99000000D01*
X121681901Y-99000000D01*
X121681901Y-98999999D01*
X121806197Y-98963504D01*
X121806203Y-98963499D01*
X121812050Y-98960830D01*
X121881208Y-98950881D01*
X121944766Y-98979900D01*
X121957285Y-98992419D01*
X122001948Y-99043965D01*
X122001950Y-99043966D01*
X122001951Y-99043967D01*
X122110931Y-99114004D01*
X122235225Y-99150499D01*
X122235227Y-99150500D01*
X122235228Y-99150500D01*
X122364773Y-99150500D01*
X122364773Y-99150499D01*
X122489069Y-99114004D01*
X122588538Y-99050078D01*
X122655578Y-99030395D01*
X122722617Y-99050080D01*
X122749290Y-99073192D01*
X122801951Y-99133967D01*
X122910931Y-99204004D01*
X123035225Y-99240499D01*
X123035227Y-99240500D01*
X123035228Y-99240500D01*
X123164773Y-99240500D01*
X123164773Y-99240499D01*
X123289069Y-99204004D01*
X123295299Y-99200000D01*
X126944867Y-99200000D01*
X126963302Y-99328225D01*
X126996081Y-99400000D01*
X127017118Y-99446063D01*
X127101951Y-99543967D01*
X127210931Y-99614004D01*
X127320117Y-99646063D01*
X127335225Y-99650499D01*
X127335227Y-99650500D01*
X127335228Y-99650500D01*
X127464773Y-99650500D01*
X127464773Y-99650499D01*
X127589069Y-99614004D01*
X127698049Y-99543967D01*
X127782882Y-99446063D01*
X127836697Y-99328226D01*
X127855133Y-99200000D01*
X127836697Y-99071774D01*
X127782882Y-98953937D01*
X127698049Y-98856033D01*
X127589069Y-98785996D01*
X127589065Y-98785994D01*
X127589064Y-98785994D01*
X127464774Y-98749500D01*
X127464772Y-98749500D01*
X127335228Y-98749500D01*
X127335226Y-98749500D01*
X127210935Y-98785994D01*
X127210932Y-98785995D01*
X127210931Y-98785996D01*
X127159677Y-98818934D01*
X127101950Y-98856033D01*
X127017118Y-98953937D01*
X127017117Y-98953938D01*
X126963302Y-99071774D01*
X126944867Y-99200000D01*
X123295299Y-99200000D01*
X123398049Y-99133967D01*
X123482882Y-99036063D01*
X123536697Y-98918226D01*
X123555133Y-98790000D01*
X123536697Y-98661774D01*
X123482882Y-98543937D01*
X123398049Y-98446033D01*
X123289069Y-98375996D01*
X123289065Y-98375994D01*
X123289064Y-98375994D01*
X123164774Y-98339500D01*
X123164772Y-98339500D01*
X123035228Y-98339500D01*
X123035226Y-98339500D01*
X122910933Y-98375994D01*
X122910932Y-98375995D01*
X122811460Y-98439920D01*
X122744420Y-98459604D01*
X122677381Y-98439918D01*
X122650708Y-98416806D01*
X122598049Y-98356033D01*
X122572323Y-98339500D01*
X122489069Y-98285996D01*
X122489065Y-98285994D01*
X122489064Y-98285994D01*
X122364774Y-98249500D01*
X122364772Y-98249500D01*
X122235228Y-98249500D01*
X122235226Y-98249500D01*
X122110930Y-98285995D01*
X122105060Y-98288676D01*
X122035901Y-98298615D01*
X121972347Y-98269586D01*
X121959842Y-98257080D01*
X121915177Y-98205533D01*
X121806197Y-98135496D01*
X121806193Y-98135494D01*
X121806192Y-98135494D01*
X121681902Y-98099000D01*
X121681900Y-98099000D01*
X121552356Y-98099000D01*
X121552354Y-98099000D01*
X121428063Y-98135494D01*
X121428060Y-98135495D01*
X121428059Y-98135496D01*
X121376805Y-98168434D01*
X121319078Y-98205533D01*
X121234246Y-98303437D01*
X121234245Y-98303438D01*
X121180430Y-98421274D01*
X121161995Y-98549500D01*
X117800000Y-98549500D01*
X117800000Y-94730659D01*
X117808299Y-94702395D01*
X117805157Y-94695515D01*
X118042843Y-94695515D01*
X118042977Y-94695724D01*
X118046737Y-94713009D01*
X118046881Y-94714005D01*
X118063302Y-94828225D01*
X118117117Y-94946061D01*
X118117118Y-94946063D01*
X118201951Y-95043967D01*
X118310931Y-95114004D01*
X118435225Y-95150499D01*
X118435227Y-95150500D01*
X118435228Y-95150500D01*
X118564773Y-95150500D01*
X118564773Y-95150499D01*
X118689069Y-95114004D01*
X118798049Y-95043967D01*
X118882882Y-94946063D01*
X118936697Y-94828226D01*
X118955133Y-94700000D01*
X118936697Y-94571774D01*
X118882882Y-94453937D01*
X118798049Y-94356033D01*
X118710860Y-94300000D01*
X123044867Y-94300000D01*
X123063302Y-94428225D01*
X123094790Y-94497173D01*
X123117118Y-94546063D01*
X123201951Y-94643967D01*
X123310931Y-94714004D01*
X123435225Y-94750499D01*
X123435227Y-94750500D01*
X123435228Y-94750500D01*
X123564773Y-94750500D01*
X123564773Y-94750499D01*
X123689069Y-94714004D01*
X123798049Y-94643967D01*
X123882882Y-94546063D01*
X123936697Y-94428226D01*
X123955133Y-94300000D01*
X123936697Y-94171774D01*
X123907104Y-94106975D01*
X123897160Y-94037816D01*
X123900000Y-94031597D01*
X123900000Y-93200000D01*
X123100000Y-93200000D01*
X123100000Y-94026784D01*
X123101267Y-94029105D01*
X123100000Y-94046821D01*
X123100000Y-94051362D01*
X123099675Y-94051362D01*
X123096283Y-94098797D01*
X123092896Y-94106973D01*
X123063302Y-94171774D01*
X123044867Y-94300000D01*
X118710860Y-94300000D01*
X118689069Y-94285996D01*
X118689065Y-94285994D01*
X118689064Y-94285994D01*
X118564774Y-94249500D01*
X118564772Y-94249500D01*
X118435228Y-94249500D01*
X118435226Y-94249500D01*
X118310935Y-94285994D01*
X118310932Y-94285995D01*
X118310931Y-94285996D01*
X118262419Y-94317173D01*
X118201950Y-94356033D01*
X118117118Y-94453937D01*
X118117117Y-94453938D01*
X118063302Y-94571774D01*
X118046738Y-94686987D01*
X118042843Y-94695515D01*
X117805157Y-94695515D01*
X117801262Y-94686987D01*
X117800000Y-94669340D01*
X117800000Y-94400000D01*
X117500000Y-94400000D01*
X117472590Y-94400000D01*
X117471614Y-94400533D01*
X117421085Y-94400981D01*
X117388500Y-94394500D01*
X116724500Y-94394500D01*
X116657461Y-94374815D01*
X116611706Y-94322011D01*
X116600500Y-94270500D01*
X116600500Y-93200000D01*
X120744867Y-93200000D01*
X120763302Y-93328225D01*
X120813919Y-93439059D01*
X120817118Y-93446063D01*
X120901951Y-93543967D01*
X121010931Y-93614004D01*
X121135225Y-93650499D01*
X121135227Y-93650500D01*
X121135228Y-93650500D01*
X121264773Y-93650500D01*
X121264773Y-93650499D01*
X121389069Y-93614004D01*
X121498049Y-93543967D01*
X121582882Y-93446063D01*
X121636697Y-93328226D01*
X121655133Y-93200000D01*
X121636697Y-93071774D01*
X121582882Y-92953937D01*
X121498049Y-92856033D01*
X121389069Y-92785996D01*
X121389065Y-92785994D01*
X121389064Y-92785994D01*
X121264774Y-92749500D01*
X121264772Y-92749500D01*
X121135228Y-92749500D01*
X121135226Y-92749500D01*
X121010935Y-92785994D01*
X121010932Y-92785995D01*
X121010931Y-92785996D01*
X120984720Y-92802841D01*
X120901950Y-92856033D01*
X120817118Y-92953937D01*
X120817117Y-92953938D01*
X120763302Y-93071774D01*
X120744867Y-93200000D01*
X116600500Y-93200000D01*
X116600500Y-91350000D01*
X118494867Y-91350000D01*
X118513302Y-91478225D01*
X118523247Y-91500000D01*
X118567118Y-91596063D01*
X118651951Y-91693967D01*
X118760931Y-91764004D01*
X118885225Y-91800499D01*
X118885227Y-91800500D01*
X118885228Y-91800500D01*
X119014773Y-91800500D01*
X119014773Y-91800499D01*
X119139069Y-91764004D01*
X119248049Y-91693967D01*
X119332882Y-91596063D01*
X119386697Y-91478226D01*
X119405133Y-91350000D01*
X119386697Y-91221774D01*
X119332882Y-91103937D01*
X119248049Y-91006033D01*
X119139069Y-90935996D01*
X119139065Y-90935994D01*
X119139064Y-90935994D01*
X119014774Y-90899500D01*
X119014772Y-90899500D01*
X118885228Y-90899500D01*
X118885226Y-90899500D01*
X118760935Y-90935994D01*
X118760932Y-90935995D01*
X118760931Y-90935996D01*
X118709677Y-90968934D01*
X118651950Y-91006033D01*
X118567118Y-91103937D01*
X118567117Y-91103938D01*
X118513302Y-91221774D01*
X118494867Y-91350000D01*
X116600500Y-91350000D01*
X116600500Y-90124500D01*
X116620185Y-90057461D01*
X116672989Y-90011706D01*
X116724500Y-90000500D01*
X128351120Y-90000500D01*
X128418159Y-90020185D01*
G37*
%TD.AperFunction*%
%TA.AperFunction,Conductor*%
G36*
X117457199Y-104588464D02*
G01*
X117494976Y-104647241D01*
X117500000Y-104682180D01*
X117500000Y-104836997D01*
X117480315Y-104904036D01*
X117427511Y-104949791D01*
X117358353Y-104959735D01*
X117308961Y-104941313D01*
X117270722Y-104916738D01*
X117267472Y-104916506D01*
X117263368Y-104914891D01*
X117251897Y-104910140D01*
X117212579Y-104902320D01*
X117173262Y-104894500D01*
X116724500Y-104894500D01*
X116657461Y-104874815D01*
X116611706Y-104822011D01*
X116600500Y-104770500D01*
X116600500Y-104729500D01*
X116620185Y-104662461D01*
X116672989Y-104616706D01*
X116724500Y-104605500D01*
X117203524Y-104605500D01*
X117209377Y-104604658D01*
X117261434Y-104597171D01*
X117261442Y-104597168D01*
X117261446Y-104597168D01*
X117266096Y-104595801D01*
X117267651Y-104595345D01*
X117320843Y-104571051D01*
X117320843Y-104571050D01*
X117324484Y-104569388D01*
X117393643Y-104559441D01*
X117457199Y-104588464D01*
G37*
%TD.AperFunction*%
%TD*%
%TA.AperFunction,Conductor*%
%TO.N,Net-(U1-NRST)*%
G36*
X117396632Y-97603368D02*
G01*
X117400000Y-97611500D01*
X117400000Y-98388500D01*
X117396632Y-98396632D01*
X117388500Y-98400000D01*
X117068129Y-98400000D01*
X117064889Y-98399534D01*
X117064773Y-98399500D01*
X117064772Y-98399500D01*
X116935228Y-98399500D01*
X116935227Y-98399500D01*
X116935111Y-98399534D01*
X116931871Y-98400000D01*
X116612000Y-98400000D01*
X116603868Y-98396632D01*
X116600500Y-98388500D01*
X116600500Y-97611500D01*
X116603868Y-97603368D01*
X116612000Y-97600000D01*
X117388500Y-97600000D01*
X117396632Y-97603368D01*
G37*
%TD.AperFunction*%
%TD*%
%TA.AperFunction,Conductor*%
%TO.N,UART_RXD*%
G36*
X117296632Y-106603368D02*
G01*
X117300000Y-106611500D01*
X117300000Y-107023923D01*
X117299883Y-107025560D01*
X117284867Y-107129999D01*
X117299883Y-107234438D01*
X117300000Y-107236075D01*
X117300000Y-107388500D01*
X117296632Y-107396632D01*
X117288500Y-107400000D01*
X116612000Y-107400000D01*
X116603868Y-107396632D01*
X116600500Y-107388500D01*
X116600500Y-106611500D01*
X116603868Y-106603368D01*
X116612000Y-106600000D01*
X117288500Y-106600000D01*
X117296632Y-106603368D01*
G37*
%TD.AperFunction*%
%TD*%
%TA.AperFunction,Conductor*%
%TO.N,/VOUT*%
G36*
X150542386Y-100594768D02*
G01*
X150588218Y-100647505D01*
X150599500Y-100699182D01*
X150599500Y-106376000D01*
X150579815Y-106443039D01*
X150527011Y-106488794D01*
X150475500Y-106500000D01*
X147324000Y-106500000D01*
X147256961Y-106480315D01*
X147211206Y-106427511D01*
X147200000Y-106376000D01*
X147200000Y-100703817D01*
X147219685Y-100636778D01*
X147272489Y-100591023D01*
X147323813Y-100579817D01*
X150475322Y-100575183D01*
X150542386Y-100594768D01*
G37*
%TD.AperFunction*%
%TD*%
%TA.AperFunction,Conductor*%
%TO.N,I2C0_SCL*%
G36*
X117296632Y-111103368D02*
G01*
X117300000Y-111111500D01*
X117300000Y-111888500D01*
X117296632Y-111896632D01*
X117288500Y-111900000D01*
X116612000Y-111900000D01*
X116603868Y-111896632D01*
X116600500Y-111888500D01*
X116600500Y-111111500D01*
X116603868Y-111103368D01*
X116612000Y-111100000D01*
X117288500Y-111100000D01*
X117296632Y-111103368D01*
G37*
%TD.AperFunction*%
%TD*%
%TA.AperFunction,Conductor*%
%TO.N,UART_TXD*%
G36*
X117181394Y-105103368D02*
G01*
X117181952Y-105103968D01*
X117181954Y-105103969D01*
X117290931Y-105174004D01*
X117291735Y-105174240D01*
X117298590Y-105179758D01*
X117300000Y-105185275D01*
X117300000Y-105888500D01*
X117296632Y-105896632D01*
X117288500Y-105900000D01*
X116612000Y-105900000D01*
X116603868Y-105896632D01*
X116600500Y-105888500D01*
X116600500Y-105111500D01*
X116603868Y-105103368D01*
X116612000Y-105100000D01*
X117173262Y-105100000D01*
X117181394Y-105103368D01*
G37*
%TD.AperFunction*%
%TD*%
%TA.AperFunction,Conductor*%
%TO.N,SWDIO*%
G36*
X117396632Y-94603368D02*
G01*
X117400000Y-94611500D01*
X117400000Y-95388500D01*
X117396632Y-95396632D01*
X117388500Y-95400000D01*
X116612000Y-95400000D01*
X116603868Y-95396632D01*
X116600500Y-95388500D01*
X116600500Y-94611500D01*
X116603868Y-94603368D01*
X116612000Y-94600000D01*
X117388500Y-94600000D01*
X117396632Y-94603368D01*
G37*
%TD.AperFunction*%
%TD*%
M02*
