%TF.GenerationSoftware,KiCad,Pcbnew,7.0.9*%
%TF.CreationDate,2024-04-04T22:54:04+08:00*%
%TF.ProjectId,power_module_v0.1,706f7765-725f-46d6-9f64-756c655f7630,rev?*%
%TF.SameCoordinates,Original*%
%TF.FileFunction,Legend,Top*%
%TF.FilePolarity,Positive*%
%FSLAX46Y46*%
G04 Gerber Fmt 4.6, Leading zero omitted, Abs format (unit mm)*
G04 Created by KiCad (PCBNEW 7.0.9) date 2024-04-04 22:54:04*
%MOMM*%
%LPD*%
G01*
G04 APERTURE LIST*
%ADD10C,0.200000*%
%ADD11C,0.150000*%
%ADD12C,0.120000*%
%ADD13C,0.152400*%
%ADD14C,0.100000*%
G04 APERTURE END LIST*
D10*
X117322054Y-108891695D02*
X117322054Y-108091695D01*
X117855387Y-108091695D02*
X118007768Y-108091695D01*
X118007768Y-108091695D02*
X118083958Y-108129790D01*
X118083958Y-108129790D02*
X118160149Y-108205980D01*
X118160149Y-108205980D02*
X118198244Y-108358361D01*
X118198244Y-108358361D02*
X118198244Y-108625028D01*
X118198244Y-108625028D02*
X118160149Y-108777409D01*
X118160149Y-108777409D02*
X118083958Y-108853600D01*
X118083958Y-108853600D02*
X118007768Y-108891695D01*
X118007768Y-108891695D02*
X117855387Y-108891695D01*
X117855387Y-108891695D02*
X117779196Y-108853600D01*
X117779196Y-108853600D02*
X117703006Y-108777409D01*
X117703006Y-108777409D02*
X117664910Y-108625028D01*
X117664910Y-108625028D02*
X117664910Y-108358361D01*
X117664910Y-108358361D02*
X117703006Y-108205980D01*
X117703006Y-108205980D02*
X117779196Y-108129790D01*
X117779196Y-108129790D02*
X117855387Y-108091695D01*
X118503005Y-108167885D02*
X118541101Y-108129790D01*
X118541101Y-108129790D02*
X118617291Y-108091695D01*
X118617291Y-108091695D02*
X118807767Y-108091695D01*
X118807767Y-108091695D02*
X118883958Y-108129790D01*
X118883958Y-108129790D02*
X118922053Y-108167885D01*
X118922053Y-108167885D02*
X118960148Y-108244076D01*
X118960148Y-108244076D02*
X118960148Y-108320266D01*
X118960148Y-108320266D02*
X118922053Y-108434552D01*
X118922053Y-108434552D02*
X118464910Y-108891695D01*
X118464910Y-108891695D02*
X118960148Y-108891695D01*
D11*
X117890200Y-113887030D02*
X117918771Y-113801316D01*
X117918771Y-113801316D02*
X117918771Y-113658458D01*
X117918771Y-113658458D02*
X117890200Y-113601316D01*
X117890200Y-113601316D02*
X117861628Y-113572744D01*
X117861628Y-113572744D02*
X117804485Y-113544173D01*
X117804485Y-113544173D02*
X117747342Y-113544173D01*
X117747342Y-113544173D02*
X117690200Y-113572744D01*
X117690200Y-113572744D02*
X117661628Y-113601316D01*
X117661628Y-113601316D02*
X117633057Y-113658458D01*
X117633057Y-113658458D02*
X117604485Y-113772744D01*
X117604485Y-113772744D02*
X117575914Y-113829887D01*
X117575914Y-113829887D02*
X117547342Y-113858458D01*
X117547342Y-113858458D02*
X117490200Y-113887030D01*
X117490200Y-113887030D02*
X117433057Y-113887030D01*
X117433057Y-113887030D02*
X117375914Y-113858458D01*
X117375914Y-113858458D02*
X117347342Y-113829887D01*
X117347342Y-113829887D02*
X117318771Y-113772744D01*
X117318771Y-113772744D02*
X117318771Y-113629887D01*
X117318771Y-113629887D02*
X117347342Y-113544173D01*
X117861628Y-112944172D02*
X117890200Y-112972744D01*
X117890200Y-112972744D02*
X117918771Y-113058458D01*
X117918771Y-113058458D02*
X117918771Y-113115601D01*
X117918771Y-113115601D02*
X117890200Y-113201315D01*
X117890200Y-113201315D02*
X117833057Y-113258458D01*
X117833057Y-113258458D02*
X117775914Y-113287029D01*
X117775914Y-113287029D02*
X117661628Y-113315601D01*
X117661628Y-113315601D02*
X117575914Y-113315601D01*
X117575914Y-113315601D02*
X117461628Y-113287029D01*
X117461628Y-113287029D02*
X117404485Y-113258458D01*
X117404485Y-113258458D02*
X117347342Y-113201315D01*
X117347342Y-113201315D02*
X117318771Y-113115601D01*
X117318771Y-113115601D02*
X117318771Y-113058458D01*
X117318771Y-113058458D02*
X117347342Y-112972744D01*
X117347342Y-112972744D02*
X117375914Y-112944172D01*
X117918771Y-112401315D02*
X117918771Y-112687029D01*
X117918771Y-112687029D02*
X117318771Y-112687029D01*
D10*
X117322054Y-110391695D02*
X117322054Y-109591695D01*
X117855387Y-109591695D02*
X118007768Y-109591695D01*
X118007768Y-109591695D02*
X118083958Y-109629790D01*
X118083958Y-109629790D02*
X118160149Y-109705980D01*
X118160149Y-109705980D02*
X118198244Y-109858361D01*
X118198244Y-109858361D02*
X118198244Y-110125028D01*
X118198244Y-110125028D02*
X118160149Y-110277409D01*
X118160149Y-110277409D02*
X118083958Y-110353600D01*
X118083958Y-110353600D02*
X118007768Y-110391695D01*
X118007768Y-110391695D02*
X117855387Y-110391695D01*
X117855387Y-110391695D02*
X117779196Y-110353600D01*
X117779196Y-110353600D02*
X117703006Y-110277409D01*
X117703006Y-110277409D02*
X117664910Y-110125028D01*
X117664910Y-110125028D02*
X117664910Y-109858361D01*
X117664910Y-109858361D02*
X117703006Y-109705980D01*
X117703006Y-109705980D02*
X117779196Y-109629790D01*
X117779196Y-109629790D02*
X117855387Y-109591695D01*
X118464910Y-109591695D02*
X118960148Y-109591695D01*
X118960148Y-109591695D02*
X118693482Y-109896457D01*
X118693482Y-109896457D02*
X118807767Y-109896457D01*
X118807767Y-109896457D02*
X118883958Y-109934552D01*
X118883958Y-109934552D02*
X118922053Y-109972647D01*
X118922053Y-109972647D02*
X118960148Y-110048838D01*
X118960148Y-110048838D02*
X118960148Y-110239314D01*
X118960148Y-110239314D02*
X118922053Y-110315504D01*
X118922053Y-110315504D02*
X118883958Y-110353600D01*
X118883958Y-110353600D02*
X118807767Y-110391695D01*
X118807767Y-110391695D02*
X118579196Y-110391695D01*
X118579196Y-110391695D02*
X118503005Y-110353600D01*
X118503005Y-110353600D02*
X118464910Y-110315504D01*
D11*
X117980200Y-112127610D02*
X118008771Y-112041896D01*
X118008771Y-112041896D02*
X118008771Y-111899038D01*
X118008771Y-111899038D02*
X117980200Y-111841896D01*
X117980200Y-111841896D02*
X117951628Y-111813324D01*
X117951628Y-111813324D02*
X117894485Y-111784753D01*
X117894485Y-111784753D02*
X117837342Y-111784753D01*
X117837342Y-111784753D02*
X117780200Y-111813324D01*
X117780200Y-111813324D02*
X117751628Y-111841896D01*
X117751628Y-111841896D02*
X117723057Y-111899038D01*
X117723057Y-111899038D02*
X117694485Y-112013324D01*
X117694485Y-112013324D02*
X117665914Y-112070467D01*
X117665914Y-112070467D02*
X117637342Y-112099038D01*
X117637342Y-112099038D02*
X117580200Y-112127610D01*
X117580200Y-112127610D02*
X117523057Y-112127610D01*
X117523057Y-112127610D02*
X117465914Y-112099038D01*
X117465914Y-112099038D02*
X117437342Y-112070467D01*
X117437342Y-112070467D02*
X117408771Y-112013324D01*
X117408771Y-112013324D02*
X117408771Y-111870467D01*
X117408771Y-111870467D02*
X117437342Y-111784753D01*
X118008771Y-111527609D02*
X117408771Y-111527609D01*
X117408771Y-111527609D02*
X117408771Y-111384752D01*
X117408771Y-111384752D02*
X117437342Y-111299038D01*
X117437342Y-111299038D02*
X117494485Y-111241895D01*
X117494485Y-111241895D02*
X117551628Y-111213324D01*
X117551628Y-111213324D02*
X117665914Y-111184752D01*
X117665914Y-111184752D02*
X117751628Y-111184752D01*
X117751628Y-111184752D02*
X117865914Y-111213324D01*
X117865914Y-111213324D02*
X117923057Y-111241895D01*
X117923057Y-111241895D02*
X117980200Y-111299038D01*
X117980200Y-111299038D02*
X118008771Y-111384752D01*
X118008771Y-111384752D02*
X118008771Y-111527609D01*
X117837342Y-110956181D02*
X117837342Y-110670467D01*
X118008771Y-111013324D02*
X117408771Y-110813324D01*
X117408771Y-110813324D02*
X118008771Y-110613324D01*
X117818771Y-97158458D02*
X117218771Y-97158458D01*
X117218771Y-96758459D02*
X117218771Y-96644173D01*
X117218771Y-96644173D02*
X117247342Y-96587030D01*
X117247342Y-96587030D02*
X117304485Y-96529887D01*
X117304485Y-96529887D02*
X117418771Y-96501316D01*
X117418771Y-96501316D02*
X117618771Y-96501316D01*
X117618771Y-96501316D02*
X117733057Y-96529887D01*
X117733057Y-96529887D02*
X117790200Y-96587030D01*
X117790200Y-96587030D02*
X117818771Y-96644173D01*
X117818771Y-96644173D02*
X117818771Y-96758459D01*
X117818771Y-96758459D02*
X117790200Y-96815602D01*
X117790200Y-96815602D02*
X117733057Y-96872744D01*
X117733057Y-96872744D02*
X117618771Y-96901316D01*
X117618771Y-96901316D02*
X117418771Y-96901316D01*
X117418771Y-96901316D02*
X117304485Y-96872744D01*
X117304485Y-96872744D02*
X117247342Y-96815602D01*
X117247342Y-96815602D02*
X117218771Y-96758459D01*
X117818771Y-95929888D02*
X117818771Y-96272745D01*
X117818771Y-96101316D02*
X117218771Y-96101316D01*
X117218771Y-96101316D02*
X117304485Y-96158459D01*
X117304485Y-96158459D02*
X117361628Y-96215602D01*
X117361628Y-96215602D02*
X117390200Y-96272745D01*
X117818771Y-98715601D02*
X117533057Y-98915601D01*
X117818771Y-99058458D02*
X117218771Y-99058458D01*
X117218771Y-99058458D02*
X117218771Y-98829887D01*
X117218771Y-98829887D02*
X117247342Y-98772744D01*
X117247342Y-98772744D02*
X117275914Y-98744173D01*
X117275914Y-98744173D02*
X117333057Y-98715601D01*
X117333057Y-98715601D02*
X117418771Y-98715601D01*
X117418771Y-98715601D02*
X117475914Y-98744173D01*
X117475914Y-98744173D02*
X117504485Y-98772744D01*
X117504485Y-98772744D02*
X117533057Y-98829887D01*
X117533057Y-98829887D02*
X117533057Y-99058458D01*
X117790200Y-98487030D02*
X117818771Y-98401316D01*
X117818771Y-98401316D02*
X117818771Y-98258458D01*
X117818771Y-98258458D02*
X117790200Y-98201316D01*
X117790200Y-98201316D02*
X117761628Y-98172744D01*
X117761628Y-98172744D02*
X117704485Y-98144173D01*
X117704485Y-98144173D02*
X117647342Y-98144173D01*
X117647342Y-98144173D02*
X117590200Y-98172744D01*
X117590200Y-98172744D02*
X117561628Y-98201316D01*
X117561628Y-98201316D02*
X117533057Y-98258458D01*
X117533057Y-98258458D02*
X117504485Y-98372744D01*
X117504485Y-98372744D02*
X117475914Y-98429887D01*
X117475914Y-98429887D02*
X117447342Y-98458458D01*
X117447342Y-98458458D02*
X117390200Y-98487030D01*
X117390200Y-98487030D02*
X117333057Y-98487030D01*
X117333057Y-98487030D02*
X117275914Y-98458458D01*
X117275914Y-98458458D02*
X117247342Y-98429887D01*
X117247342Y-98429887D02*
X117218771Y-98372744D01*
X117218771Y-98372744D02*
X117218771Y-98229887D01*
X117218771Y-98229887D02*
X117247342Y-98144173D01*
X117218771Y-97972744D02*
X117218771Y-97629887D01*
X117818771Y-97801315D02*
X117218771Y-97801315D01*
X117818771Y-95558458D02*
X117218771Y-95558458D01*
X117218771Y-95158459D02*
X117218771Y-95044173D01*
X117218771Y-95044173D02*
X117247342Y-94987030D01*
X117247342Y-94987030D02*
X117304485Y-94929887D01*
X117304485Y-94929887D02*
X117418771Y-94901316D01*
X117418771Y-94901316D02*
X117618771Y-94901316D01*
X117618771Y-94901316D02*
X117733057Y-94929887D01*
X117733057Y-94929887D02*
X117790200Y-94987030D01*
X117790200Y-94987030D02*
X117818771Y-95044173D01*
X117818771Y-95044173D02*
X117818771Y-95158459D01*
X117818771Y-95158459D02*
X117790200Y-95215602D01*
X117790200Y-95215602D02*
X117733057Y-95272744D01*
X117733057Y-95272744D02*
X117618771Y-95301316D01*
X117618771Y-95301316D02*
X117418771Y-95301316D01*
X117418771Y-95301316D02*
X117304485Y-95272744D01*
X117304485Y-95272744D02*
X117247342Y-95215602D01*
X117247342Y-95215602D02*
X117218771Y-95158459D01*
X117218771Y-94529888D02*
X117218771Y-94472745D01*
X117218771Y-94472745D02*
X117247342Y-94415602D01*
X117247342Y-94415602D02*
X117275914Y-94387031D01*
X117275914Y-94387031D02*
X117333057Y-94358459D01*
X117333057Y-94358459D02*
X117447342Y-94329888D01*
X117447342Y-94329888D02*
X117590200Y-94329888D01*
X117590200Y-94329888D02*
X117704485Y-94358459D01*
X117704485Y-94358459D02*
X117761628Y-94387031D01*
X117761628Y-94387031D02*
X117790200Y-94415602D01*
X117790200Y-94415602D02*
X117818771Y-94472745D01*
X117818771Y-94472745D02*
X117818771Y-94529888D01*
X117818771Y-94529888D02*
X117790200Y-94587031D01*
X117790200Y-94587031D02*
X117761628Y-94615602D01*
X117761628Y-94615602D02*
X117704485Y-94644173D01*
X117704485Y-94644173D02*
X117590200Y-94672745D01*
X117590200Y-94672745D02*
X117447342Y-94672745D01*
X117447342Y-94672745D02*
X117333057Y-94644173D01*
X117333057Y-94644173D02*
X117275914Y-94615602D01*
X117275914Y-94615602D02*
X117247342Y-94587031D01*
X117247342Y-94587031D02*
X117218771Y-94529888D01*
D10*
X117841101Y-102329790D02*
X117764911Y-102291695D01*
X117764911Y-102291695D02*
X117650625Y-102291695D01*
X117650625Y-102291695D02*
X117536339Y-102329790D01*
X117536339Y-102329790D02*
X117460149Y-102405980D01*
X117460149Y-102405980D02*
X117422054Y-102482171D01*
X117422054Y-102482171D02*
X117383958Y-102634552D01*
X117383958Y-102634552D02*
X117383958Y-102748838D01*
X117383958Y-102748838D02*
X117422054Y-102901219D01*
X117422054Y-102901219D02*
X117460149Y-102977409D01*
X117460149Y-102977409D02*
X117536339Y-103053600D01*
X117536339Y-103053600D02*
X117650625Y-103091695D01*
X117650625Y-103091695D02*
X117726816Y-103091695D01*
X117726816Y-103091695D02*
X117841101Y-103053600D01*
X117841101Y-103053600D02*
X117879197Y-103015504D01*
X117879197Y-103015504D02*
X117879197Y-102748838D01*
X117879197Y-102748838D02*
X117726816Y-102748838D01*
X118222054Y-103091695D02*
X118222054Y-102291695D01*
X118222054Y-102291695D02*
X118679197Y-103091695D01*
X118679197Y-103091695D02*
X118679197Y-102291695D01*
X119060149Y-103091695D02*
X119060149Y-102291695D01*
X119060149Y-102291695D02*
X119250625Y-102291695D01*
X119250625Y-102291695D02*
X119364911Y-102329790D01*
X119364911Y-102329790D02*
X119441101Y-102405980D01*
X119441101Y-102405980D02*
X119479196Y-102482171D01*
X119479196Y-102482171D02*
X119517292Y-102634552D01*
X119517292Y-102634552D02*
X119517292Y-102748838D01*
X119517292Y-102748838D02*
X119479196Y-102901219D01*
X119479196Y-102901219D02*
X119441101Y-102977409D01*
X119441101Y-102977409D02*
X119364911Y-103053600D01*
X119364911Y-103053600D02*
X119250625Y-103091695D01*
X119250625Y-103091695D02*
X119060149Y-103091695D01*
X117779197Y-107391695D02*
X117512530Y-107010742D01*
X117322054Y-107391695D02*
X117322054Y-106591695D01*
X117322054Y-106591695D02*
X117626816Y-106591695D01*
X117626816Y-106591695D02*
X117703006Y-106629790D01*
X117703006Y-106629790D02*
X117741101Y-106667885D01*
X117741101Y-106667885D02*
X117779197Y-106744076D01*
X117779197Y-106744076D02*
X117779197Y-106858361D01*
X117779197Y-106858361D02*
X117741101Y-106934552D01*
X117741101Y-106934552D02*
X117703006Y-106972647D01*
X117703006Y-106972647D02*
X117626816Y-107010742D01*
X117626816Y-107010742D02*
X117322054Y-107010742D01*
X118045863Y-106591695D02*
X118579197Y-107391695D01*
X118579197Y-106591695D02*
X118045863Y-107391695D01*
X118883959Y-107391695D02*
X118883959Y-106591695D01*
X118883959Y-106591695D02*
X119074435Y-106591695D01*
X119074435Y-106591695D02*
X119188721Y-106629790D01*
X119188721Y-106629790D02*
X119264911Y-106705980D01*
X119264911Y-106705980D02*
X119303006Y-106782171D01*
X119303006Y-106782171D02*
X119341102Y-106934552D01*
X119341102Y-106934552D02*
X119341102Y-107048838D01*
X119341102Y-107048838D02*
X119303006Y-107201219D01*
X119303006Y-107201219D02*
X119264911Y-107277409D01*
X119264911Y-107277409D02*
X119188721Y-107353600D01*
X119188721Y-107353600D02*
X119074435Y-107391695D01*
X119074435Y-107391695D02*
X118883959Y-107391695D01*
X117307768Y-105091695D02*
X117764911Y-105091695D01*
X117536339Y-105891695D02*
X117536339Y-105091695D01*
X117955387Y-105091695D02*
X118488721Y-105891695D01*
X118488721Y-105091695D02*
X117955387Y-105891695D01*
X118793483Y-105891695D02*
X118793483Y-105091695D01*
X118793483Y-105091695D02*
X118983959Y-105091695D01*
X118983959Y-105091695D02*
X119098245Y-105129790D01*
X119098245Y-105129790D02*
X119174435Y-105205980D01*
X119174435Y-105205980D02*
X119212530Y-105282171D01*
X119212530Y-105282171D02*
X119250626Y-105434552D01*
X119250626Y-105434552D02*
X119250626Y-105548838D01*
X119250626Y-105548838D02*
X119212530Y-105701219D01*
X119212530Y-105701219D02*
X119174435Y-105777409D01*
X119174435Y-105777409D02*
X119098245Y-105853600D01*
X119098245Y-105853600D02*
X118983959Y-105891695D01*
X118983959Y-105891695D02*
X118793483Y-105891695D01*
X117345863Y-103791695D02*
X117841101Y-103791695D01*
X117841101Y-103791695D02*
X117574435Y-104096457D01*
X117574435Y-104096457D02*
X117688720Y-104096457D01*
X117688720Y-104096457D02*
X117764911Y-104134552D01*
X117764911Y-104134552D02*
X117803006Y-104172647D01*
X117803006Y-104172647D02*
X117841101Y-104248838D01*
X117841101Y-104248838D02*
X117841101Y-104439314D01*
X117841101Y-104439314D02*
X117803006Y-104515504D01*
X117803006Y-104515504D02*
X117764911Y-104553600D01*
X117764911Y-104553600D02*
X117688720Y-104591695D01*
X117688720Y-104591695D02*
X117460149Y-104591695D01*
X117460149Y-104591695D02*
X117383958Y-104553600D01*
X117383958Y-104553600D02*
X117345863Y-104515504D01*
X118183959Y-104515504D02*
X118222054Y-104553600D01*
X118222054Y-104553600D02*
X118183959Y-104591695D01*
X118183959Y-104591695D02*
X118145863Y-104553600D01*
X118145863Y-104553600D02*
X118183959Y-104515504D01*
X118183959Y-104515504D02*
X118183959Y-104591695D01*
X118488720Y-103791695D02*
X118983958Y-103791695D01*
X118983958Y-103791695D02*
X118717292Y-104096457D01*
X118717292Y-104096457D02*
X118831577Y-104096457D01*
X118831577Y-104096457D02*
X118907768Y-104134552D01*
X118907768Y-104134552D02*
X118945863Y-104172647D01*
X118945863Y-104172647D02*
X118983958Y-104248838D01*
X118983958Y-104248838D02*
X118983958Y-104439314D01*
X118983958Y-104439314D02*
X118945863Y-104515504D01*
X118945863Y-104515504D02*
X118907768Y-104553600D01*
X118907768Y-104553600D02*
X118831577Y-104591695D01*
X118831577Y-104591695D02*
X118603006Y-104591695D01*
X118603006Y-104591695D02*
X118526815Y-104553600D01*
X118526815Y-104553600D02*
X118488720Y-104515504D01*
X119212530Y-103791695D02*
X119479197Y-104591695D01*
X119479197Y-104591695D02*
X119745863Y-103791695D01*
D11*
X127454819Y-95199999D02*
X127692914Y-95199999D01*
X127597676Y-95438094D02*
X127692914Y-95199999D01*
X127692914Y-95199999D02*
X127597676Y-94961904D01*
X127883390Y-95342856D02*
X127692914Y-95199999D01*
X127692914Y-95199999D02*
X127883390Y-95057142D01*
D12*
%TO.C,C8*%
X118007836Y-91040000D02*
X117792164Y-91040000D01*
X118007836Y-91760000D02*
X117792164Y-91760000D01*
%TO.C,R6*%
X127080000Y-90846359D02*
X127080000Y-91153641D01*
X126320000Y-90846359D02*
X126320000Y-91153641D01*
%TO.C,C21*%
X134159420Y-98390000D02*
X134440580Y-98390000D01*
X134159420Y-99410000D02*
X134440580Y-99410000D01*
%TO.C,R12*%
X120980000Y-93546359D02*
X120980000Y-93853641D01*
X120220000Y-93546359D02*
X120220000Y-93853641D01*
D10*
%TO.C,L1*%
X133950000Y-102550000D02*
X133950000Y-112950000D01*
X133550000Y-102550000D02*
X133950000Y-102550000D01*
X132150000Y-102550000D02*
X133550000Y-102550000D01*
X126550000Y-102550000D02*
X128350000Y-102550000D01*
X133950000Y-112950000D02*
X132150000Y-112950000D01*
X128350000Y-112950000D02*
X126550000Y-112950000D01*
X126550000Y-112950000D02*
X126550000Y-102550000D01*
D12*
%TO.C,C16*%
X133510000Y-94159420D02*
X133510000Y-94440580D01*
X132490000Y-94159420D02*
X132490000Y-94440580D01*
%TO.C,R7*%
X124420000Y-100153641D02*
X124420000Y-99846359D01*
X125180000Y-100153641D02*
X125180000Y-99846359D01*
%TO.C,C22*%
X118240580Y-102010000D02*
X117959420Y-102010000D01*
X118240580Y-100990000D02*
X117959420Y-100990000D01*
%TO.C,C14*%
X137860000Y-93988748D02*
X137860000Y-95411252D01*
X135140000Y-93988748D02*
X135140000Y-95411252D01*
%TO.C,C7*%
X120309420Y-90890000D02*
X120590580Y-90890000D01*
X120309420Y-91910000D02*
X120590580Y-91910000D01*
%TO.C,R5*%
X122346359Y-94620000D02*
X122653641Y-94620000D01*
X122346359Y-95380000D02*
X122653641Y-95380000D01*
%TO.C,C23*%
X119110000Y-112059420D02*
X119110000Y-112340580D01*
X118090000Y-112059420D02*
X118090000Y-112340580D01*
%TO.C,C10*%
X139390000Y-109961252D02*
X139390000Y-108538748D01*
X142110000Y-109961252D02*
X142110000Y-108538748D01*
%TO.C,U3*%
X123310000Y-109300000D02*
X123310000Y-106375000D01*
X123310000Y-109300000D02*
X123310000Y-110800000D01*
X120090000Y-109300000D02*
X120090000Y-107800000D01*
X120090000Y-109300000D02*
X120090000Y-110800000D01*
%TO.C,Q1*%
X125850000Y-105750000D02*
X124200000Y-105750000D01*
X124200000Y-103950000D02*
X125500000Y-103950000D01*
%TO.C,R17*%
X123520000Y-107653641D02*
X123520000Y-107346359D01*
X124280000Y-107653641D02*
X124280000Y-107346359D01*
%TO.C,R15*%
X122720000Y-99453641D02*
X122720000Y-99146359D01*
X123480000Y-99453641D02*
X123480000Y-99146359D01*
%TO.C,C1*%
X120480000Y-98656359D02*
X120480000Y-98963641D01*
X119720000Y-98656359D02*
X119720000Y-98963641D01*
%TO.C,C6*%
X137090000Y-109961252D02*
X137090000Y-108538748D01*
X138910000Y-109961252D02*
X138910000Y-108538748D01*
%TO.C,C13*%
X140860000Y-93988748D02*
X140860000Y-95411252D01*
X138140000Y-93988748D02*
X138140000Y-95411252D01*
%TO.C,R9*%
X146050000Y-105000000D02*
X146050000Y-109170000D01*
X149450000Y-105830000D02*
X149450000Y-110030000D01*
%TO.C,C11*%
X118240580Y-100910000D02*
X117959420Y-100910000D01*
X118240580Y-99890000D02*
X117959420Y-99890000D01*
%TO.C,C3*%
X125490000Y-100640580D02*
X125490000Y-100359420D01*
X126510000Y-100640580D02*
X126510000Y-100359420D01*
%TO.C,R18*%
X123520000Y-109453641D02*
X123520000Y-109146359D01*
X124280000Y-109453641D02*
X124280000Y-109146359D01*
%TO.C,C15*%
X134760000Y-94159420D02*
X134760000Y-94440580D01*
X133740000Y-94159420D02*
X133740000Y-94440580D01*
%TO.C,C12*%
X142640000Y-109961252D02*
X142640000Y-108538748D01*
X145360000Y-109961252D02*
X145360000Y-108538748D01*
%TO.C,R3*%
X122346359Y-97020000D02*
X122653641Y-97020000D01*
X122346359Y-97780000D02*
X122653641Y-97780000D01*
%TO.C,R1*%
X118840000Y-98953641D02*
X118840000Y-98646359D01*
X119600000Y-98953641D02*
X119600000Y-98646359D01*
%TO.C,R16*%
X124480000Y-101946359D02*
X124480000Y-102253641D01*
X123720000Y-101946359D02*
X123720000Y-102253641D01*
%TO.C,R10*%
X122146359Y-105370000D02*
X122453641Y-105370000D01*
X122146359Y-106130000D02*
X122453641Y-106130000D01*
%TO.C,C5*%
X134490000Y-109390580D02*
X134490000Y-109109420D01*
X135510000Y-109390580D02*
X135510000Y-109109420D01*
%TO.C,C20*%
X119134420Y-96590000D02*
X119415580Y-96590000D01*
X119134420Y-97610000D02*
X119415580Y-97610000D01*
%TO.C,C9*%
X135740000Y-109390580D02*
X135740000Y-109109420D01*
X136760000Y-109390580D02*
X136760000Y-109109420D01*
D13*
%TO.C,U2*%
X124367800Y-92571100D02*
X124819920Y-92571100D01*
X124367800Y-92741280D02*
X124367800Y-92571100D01*
X131632200Y-95316840D02*
X131632200Y-95614020D01*
X131632200Y-97486000D02*
X131632200Y-97828900D01*
X124819920Y-97828900D02*
X124367800Y-97828900D01*
X124367800Y-97828900D02*
X124367800Y-97658720D01*
D12*
%TO.C,C19*%
X118846359Y-94920000D02*
X119153641Y-94920000D01*
X118846359Y-95680000D02*
X119153641Y-95680000D01*
%TO.C,C2*%
X127890000Y-100640580D02*
X127890000Y-100359420D01*
X128910000Y-100640580D02*
X128910000Y-100359420D01*
%TO.C,C18*%
X127710000Y-100359420D02*
X127710000Y-100640580D01*
X126690000Y-100359420D02*
X126690000Y-100640580D01*
%TO.C,R13*%
X120220000Y-95553641D02*
X120220000Y-95246359D01*
X120980000Y-95553641D02*
X120980000Y-95246359D01*
%TO.C,R8*%
X124196359Y-105620000D02*
X124503641Y-105620000D01*
X124196359Y-106380000D02*
X124503641Y-106380000D01*
%TO.C,C17*%
X124634420Y-103090000D02*
X124915580Y-103090000D01*
X124634420Y-104110000D02*
X124915580Y-104110000D01*
%TO.C,C4*%
X128160000Y-90892164D02*
X128160000Y-91107836D01*
X127440000Y-90892164D02*
X127440000Y-91107836D01*
%TO.C,U4*%
X119850000Y-94600000D02*
X119850000Y-93250000D01*
X118400000Y-93900000D02*
X118400000Y-93250000D01*
%TO.C,R14*%
X132046359Y-98520000D02*
X132353641Y-98520000D01*
X132046359Y-99280000D02*
X132353641Y-99280000D01*
%TO.C,R2*%
X121880000Y-99896359D02*
X121880000Y-100203641D01*
X121120000Y-99896359D02*
X121120000Y-100203641D01*
%TO.C,R4*%
X122346359Y-95520000D02*
X122653641Y-95520000D01*
X122346359Y-96280000D02*
X122653641Y-96280000D01*
%TO.C,R11*%
X119253641Y-92980000D02*
X118946359Y-92980000D01*
X119253641Y-92220000D02*
X118946359Y-92220000D01*
%TO.C,C24*%
X120210000Y-112059420D02*
X120210000Y-112340580D01*
X119190000Y-112059420D02*
X119190000Y-112340580D01*
D14*
%TO.C,U1*%
X119980000Y-101280000D02*
X120270000Y-101280000D01*
X119980000Y-101610000D02*
X119980000Y-101280000D01*
X119980000Y-104520000D02*
X119980000Y-104230000D01*
X120310000Y-104520000D02*
X119980000Y-104520000D01*
X122910000Y-101270000D02*
X123240000Y-101270000D01*
X123220000Y-104200000D02*
X123220000Y-104530000D01*
X123220000Y-104530000D02*
X122930000Y-104530000D01*
X123240000Y-101270000D02*
X123240000Y-101560000D01*
X119764031Y-101900000D02*
G75*
G03*
X119764031Y-101900000I-64031J0D01*
G01*
%TD*%
M02*
