%TF.GenerationSoftware,KiCad,Pcbnew,7.0.9*%
%TF.CreationDate,2024-04-04T22:54:04+08:00*%
%TF.ProjectId,power_module_v0.1,706f7765-725f-46d6-9f64-756c655f7630,rev?*%
%TF.SameCoordinates,Original*%
%TF.FileFunction,Copper,L1,Top*%
%TF.FilePolarity,Positive*%
%FSLAX46Y46*%
G04 Gerber Fmt 4.6, Leading zero omitted, Abs format (unit mm)*
G04 Created by KiCad (PCBNEW 7.0.9) date 2024-04-04 22:54:04*
%MOMM*%
%LPD*%
G01*
G04 APERTURE LIST*
G04 Aperture macros list*
%AMRoundRect*
0 Rectangle with rounded corners*
0 $1 Rounding radius*
0 $2 $3 $4 $5 $6 $7 $8 $9 X,Y pos of 4 corners*
0 Add a 4 corners polygon primitive as box body*
4,1,4,$2,$3,$4,$5,$6,$7,$8,$9,$2,$3,0*
0 Add four circle primitives for the rounded corners*
1,1,$1+$1,$2,$3*
1,1,$1+$1,$4,$5*
1,1,$1+$1,$6,$7*
1,1,$1+$1,$8,$9*
0 Add four rect primitives between the rounded corners*
20,1,$1+$1,$2,$3,$4,$5,0*
20,1,$1+$1,$4,$5,$6,$7,0*
20,1,$1+$1,$6,$7,$8,$9,0*
20,1,$1+$1,$8,$9,$2,$3,0*%
%AMOutline4P*
0 Free polygon, 4 corners , with rotation*
0 The origin of the aperture is its center*
0 number of corners: always 4*
0 $1 to $8 corner X, Y*
0 $9 Rotation angle, in degrees counterclockwise*
0 create outline with 4 corners*
4,1,4,$1,$2,$3,$4,$5,$6,$7,$8,$1,$2,$9*%
%AMOutline5P*
0 Free polygon, 5 corners , with rotation*
0 The origin of the aperture is its center*
0 number of corners: always 5*
0 $1 to $10 corner X, Y*
0 $11 Rotation angle, in degrees counterclockwise*
0 create outline with 5 corners*
4,1,5,$1,$2,$3,$4,$5,$6,$7,$8,$9,$10,$1,$2,$11*%
%AMOutline6P*
0 Free polygon, 6 corners , with rotation*
0 The origin of the aperture is its center*
0 number of corners: always 6*
0 $1 to $12 corner X, Y*
0 $13 Rotation angle, in degrees counterclockwise*
0 create outline with 6 corners*
4,1,6,$1,$2,$3,$4,$5,$6,$7,$8,$9,$10,$11,$12,$1,$2,$13*%
%AMOutline7P*
0 Free polygon, 7 corners , with rotation*
0 The origin of the aperture is its center*
0 number of corners: always 7*
0 $1 to $14 corner X, Y*
0 $15 Rotation angle, in degrees counterclockwise*
0 create outline with 7 corners*
4,1,7,$1,$2,$3,$4,$5,$6,$7,$8,$9,$10,$11,$12,$13,$14,$1,$2,$15*%
%AMOutline8P*
0 Free polygon, 8 corners , with rotation*
0 The origin of the aperture is its center*
0 number of corners: always 8*
0 $1 to $16 corner X, Y*
0 $17 Rotation angle, in degrees counterclockwise*
0 create outline with 8 corners*
4,1,8,$1,$2,$3,$4,$5,$6,$7,$8,$9,$10,$11,$12,$13,$14,$15,$16,$1,$2,$17*%
G04 Aperture macros list end*
%TA.AperFunction,NonConductor*%
%ADD10C,0.010000*%
%TD*%
%TA.AperFunction,SMDPad,CuDef*%
%ADD11RoundRect,0.140000X0.140000X0.170000X-0.140000X0.170000X-0.140000X-0.170000X0.140000X-0.170000X0*%
%TD*%
%TA.AperFunction,SMDPad,CuDef*%
%ADD12RoundRect,0.135000X-0.185000X0.135000X-0.185000X-0.135000X0.185000X-0.135000X0.185000X0.135000X0*%
%TD*%
%TA.AperFunction,SMDPad,CuDef*%
%ADD13RoundRect,0.225000X-0.225000X-0.250000X0.225000X-0.250000X0.225000X0.250000X-0.225000X0.250000X0*%
%TD*%
%TA.AperFunction,SMDPad,CuDef*%
%ADD14RoundRect,0.875000X-0.875000X-0.875000X0.875000X-0.875000X0.875000X0.875000X-0.875000X0.875000X0*%
%TD*%
%TA.AperFunction,SMDPad,CuDef*%
%ADD15RoundRect,0.225000X-0.250000X0.225000X-0.250000X-0.225000X0.250000X-0.225000X0.250000X0.225000X0*%
%TD*%
%TA.AperFunction,SMDPad,CuDef*%
%ADD16RoundRect,0.135000X0.185000X-0.135000X0.185000X0.135000X-0.185000X0.135000X-0.185000X-0.135000X0*%
%TD*%
%TA.AperFunction,SMDPad,CuDef*%
%ADD17RoundRect,0.225000X0.225000X0.250000X-0.225000X0.250000X-0.225000X-0.250000X0.225000X-0.250000X0*%
%TD*%
%TA.AperFunction,SMDPad,CuDef*%
%ADD18RoundRect,0.250000X-1.100000X0.325000X-1.100000X-0.325000X1.100000X-0.325000X1.100000X0.325000X0*%
%TD*%
%TA.AperFunction,SMDPad,CuDef*%
%ADD19RoundRect,0.135000X-0.135000X-0.185000X0.135000X-0.185000X0.135000X0.185000X-0.135000X0.185000X0*%
%TD*%
%TA.AperFunction,SMDPad,CuDef*%
%ADD20RoundRect,0.250000X1.100000X-0.325000X1.100000X0.325000X-1.100000X0.325000X-1.100000X-0.325000X0*%
%TD*%
%TA.AperFunction,SMDPad,CuDef*%
%ADD21RoundRect,0.075000X-0.075000X0.650000X-0.075000X-0.650000X0.075000X-0.650000X0.075000X0.650000X0*%
%TD*%
%TA.AperFunction,SMDPad,CuDef*%
%ADD22R,0.510000X0.400000*%
%TD*%
%TA.AperFunction,SMDPad,CuDef*%
%ADD23RoundRect,0.250000X0.650000X-0.325000X0.650000X0.325000X-0.650000X0.325000X-0.650000X-0.325000X0*%
%TD*%
%TA.AperFunction,SMDPad,CuDef*%
%ADD24RoundRect,0.243600X-0.771400X0.901400X-0.771400X-0.901400X0.771400X-0.901400X0.771400X0.901400X0*%
%TD*%
%TA.AperFunction,SMDPad,CuDef*%
%ADD25RoundRect,0.091200X-0.288800X0.608800X-0.288800X-0.608800X0.288800X-0.608800X0.288800X0.608800X0*%
%TD*%
%TA.AperFunction,SMDPad,CuDef*%
%ADD26RoundRect,0.190000X-0.190000X0.510000X-0.190000X-0.510000X0.190000X-0.510000X0.190000X0.510000X0*%
%TD*%
%TA.AperFunction,SMDPad,CuDef*%
%ADD27RoundRect,0.225000X0.250000X-0.225000X0.250000X0.225000X-0.250000X0.225000X-0.250000X-0.225000X0*%
%TD*%
%TA.AperFunction,SMDPad,CuDef*%
%ADD28R,0.508000X0.812800*%
%TD*%
%TA.AperFunction,SMDPad,CuDef*%
%ADD29R,0.254000X0.812800*%
%TD*%
%TA.AperFunction,SMDPad,CuDef*%
%ADD30R,0.812800X0.254000*%
%TD*%
%TA.AperFunction,SMDPad,CuDef*%
%ADD31R,0.812800X0.304800*%
%TD*%
%TA.AperFunction,SMDPad,CuDef*%
%ADD32R,0.812800X0.508000*%
%TD*%
%TA.AperFunction,SMDPad,CuDef*%
%ADD33RoundRect,0.140000X-0.170000X0.140000X-0.170000X-0.140000X0.170000X-0.140000X0.170000X0.140000X0*%
%TD*%
%TA.AperFunction,SMDPad,CuDef*%
%ADD34R,0.280000X0.530000*%
%TD*%
%TA.AperFunction,SMDPad,CuDef*%
%ADD35RoundRect,0.135000X0.135000X0.185000X-0.135000X0.185000X-0.135000X-0.185000X0.135000X-0.185000X0*%
%TD*%
%TA.AperFunction,SMDPad,CuDef*%
%ADD36Outline5P,-0.175000X0.300000X0.175000X0.300000X0.175000X-0.125000X0.000000X-0.300000X-0.175000X-0.300000X90.000000*%
%TD*%
%TA.AperFunction,SMDPad,CuDef*%
%ADD37Outline4P,-0.175000X-0.400000X0.175000X-0.400000X0.175000X0.400000X-0.175000X0.400000X270.000000*%
%TD*%
%TA.AperFunction,SMDPad,CuDef*%
%ADD38Outline5P,-0.300000X0.000000X-0.125000X0.175000X0.300000X0.175000X0.300000X-0.175000X-0.300000X-0.175000X180.000000*%
%TD*%
%TA.AperFunction,SMDPad,CuDef*%
%ADD39Outline5P,-0.175000X0.125000X0.000000X0.300000X0.175000X0.300000X0.175000X-0.300000X-0.175000X-0.300000X0.000000*%
%TD*%
%TA.AperFunction,SMDPad,CuDef*%
%ADD40Outline4P,-0.175000X-0.400000X0.175000X-0.400000X0.175000X0.400000X-0.175000X0.400000X180.000000*%
%TD*%
%TA.AperFunction,SMDPad,CuDef*%
%ADD41Outline5P,-0.175000X0.300000X0.175000X0.300000X0.175000X-0.300000X0.000000X-0.300000X-0.175000X-0.125000X180.000000*%
%TD*%
%TA.AperFunction,SMDPad,CuDef*%
%ADD42Outline5P,-0.175000X0.300000X0.175000X0.300000X0.175000X-0.125000X0.000000X-0.300000X-0.175000X-0.300000X270.000000*%
%TD*%
%TA.AperFunction,SMDPad,CuDef*%
%ADD43Outline5P,-0.175000X0.300000X0.175000X0.300000X0.175000X-0.300000X0.000000X-0.300000X-0.175000X-0.125000X270.000000*%
%TD*%
%TA.AperFunction,SMDPad,CuDef*%
%ADD44Outline5P,-0.175000X0.125000X0.000000X0.300000X0.175000X0.300000X0.175000X-0.300000X-0.175000X-0.300000X180.000000*%
%TD*%
%TA.AperFunction,SMDPad,CuDef*%
%ADD45Outline5P,-0.175000X0.300000X0.000000X0.300000X0.175000X0.125000X0.175000X-0.300000X-0.175000X-0.300000X180.000000*%
%TD*%
%TA.AperFunction,ViaPad*%
%ADD46C,0.800000*%
%TD*%
%TA.AperFunction,ViaPad*%
%ADD47C,0.500000*%
%TD*%
%TA.AperFunction,Conductor*%
%ADD48C,0.250000*%
%TD*%
%TA.AperFunction,Conductor*%
%ADD49C,0.400000*%
%TD*%
%TA.AperFunction,Conductor*%
%ADD50C,0.350000*%
%TD*%
%TA.AperFunction,Conductor*%
%ADD51C,0.200000*%
%TD*%
%TA.AperFunction,Conductor*%
%ADD52C,0.010000*%
%TD*%
%TA.AperFunction,Conductor*%
%ADD53C,0.500000*%
%TD*%
%TA.AperFunction,Conductor*%
%ADD54C,0.300000*%
%TD*%
%TA.AperFunction,Conductor*%
%ADD55C,0.180000*%
%TD*%
G04 APERTURE END LIST*
D10*
X150600000Y-92900000D02*
X128640000Y-92900000D01*
X128650000Y-90200000D01*
X150550000Y-90200000D01*
X150600000Y-92900000D01*
%TA.AperFunction,NonConductor*%
G36*
X150600000Y-92900000D02*
G01*
X128640000Y-92900000D01*
X128650000Y-90200000D01*
X150550000Y-90200000D01*
X150600000Y-92900000D01*
G37*
%TD.AperFunction*%
X150600000Y-94300000D02*
X128100000Y-94300000D01*
X128100000Y-92300000D01*
X150600000Y-92300000D01*
X150600000Y-94300000D01*
%TA.AperFunction,NonConductor*%
G36*
X150600000Y-94300000D02*
G01*
X128100000Y-94300000D01*
X128100000Y-92300000D01*
X150600000Y-92300000D01*
X150600000Y-94300000D01*
G37*
%TD.AperFunction*%
X132350000Y-102900000D02*
X129150000Y-102900000D01*
X129150000Y-98850000D01*
X128750000Y-98850000D01*
X128750000Y-96850000D01*
X132350000Y-96850000D01*
X132350000Y-102900000D01*
%TA.AperFunction,NonConductor*%
G36*
X132350000Y-102900000D02*
G01*
X129150000Y-102900000D01*
X129150000Y-98850000D01*
X128750000Y-98850000D01*
X128750000Y-96850000D01*
X132350000Y-96850000D01*
X132350000Y-102900000D01*
G37*
%TD.AperFunction*%
X150590000Y-100120000D02*
X145690000Y-100120000D01*
X145690000Y-108960000D01*
X133040000Y-109010000D01*
X133040000Y-99820000D01*
X134240000Y-99820000D01*
X134240000Y-96570000D01*
X128640000Y-96570000D01*
X128640000Y-94470000D01*
X150590000Y-94470000D01*
X150590000Y-100120000D01*
%TA.AperFunction,NonConductor*%
G36*
X150590000Y-100120000D02*
G01*
X145690000Y-100120000D01*
X145690000Y-108960000D01*
X133040000Y-109010000D01*
X133040000Y-99820000D01*
X134240000Y-99820000D01*
X134240000Y-96570000D01*
X128640000Y-96570000D01*
X128640000Y-94470000D01*
X150590000Y-94470000D01*
X150590000Y-100120000D01*
G37*
%TD.AperFunction*%
X132350000Y-105850000D02*
X128400000Y-105850000D01*
X128400000Y-102250000D01*
X132350000Y-102250000D01*
X132350000Y-105850000D01*
%TA.AperFunction,NonConductor*%
G36*
X132350000Y-105850000D02*
G01*
X128400000Y-105850000D01*
X128400000Y-102250000D01*
X132350000Y-102250000D01*
X132350000Y-105850000D01*
G37*
%TD.AperFunction*%
X126500000Y-93800000D02*
X126050000Y-93800000D01*
X126050000Y-92300000D01*
X126500000Y-92300000D01*
X126500000Y-93800000D01*
%TA.AperFunction,NonConductor*%
G36*
X126500000Y-93800000D02*
G01*
X126050000Y-93800000D01*
X126050000Y-92300000D01*
X126500000Y-92300000D01*
X126500000Y-93800000D01*
G37*
%TD.AperFunction*%
X125640000Y-96430000D02*
X123690000Y-96430000D01*
X123720000Y-96010000D01*
X125660000Y-96010000D01*
X125640000Y-96430000D01*
%TA.AperFunction,NonConductor*%
G36*
X125640000Y-96430000D02*
G01*
X123690000Y-96430000D01*
X123720000Y-96010000D01*
X125660000Y-96010000D01*
X125640000Y-96430000D01*
G37*
%TD.AperFunction*%
%TA.AperFunction,EtchedComponent*%
%TO.C,U2*%
G36*
X128406400Y-98108300D02*
G01*
X128152400Y-98108300D01*
X128152400Y-96315060D01*
X127339600Y-96315060D01*
X127339600Y-95705460D01*
X128406400Y-95705460D01*
X128406400Y-98108300D01*
G37*
%TD.AperFunction*%
%TA.AperFunction,EtchedComponent*%
G36*
X127029720Y-94476100D02*
G01*
X131911600Y-94476100D01*
X131911600Y-94984100D01*
X131154680Y-94984100D01*
X131154680Y-95946760D01*
X131911600Y-95946760D01*
X131911600Y-96454760D01*
X129109980Y-96454760D01*
X129109980Y-95306680D01*
X127029720Y-95306680D01*
X127029720Y-96952600D01*
X125251720Y-96952600D01*
X125251720Y-93447400D01*
X127029720Y-93447400D01*
X127029720Y-94476100D01*
G37*
%TD.AperFunction*%
%TA.AperFunction,EtchedComponent*%
G36*
X128652780Y-93013060D02*
G01*
X129397000Y-93013060D01*
X129397000Y-92291700D01*
X129905000Y-92291700D01*
X129905000Y-93013060D01*
X130646680Y-93013060D01*
X130646680Y-92291700D01*
X131154680Y-92291700D01*
X131154680Y-93818240D01*
X131911600Y-93818240D01*
X131911600Y-94123040D01*
X127629160Y-94123040D01*
X127629160Y-93449940D01*
X128144780Y-93449940D01*
X128144780Y-92291700D01*
X128652780Y-92291700D01*
X128652780Y-93013060D01*
G37*
%TD.AperFunction*%
%TA.AperFunction,EtchedComponent*%
G36*
X131911600Y-97153260D02*
G01*
X131152140Y-97153260D01*
X131152140Y-98108300D01*
X130898140Y-98108300D01*
X130898140Y-97402180D01*
X130651760Y-97402180D01*
X130651760Y-98108300D01*
X130397760Y-98108300D01*
X130397760Y-97402180D01*
X130151380Y-97402180D01*
X130151380Y-98108300D01*
X129897380Y-98108300D01*
X129897380Y-97402180D01*
X129651000Y-97402180D01*
X129651000Y-98108300D01*
X129397000Y-98108300D01*
X129397000Y-97402180D01*
X129153160Y-97402180D01*
X129153160Y-98108300D01*
X128899160Y-98108300D01*
X128899160Y-96848460D01*
X131911600Y-96848460D01*
X131911600Y-97153260D01*
G37*
%TD.AperFunction*%
%TD*%
D11*
%TO.P,C8,1*%
%TO.N,+5VA*%
X118380000Y-91400000D03*
%TO.P,C8,2*%
%TO.N,GNDA*%
X117420000Y-91400000D03*
%TD*%
D12*
%TO.P,R6,1*%
%TO.N,Net-(C4-Pad1)*%
X126700000Y-90490000D03*
%TO.P,R6,2*%
%TO.N,Net-(U2-BOOT)*%
X126700000Y-91510000D03*
%TD*%
D13*
%TO.P,C21,1*%
%TO.N,Net-(C21-Pad1)*%
X133525000Y-98900000D03*
%TO.P,C21,2*%
%TO.N,GNDA*%
X135075000Y-98900000D03*
%TD*%
D12*
%TO.P,R12,1*%
%TO.N,+3.3V*%
X120600000Y-93190000D03*
%TO.P,R12,2*%
%TO.N,Net-(U4-ADJ)*%
X120600000Y-94210000D03*
%TD*%
D14*
%TO.P,L1,1,1*%
%TO.N,Net-(L1-Pad1)*%
X130250000Y-103950000D03*
%TO.P,L1,2,2*%
%TO.N,Net-(U2-VSEN+)*%
X130250000Y-111550000D03*
%TD*%
D15*
%TO.P,C16,1*%
%TO.N,VCC*%
X133000000Y-93525000D03*
%TO.P,C16,2*%
%TO.N,GNDA*%
X133000000Y-95075000D03*
%TD*%
D16*
%TO.P,R7,1*%
%TO.N,+5VA*%
X124800000Y-100510000D03*
%TO.P,R7,2*%
%TO.N,Net-(Q1-D)*%
X124800000Y-99490000D03*
%TD*%
D17*
%TO.P,C22,1*%
%TO.N,+3.3V*%
X118875000Y-101500000D03*
%TO.P,C22,2*%
%TO.N,GNDA*%
X117325000Y-101500000D03*
%TD*%
D18*
%TO.P,C14,1*%
%TO.N,VCC*%
X136500000Y-93225000D03*
%TO.P,C14,2*%
%TO.N,GNDA*%
X136500000Y-96175000D03*
%TD*%
D13*
%TO.P,C7,1*%
%TO.N,+5VA*%
X119675000Y-91400000D03*
%TO.P,C7,2*%
%TO.N,GNDA*%
X121225000Y-91400000D03*
%TD*%
D19*
%TO.P,R5,1*%
%TO.N,GNDA*%
X121990000Y-95000000D03*
%TO.P,R5,2*%
%TO.N,Net-(U2-ADDR)*%
X123010000Y-95000000D03*
%TD*%
D15*
%TO.P,C23,1*%
%TO.N,+3.3V*%
X118600000Y-111425000D03*
%TO.P,C23,2*%
%TO.N,GNDA*%
X118600000Y-112975000D03*
%TD*%
D20*
%TO.P,C10,1*%
%TO.N,Net-(U2-VSEN+)*%
X140750000Y-110725000D03*
%TO.P,C10,2*%
%TO.N,GNDA*%
X140750000Y-107775000D03*
%TD*%
D21*
%TO.P,U3,1,A1*%
%TO.N,Net-(U3-A1)*%
X122700000Y-107100000D03*
%TO.P,U3,2,A0*%
%TO.N,GNDA*%
X122200000Y-107100000D03*
%TO.P,U3,3,~{Alert}*%
%TO.N,~{SENSOR_ALERT}*%
X121700000Y-107100000D03*
%TO.P,U3,4,SDA*%
%TO.N,I2C0_SDA*%
X121200000Y-107100000D03*
%TO.P,U3,5,SCL*%
%TO.N,I2C0_SCL*%
X120700000Y-107100000D03*
%TO.P,U3,6,VS*%
%TO.N,+3.3V*%
X120700000Y-111500000D03*
%TO.P,U3,7,GND*%
%TO.N,GNDA*%
X121200000Y-111500000D03*
%TO.P,U3,8,Vbus*%
%TO.N,Net-(U2-VSEN+)*%
X121700000Y-111500000D03*
%TO.P,U3,9,Vin-*%
%TO.N,Net-(U3-Vin-)*%
X122200000Y-111500000D03*
%TO.P,U3,10,Vin+*%
%TO.N,Net-(U3-Vin+)*%
X122700000Y-111500000D03*
%TD*%
D22*
%TO.P,Q1,1,G*%
%TO.N,~{PWR_EN}*%
X125495000Y-105350000D03*
%TO.P,Q1,2,S*%
%TO.N,GNDA*%
X125495000Y-104350000D03*
%TO.P,Q1,3,D*%
%TO.N,Net-(Q1-D)*%
X124205000Y-104850000D03*
%TD*%
D16*
%TO.P,R17,1*%
%TO.N,Net-(U3-A1)*%
X123900000Y-108010000D03*
%TO.P,R17,2*%
%TO.N,+3.3V*%
X123900000Y-106990000D03*
%TD*%
%TO.P,R15,1*%
%TO.N,I2C0_SDA*%
X123100000Y-99810000D03*
%TO.P,R15,2*%
%TO.N,+3.3V*%
X123100000Y-98790000D03*
%TD*%
D12*
%TO.P,C1,1*%
%TO.N,GNDA*%
X120100000Y-98300000D03*
%TO.P,C1,2*%
%TO.N,Net-(U1-NRST)*%
X120100000Y-99320000D03*
%TD*%
D23*
%TO.P,C6,1*%
%TO.N,Net-(U2-VSEN+)*%
X138000000Y-110725000D03*
%TO.P,C6,2*%
%TO.N,GNDA*%
X138000000Y-107775000D03*
%TD*%
D18*
%TO.P,C13,1*%
%TO.N,VCC*%
X139500000Y-93225000D03*
%TO.P,C13,2*%
%TO.N,GNDA*%
X139500000Y-96175000D03*
%TD*%
D24*
%TO.P,R9,1,1*%
%TO.N,/VOUT*%
X148385000Y-104515000D03*
D25*
%TO.P,R9,2,2*%
%TO.N,Net-(U3-Vin-)*%
X146480000Y-104070000D03*
D26*
%TO.P,R9,3,3*%
%TO.N,Net-(U3-Vin+)*%
X149020000Y-110930000D03*
D24*
%TO.P,R9,4,4*%
%TO.N,Net-(U2-VSEN+)*%
X147115000Y-110485000D03*
%TD*%
D17*
%TO.P,C11,1*%
%TO.N,+3.3V*%
X118875000Y-100400000D03*
%TO.P,C11,2*%
%TO.N,GNDA*%
X117325000Y-100400000D03*
%TD*%
D27*
%TO.P,C3,1*%
%TO.N,GNDA*%
X126000000Y-101275000D03*
%TO.P,C3,2*%
%TO.N,+5VA*%
X126000000Y-99725000D03*
%TD*%
D16*
%TO.P,R18,1*%
%TO.N,GNDA*%
X123900000Y-109810000D03*
%TO.P,R18,2*%
%TO.N,Net-(U3-A1)*%
X123900000Y-108790000D03*
%TD*%
D15*
%TO.P,C15,1*%
%TO.N,VCC*%
X134250000Y-93525000D03*
%TO.P,C15,2*%
%TO.N,GNDA*%
X134250000Y-95075000D03*
%TD*%
D20*
%TO.P,C12,1*%
%TO.N,Net-(U2-VSEN+)*%
X144000000Y-110725000D03*
%TO.P,C12,2*%
%TO.N,GNDA*%
X144000000Y-107775000D03*
%TD*%
D19*
%TO.P,R3,1*%
%TO.N,GNDA*%
X121990000Y-97400000D03*
%TO.P,R3,2*%
%TO.N,Net-(U2-RT{slash}SYNC)*%
X123010000Y-97400000D03*
%TD*%
D16*
%TO.P,R1,1*%
%TO.N,Net-(U1-NRST)*%
X119220000Y-99310000D03*
%TO.P,R1,2*%
%TO.N,+3.3V*%
X119220000Y-98290000D03*
%TD*%
D12*
%TO.P,R16,1*%
%TO.N,I2C0_SCL*%
X124100000Y-101590000D03*
%TO.P,R16,2*%
%TO.N,+3.3V*%
X124100000Y-102610000D03*
%TD*%
D19*
%TO.P,R10,1*%
%TO.N,~{SENSOR_ALERT}*%
X121790000Y-105750000D03*
%TO.P,R10,2*%
%TO.N,+3.3V*%
X122810000Y-105750000D03*
%TD*%
D27*
%TO.P,C5,1*%
%TO.N,Net-(U2-VSEN+)*%
X135000000Y-110025000D03*
%TO.P,C5,2*%
%TO.N,GNDA*%
X135000000Y-108475000D03*
%TD*%
D13*
%TO.P,C20,1*%
%TO.N,+3.3V*%
X118500000Y-97100000D03*
%TO.P,C20,2*%
%TO.N,GNDA*%
X120050000Y-97100000D03*
%TD*%
D27*
%TO.P,C9,1*%
%TO.N,Net-(U2-VSEN+)*%
X136250000Y-110025000D03*
%TO.P,C9,2*%
%TO.N,GNDA*%
X136250000Y-108475000D03*
%TD*%
D28*
%TO.P,U2,1,PVIN*%
%TO.N,VCC*%
X130900680Y-92698100D03*
%TO.P,U2,2,PVIN*%
X129651000Y-92698100D03*
%TO.P,U2,3,PVIN*%
X128398780Y-92698100D03*
D29*
%TO.P,U2,4,PH*%
%TO.N,Net-(U2-PH)*%
X127779020Y-92698100D03*
%TO.P,U2,5,GH*%
%TO.N,unconnected-(U2-GH-Pad5)*%
X127281180Y-92698100D03*
%TO.P,U2,6,BOOT*%
%TO.N,Net-(U2-BOOT)*%
X126780800Y-92698100D03*
%TO.P,U2,7,AGND*%
%TO.N,GNDA*%
X126280420Y-92698100D03*
%TO.P,U2,8,NC*%
%TO.N,unconnected-(U2-NC-Pad8)*%
X125780040Y-92698100D03*
%TO.P,U2,9,NC*%
%TO.N,unconnected-(U2-NC-Pad9)*%
X125279660Y-92698100D03*
D30*
%TO.P,U2,10,NC*%
%TO.N,unconnected-(U2-NC-Pad10)*%
X124494800Y-93201020D03*
%TO.P,U2,11,VSEN-*%
%TO.N,GNDA*%
X124494800Y-93698860D03*
%TO.P,U2,12,VSEN+*%
%TO.N,Net-(U2-VSEN+)*%
X124494800Y-94199240D03*
%TO.P,U2,13,PGOOD*%
%TO.N,unconnected-(U2-PGOOD-Pad13)*%
X124494800Y-94699620D03*
%TO.P,U2,14,ADDR*%
%TO.N,Net-(U2-ADDR)*%
X124494800Y-95200000D03*
%TO.P,U2,15,VSET*%
%TO.N,Net-(U2-VSET)*%
X124494800Y-95700380D03*
%TO.P,U2,16,AGND*%
%TO.N,GNDA*%
X124494800Y-96200760D03*
%TO.P,U2,17,RT/SYNC*%
%TO.N,Net-(U2-RT{slash}SYNC)*%
X124494800Y-96701140D03*
%TO.P,U2,18,SALRT*%
%TO.N,PWR_ALERT*%
X124494800Y-97198980D03*
D29*
%TO.P,U2,19,SDA*%
%TO.N,I2C0_SDA*%
X125279660Y-97701900D03*
%TO.P,U2,20,SCL*%
%TO.N,I2C0_SCL*%
X125780040Y-97701900D03*
%TO.P,U2,21,EN*%
%TO.N,Net-(Q1-D)*%
X126280420Y-97701900D03*
%TO.P,U2,22,VDD*%
%TO.N,+5VA*%
X126780800Y-97701900D03*
%TO.P,U2,23,VIN*%
%TO.N,VCC*%
X127281180Y-97701900D03*
%TO.P,U2,24,PVCC*%
%TO.N,Net-(U2-PVCC)*%
X127779020Y-97701900D03*
%TO.P,U2,25,GL*%
%TO.N,unconnected-(U2-GL-Pad25)*%
X128279400Y-97701900D03*
%TO.P,U2,26,SW*%
%TO.N,Net-(L1-Pad1)*%
X129026160Y-97701900D03*
%TO.P,U2,27,SW*%
X129524000Y-97701900D03*
%TO.P,U2,28,SW*%
X130024380Y-97701900D03*
%TO.P,U2,29,SW*%
X130524760Y-97701900D03*
%TO.P,U2,30,SW*%
X131025140Y-97701900D03*
D31*
%TO.P,U2,31,SW*%
X131505200Y-97000860D03*
D32*
%TO.P,U2,32,PGND*%
%TO.N,GNDA*%
X131505200Y-96200760D03*
%TO.P,U2,33,PGND*%
X131505200Y-94730100D03*
D31*
%TO.P,U2,34,PVIN*%
%TO.N,VCC*%
X131505200Y-93970640D03*
%TD*%
D19*
%TO.P,C19,1*%
%TO.N,+3.3V*%
X118490000Y-95300000D03*
%TO.P,C19,2*%
%TO.N,GNDA*%
X119510000Y-95300000D03*
%TD*%
D27*
%TO.P,C2,1*%
%TO.N,GNDA*%
X128400000Y-101275000D03*
%TO.P,C2,2*%
%TO.N,Net-(U2-PVCC)*%
X128400000Y-99725000D03*
%TD*%
D15*
%TO.P,C18,1*%
%TO.N,VCC*%
X127200000Y-99725000D03*
%TO.P,C18,2*%
%TO.N,GNDA*%
X127200000Y-101275000D03*
%TD*%
D16*
%TO.P,R13,1*%
%TO.N,GNDA*%
X120600000Y-95910000D03*
%TO.P,R13,2*%
%TO.N,Net-(U4-ADJ)*%
X120600000Y-94890000D03*
%TD*%
D19*
%TO.P,R8,1*%
%TO.N,+3.3V*%
X123840000Y-106000000D03*
%TO.P,R8,2*%
%TO.N,~{PWR_EN}*%
X124860000Y-106000000D03*
%TD*%
D13*
%TO.P,C17,1*%
%TO.N,+3.3V*%
X124000000Y-103600000D03*
%TO.P,C17,2*%
%TO.N,GNDA*%
X125550000Y-103600000D03*
%TD*%
D33*
%TO.P,C4,1*%
%TO.N,Net-(C4-Pad1)*%
X127800000Y-90520000D03*
%TO.P,C4,2*%
%TO.N,Net-(U2-PH)*%
X127800000Y-91480000D03*
%TD*%
D34*
%TO.P,U4,1,OUT*%
%TO.N,+3.3V*%
X118700000Y-94268000D03*
%TO.P,U4,2,GND*%
%TO.N,GNDA*%
X119100000Y-94268000D03*
%TO.P,U4,3,ADJ*%
%TO.N,Net-(U4-ADJ)*%
X119500000Y-94268000D03*
%TO.P,U4,4,EN*%
%TO.N,Net-(U4-EN)*%
X119500000Y-93532000D03*
%TO.P,U4,5,NC*%
%TO.N,unconnected-(U4-NC-Pad5)*%
X119100000Y-93532000D03*
%TO.P,U4,6,IN*%
%TO.N,+5VA*%
X118700000Y-93532000D03*
%TD*%
D19*
%TO.P,R14,1*%
%TO.N,Net-(L1-Pad1)*%
X131690000Y-98900000D03*
%TO.P,R14,2*%
%TO.N,Net-(C21-Pad1)*%
X132710000Y-98900000D03*
%TD*%
D12*
%TO.P,R2,1*%
%TO.N,GNDA*%
X121500000Y-99540000D03*
%TO.P,R2,2*%
%TO.N,Net-(U1-BOOT0)*%
X121500000Y-100560000D03*
%TD*%
D19*
%TO.P,R4,1*%
%TO.N,GNDA*%
X121990000Y-95900000D03*
%TO.P,R4,2*%
%TO.N,Net-(U2-VSET)*%
X123010000Y-95900000D03*
%TD*%
D35*
%TO.P,R11,1*%
%TO.N,Net-(U4-EN)*%
X119610000Y-92600000D03*
%TO.P,R11,2*%
%TO.N,+5VA*%
X118590000Y-92600000D03*
%TD*%
D15*
%TO.P,C24,1*%
%TO.N,+3.3V*%
X119700000Y-111425000D03*
%TO.P,C24,2*%
%TO.N,GNDA*%
X119700000Y-112975000D03*
%TD*%
D36*
%TO.P,U1,1,NRST*%
%TO.N,Net-(U1-NRST)*%
X120200000Y-101900000D03*
D37*
%TO.P,U1,2,VDDA*%
%TO.N,+3.3V*%
X120300000Y-102400000D03*
%TO.P,U1,3,PA0*%
%TO.N,unconnected-(U1-PA0-Pad3)*%
X120300000Y-102900000D03*
%TO.P,U1,4,PA1*%
%TO.N,unconnected-(U1-PA1-Pad4)*%
X120300000Y-103400000D03*
D38*
%TO.P,U1,5,PA2*%
%TO.N,UART_TXD*%
X120200000Y-103900000D03*
D39*
%TO.P,U1,6,PA3*%
%TO.N,UART_RXD*%
X120600000Y-104300000D03*
D40*
%TO.P,U1,7,PA4*%
%TO.N,GPIO2*%
X121100000Y-104200000D03*
%TO.P,U1,8,PA5*%
%TO.N,GPIO3*%
X121600000Y-104200000D03*
%TO.P,U1,9,PA6*%
%TO.N,unconnected-(U1-PA6-Pad9)*%
X122100000Y-104200000D03*
D41*
%TO.P,U1,10,PA7*%
%TO.N,~{SENSOR_ALERT}*%
X122600000Y-104300000D03*
D42*
%TO.P,U1,11,PB1*%
%TO.N,~{PWR_EN}*%
X123000000Y-103900000D03*
D37*
%TO.P,U1,12,VSS*%
%TO.N,GNDA*%
X122900000Y-103400000D03*
%TO.P,U1,13,VDD*%
%TO.N,+3.3V*%
X122900000Y-102900000D03*
%TO.P,U1,14,PA9*%
%TO.N,I2C0_SCL*%
X122900000Y-102400000D03*
D43*
%TO.P,U1,15,PA10*%
%TO.N,I2C0_SDA*%
X123000000Y-101900000D03*
D44*
%TO.P,U1,16,PA13*%
%TO.N,SWDIO*%
X122600000Y-101500000D03*
D40*
%TO.P,U1,17,PA14*%
%TO.N,SWCLK*%
X122100000Y-101600000D03*
%TO.P,U1,18,BOOT0*%
%TO.N,Net-(U1-BOOT0)*%
X121600000Y-101600000D03*
%TO.P,U1,19,OSCIN*%
%TO.N,PWR_ALERT*%
X121100000Y-101600000D03*
D45*
%TO.P,U1,20,OSCOUT*%
%TO.N,unconnected-(U1-OSCOUT-Pad20)*%
X120600000Y-101500000D03*
%TD*%
D46*
%TO.N,Net-(U1-NRST)*%
X116600000Y-98000000D03*
D47*
X119700000Y-99400000D03*
%TO.N,GNDA*%
X148600000Y-96000000D03*
X137570000Y-108630000D03*
X145070000Y-108630000D03*
X144850000Y-98250000D03*
X120630000Y-112860000D03*
X135850000Y-102000000D03*
X136600000Y-95250000D03*
X137350000Y-101250000D03*
X126800000Y-95600000D03*
X139600000Y-101250000D03*
X138100000Y-104000000D03*
X134340000Y-106800000D03*
X126200000Y-104350000D03*
X128700000Y-101700000D03*
X149350000Y-95250000D03*
X124400000Y-113700000D03*
X143350000Y-101250000D03*
X126800000Y-93800000D03*
X140350000Y-102000000D03*
X147100000Y-97500000D03*
X136600000Y-98250000D03*
X149350000Y-96000000D03*
X134600000Y-96000000D03*
X134350000Y-99750000D03*
X138850000Y-104000000D03*
X124200000Y-90500000D03*
X117740000Y-107130000D03*
X134350000Y-104750000D03*
X138850000Y-105500000D03*
X136590000Y-106800000D03*
X139600000Y-100500000D03*
X117650000Y-98850000D03*
X134600000Y-96750000D03*
X136600000Y-99750000D03*
X136600000Y-102000000D03*
X138100000Y-99000000D03*
X133600000Y-104750000D03*
X144850000Y-103500000D03*
X141850000Y-104750000D03*
X121250000Y-99100000D03*
X142600000Y-100500000D03*
X139600000Y-104000000D03*
X122250000Y-91000000D03*
X137350000Y-99750000D03*
X141850000Y-99000000D03*
X129000000Y-95400000D03*
X138850000Y-95250000D03*
X139600000Y-97500000D03*
X138850000Y-104750000D03*
X122800000Y-96650000D03*
X142600000Y-97500000D03*
X138100000Y-100500000D03*
X148600000Y-95250000D03*
X138100000Y-104000000D03*
X123000000Y-90500000D03*
X125800000Y-102000000D03*
X126200000Y-96200000D03*
X119850000Y-105049500D03*
X120550000Y-92400000D03*
X146350000Y-98250000D03*
X128100000Y-100750000D03*
X138100000Y-104750000D03*
X135100000Y-104000000D03*
X137350000Y-100500000D03*
X130400000Y-96000000D03*
X122000000Y-103300000D03*
X135850000Y-98250000D03*
X124250000Y-91600000D03*
X136600000Y-104750000D03*
X135100000Y-97500000D03*
X135570000Y-108630000D03*
X117480000Y-104760000D03*
X138850000Y-97500000D03*
X137350000Y-104000000D03*
X137340000Y-106800000D03*
X144850000Y-101250000D03*
X136600000Y-104000000D03*
X141100000Y-104000000D03*
X125950000Y-113600000D03*
X122800000Y-113700000D03*
X147100000Y-96000000D03*
X125230000Y-107980000D03*
X134570000Y-108630000D03*
X144100000Y-96750000D03*
X121442984Y-102900000D03*
X124100000Y-111500000D03*
X144840000Y-106800000D03*
X126200000Y-103700000D03*
X136600000Y-99000000D03*
D46*
X116600000Y-102500000D03*
D47*
X119400000Y-96400000D03*
X122418886Y-91631114D03*
X126205014Y-105550500D03*
X136570000Y-108630000D03*
X148600000Y-99000000D03*
X122200000Y-109000000D03*
X141570000Y-108630000D03*
X140350000Y-100500000D03*
X137350000Y-104750000D03*
X143350000Y-102000000D03*
X142600000Y-98250000D03*
X135850000Y-104000000D03*
X141100000Y-102000000D03*
X141100000Y-101250000D03*
X143350000Y-95250000D03*
X121400000Y-95000000D03*
X135100000Y-104750000D03*
X146350000Y-96000000D03*
X144050000Y-103450000D03*
X133570000Y-108630000D03*
D46*
X150600000Y-99500000D03*
D47*
X132100000Y-95400000D03*
X144100000Y-96000000D03*
X140350000Y-101250000D03*
X140350000Y-97500000D03*
X117000000Y-99600000D03*
X140570000Y-108630000D03*
X139600000Y-104000000D03*
X126200000Y-95000000D03*
X125600000Y-94400000D03*
X121100000Y-109400000D03*
X143350000Y-105500000D03*
X126150000Y-109500000D03*
X138850000Y-99750000D03*
X140350000Y-95250000D03*
X134350000Y-100500000D03*
X122700000Y-94000000D03*
X148600000Y-96750000D03*
X138570000Y-108630000D03*
X121700000Y-90500000D03*
X135100000Y-100500000D03*
X140350000Y-99750000D03*
X135100000Y-99750000D03*
X141850000Y-95250000D03*
X138100000Y-105500000D03*
X142600000Y-105500000D03*
X120750000Y-97250000D03*
X134350000Y-104000000D03*
X133590000Y-106800000D03*
X142600000Y-104750000D03*
X147850000Y-96750000D03*
X134350000Y-101250000D03*
X117200000Y-90500000D03*
X137350000Y-99000000D03*
X125600000Y-96200000D03*
X135850000Y-104000000D03*
X136600000Y-104000000D03*
X140350000Y-104750000D03*
X138100000Y-98250000D03*
X121350000Y-92400000D03*
X121400000Y-96700000D03*
X144850000Y-102000000D03*
X148600000Y-99750000D03*
X133600000Y-105500000D03*
X122699500Y-93200000D03*
X126200000Y-106900000D03*
X141840000Y-106800000D03*
X133600000Y-101250000D03*
X137350000Y-102000000D03*
X147100000Y-96750000D03*
X120100000Y-96400000D03*
X136600000Y-105500000D03*
X139600000Y-99750000D03*
X141100000Y-97500000D03*
X138850000Y-98250000D03*
X145350000Y-105000000D03*
X126200000Y-103100000D03*
X135850000Y-105500000D03*
X138100000Y-105500000D03*
X117325000Y-92175000D03*
X117850000Y-94000000D03*
X126800000Y-95000000D03*
X137350000Y-104750000D03*
X143570000Y-108630000D03*
X149350000Y-99000000D03*
X126500000Y-96700000D03*
D46*
X150600000Y-95500000D03*
D47*
X144850000Y-102750000D03*
X126150000Y-110400000D03*
X137350000Y-104000000D03*
X138100000Y-97500000D03*
X117680000Y-99600000D03*
X137350000Y-105500000D03*
X124250000Y-92350000D03*
X129000000Y-96000000D03*
X121400000Y-95700000D03*
X135850000Y-95250000D03*
X138850000Y-99000000D03*
X140350000Y-104000000D03*
X146350000Y-96750000D03*
X136600000Y-101250000D03*
X122200000Y-108200000D03*
X126200000Y-93800000D03*
X144100000Y-95250000D03*
X138850000Y-100500000D03*
X142600000Y-96750000D03*
X135100000Y-102000000D03*
X140340000Y-106800000D03*
X141100000Y-99000000D03*
X135850000Y-101250000D03*
X122100000Y-113700000D03*
X137350000Y-97500000D03*
X121100000Y-110200000D03*
X146350000Y-95250000D03*
X122950000Y-92400000D03*
X144100000Y-100500000D03*
X119990000Y-109590000D03*
X147850000Y-97500000D03*
X142570000Y-108630000D03*
X119450498Y-103255169D03*
X141850000Y-96000000D03*
X122000000Y-102500000D03*
X138840000Y-106800000D03*
X144850000Y-95250000D03*
X141100000Y-99750000D03*
X145600000Y-95250000D03*
X121400000Y-97300000D03*
X139570000Y-108630000D03*
X125600000Y-93800000D03*
X138100000Y-104000000D03*
X149350000Y-97500000D03*
X119700000Y-113700000D03*
X120020000Y-110390000D03*
X145600000Y-99000000D03*
X147100000Y-99000000D03*
X135840000Y-106800000D03*
X117000000Y-98850000D03*
X135100000Y-101250000D03*
X147850000Y-98250000D03*
X125100000Y-113700000D03*
X138100000Y-102000000D03*
X126200000Y-94400000D03*
X142600000Y-99750000D03*
X139600000Y-98250000D03*
X125600000Y-91400000D03*
X147100000Y-95250000D03*
X118900000Y-113700000D03*
X144320000Y-108630000D03*
X141090000Y-106800000D03*
X134350000Y-102000000D03*
X136600000Y-104000000D03*
X142600000Y-95250000D03*
X121450000Y-112870000D03*
X143350000Y-98250000D03*
X149350000Y-99750000D03*
X129800000Y-95400000D03*
X123600000Y-113700000D03*
X125780000Y-107390000D03*
X120600000Y-90500000D03*
X126150000Y-111750000D03*
X137350000Y-104000000D03*
X147850000Y-99750000D03*
X145600000Y-99750000D03*
X118070000Y-109180000D03*
X142590000Y-106800000D03*
X138100000Y-95250000D03*
X139600000Y-104750000D03*
X147850000Y-99000000D03*
X118100000Y-113700000D03*
X126800000Y-96200000D03*
X143350000Y-96000000D03*
X143340000Y-106800000D03*
X121300000Y-113700000D03*
X125600000Y-95600000D03*
X135100000Y-105500000D03*
X145350000Y-104000000D03*
X144850000Y-97500000D03*
X147850000Y-95250000D03*
X130400000Y-95400000D03*
X144100000Y-102000000D03*
X144100000Y-98250000D03*
X139600000Y-99000000D03*
X145600000Y-96000000D03*
X139600000Y-102000000D03*
X141100000Y-105500000D03*
X147850000Y-96000000D03*
X144100000Y-101250000D03*
X141850000Y-105500000D03*
X145600000Y-97500000D03*
X142600000Y-102000000D03*
X138100000Y-99750000D03*
D46*
X150600000Y-98500000D03*
D47*
X119427657Y-105542937D03*
X141100000Y-95250000D03*
X141850000Y-99750000D03*
X125650000Y-110000000D03*
X118060000Y-104170000D03*
X138100000Y-104750000D03*
X125300000Y-102800000D03*
X125600000Y-95000000D03*
X141100000Y-104000000D03*
X141850000Y-101250000D03*
X117200000Y-92900000D03*
X138090000Y-106800000D03*
X138850000Y-101250000D03*
X137350000Y-95250000D03*
X129800000Y-94800000D03*
X138100000Y-101250000D03*
X118070000Y-103510000D03*
X140350000Y-98250000D03*
X118300000Y-90500000D03*
X144090000Y-106800000D03*
X123680000Y-112080000D03*
X142600000Y-99000000D03*
X131500000Y-95400000D03*
X136600000Y-97500000D03*
X144800000Y-105000000D03*
X121500000Y-108450000D03*
X124610000Y-106700000D03*
X125600000Y-90500000D03*
X149350000Y-98250000D03*
D46*
X150600000Y-97500000D03*
D47*
X124646256Y-108485630D03*
X125200000Y-110450000D03*
X141100000Y-104750000D03*
X144100000Y-99750000D03*
X146350000Y-99000000D03*
X126150000Y-111000000D03*
X149350000Y-96750000D03*
X135100000Y-98250000D03*
X145400000Y-106800000D03*
X144850000Y-100500000D03*
X140350000Y-99000000D03*
X135850000Y-97500000D03*
X126100000Y-113000000D03*
X133600000Y-102000000D03*
X142600000Y-96000000D03*
X125300000Y-102200000D03*
X118000000Y-100950000D03*
X119400000Y-95800000D03*
X132850000Y-96000000D03*
X142600000Y-101250000D03*
X141850000Y-96750000D03*
X127450000Y-100750000D03*
X126200000Y-95600000D03*
X128700000Y-100750000D03*
X129000000Y-94800000D03*
X123500000Y-92800000D03*
X120500000Y-113700000D03*
X143350000Y-99000000D03*
X141850000Y-104000000D03*
X130400000Y-94800000D03*
X119512640Y-107770232D03*
X143350000Y-99750000D03*
X135850000Y-104750000D03*
X141850000Y-100500000D03*
X143600000Y-102850000D03*
X124700000Y-110900000D03*
X138850000Y-102000000D03*
X141850000Y-97500000D03*
X143350000Y-100500000D03*
X145600000Y-98250000D03*
X141850000Y-102000000D03*
X125900000Y-96700000D03*
X123200000Y-109800000D03*
X135850000Y-99000000D03*
X146350000Y-97500000D03*
X126150000Y-112350000D03*
X140350000Y-105500000D03*
X125300000Y-101500000D03*
X139600000Y-105500000D03*
X135090000Y-106800000D03*
X119500000Y-90500000D03*
X135850000Y-100500000D03*
X120800000Y-96700000D03*
X123000000Y-91300000D03*
X126200000Y-104948977D03*
X133600000Y-104000000D03*
X129800000Y-96000000D03*
X144850000Y-96000000D03*
X148600000Y-98250000D03*
X136600000Y-100500000D03*
X144850000Y-99000000D03*
X147100000Y-98250000D03*
X137350000Y-98250000D03*
X144100000Y-97500000D03*
X118100916Y-106476196D03*
X148600000Y-97500000D03*
X146350000Y-99750000D03*
X143350000Y-96750000D03*
X133600000Y-100500000D03*
X123500000Y-93600497D03*
X126800000Y-94400000D03*
X145600000Y-96750000D03*
X144850000Y-99750000D03*
X139600000Y-95250000D03*
X139590000Y-106800000D03*
X121390000Y-94100000D03*
D46*
X150600000Y-96500000D03*
D47*
X133850000Y-96000000D03*
X135850000Y-99750000D03*
X144850000Y-101250000D03*
X141850000Y-98250000D03*
X144550000Y-104050000D03*
X122700000Y-110300000D03*
X127400000Y-94800000D03*
X120049445Y-95791374D03*
X143350000Y-97500000D03*
X117850000Y-92900000D03*
X138850000Y-104000000D03*
X141100000Y-98250000D03*
X134350000Y-105500000D03*
X140350000Y-104000000D03*
X117200000Y-94000000D03*
X144100000Y-99000000D03*
X126200000Y-102450497D03*
X147100000Y-99750000D03*
X144850000Y-96750000D03*
X141100000Y-100500000D03*
%TO.N,+5VA*%
X125300000Y-100400000D03*
X118950000Y-91350000D03*
%TO.N,Net-(U2-VSEN+)*%
X132600000Y-111250000D03*
X129600000Y-112000000D03*
X134850000Y-112000000D03*
X147600000Y-113500000D03*
X146850000Y-112750000D03*
X134850000Y-112750000D03*
X128600000Y-109750000D03*
X131100000Y-112000000D03*
X146350000Y-110500000D03*
X133350000Y-112000000D03*
X140100000Y-112750000D03*
X131850000Y-109750000D03*
X146850000Y-113500000D03*
X147850000Y-111250000D03*
X137850000Y-113500000D03*
X147850000Y-110500000D03*
X144600000Y-109750000D03*
X140100000Y-113500000D03*
X147100000Y-110500000D03*
X121770332Y-110461723D03*
X136350000Y-113500000D03*
X134850000Y-113500000D03*
X138600000Y-112000000D03*
X146100000Y-113500000D03*
X132600000Y-112750000D03*
X141600000Y-113500000D03*
X131100000Y-113500000D03*
X144600000Y-113500000D03*
X131100000Y-112750000D03*
X134850000Y-111250000D03*
X145350000Y-113500000D03*
X131850000Y-112000000D03*
X128600000Y-110500000D03*
X132600000Y-110500000D03*
X137850000Y-112000000D03*
X137100000Y-113500000D03*
X143100000Y-113500000D03*
X130350000Y-112000000D03*
X147850000Y-109750000D03*
X133350000Y-109750000D03*
X130350000Y-110500000D03*
X133350000Y-112750000D03*
X142350000Y-113500000D03*
X146100000Y-112750000D03*
X143100000Y-112750000D03*
X134100000Y-112000000D03*
X138600000Y-109750000D03*
X129600000Y-109750000D03*
X131100000Y-110500000D03*
X142350000Y-109750000D03*
X132600000Y-113500000D03*
X142350000Y-112000000D03*
X130350000Y-112750000D03*
X146100000Y-112000000D03*
X140850000Y-109750000D03*
X131100000Y-111250000D03*
X133350000Y-111250000D03*
X141600000Y-109750000D03*
X134100000Y-109750000D03*
X129600000Y-112750000D03*
X132600000Y-112000000D03*
X147600000Y-112000000D03*
X135600000Y-112000000D03*
X134100000Y-110500000D03*
X134100000Y-112750000D03*
X136350000Y-111250000D03*
X139350000Y-113500000D03*
X143850000Y-109750000D03*
X131850000Y-110500000D03*
X139350000Y-112000000D03*
X129600000Y-110500000D03*
X128600000Y-112000000D03*
X146144500Y-106100000D03*
X144600000Y-112000000D03*
X128600000Y-113500000D03*
X145350000Y-112000000D03*
X131850000Y-112750000D03*
X134100000Y-111250000D03*
X145350000Y-109750000D03*
X143100000Y-109750000D03*
X143850000Y-112000000D03*
X131850000Y-111250000D03*
X143100000Y-112000000D03*
X137850000Y-109750000D03*
X146350000Y-111250000D03*
X132600000Y-109750000D03*
X137850000Y-112750000D03*
X147100000Y-109750000D03*
X147100000Y-111250000D03*
X140850000Y-112000000D03*
X131850000Y-113500000D03*
X140850000Y-113500000D03*
X140100000Y-112000000D03*
X129600000Y-113500000D03*
X133350000Y-110500000D03*
X137100000Y-112750000D03*
X136350000Y-112750000D03*
X130350000Y-109750000D03*
X141600000Y-112750000D03*
X140850000Y-112750000D03*
X142350000Y-112750000D03*
X138600000Y-113500000D03*
X139364224Y-112741396D03*
X130350000Y-111250000D03*
X137100000Y-112000000D03*
X143850000Y-112750000D03*
X134100000Y-113500000D03*
X130350000Y-113500000D03*
X139350000Y-109750000D03*
X144600000Y-112750000D03*
X138600000Y-112750000D03*
X131100000Y-109750000D03*
X146350000Y-109750000D03*
X128600000Y-112750000D03*
X129600000Y-111250000D03*
X141600000Y-112000000D03*
X146850000Y-112000000D03*
X135600000Y-113500000D03*
X136350000Y-112000000D03*
X139999503Y-109750000D03*
X145350000Y-112750000D03*
X123500000Y-94300000D03*
X147600000Y-112750000D03*
X135600000Y-111250000D03*
X135600000Y-112750000D03*
X128600000Y-111250000D03*
X133350000Y-113500000D03*
X143850000Y-113500000D03*
%TO.N,VCC*%
X141850000Y-93750000D03*
X127400000Y-99200000D03*
X144850000Y-90750000D03*
X132850000Y-90750000D03*
X138100000Y-92250000D03*
X149350000Y-92250000D03*
X145600000Y-92250000D03*
X135850000Y-90750000D03*
X144100000Y-93750000D03*
X147850000Y-93750000D03*
X138850000Y-90750000D03*
X148600000Y-93750000D03*
X136600000Y-90750000D03*
X144850000Y-91500000D03*
X141100000Y-92250000D03*
X130200000Y-93800000D03*
X144100000Y-92250000D03*
X136600000Y-92250000D03*
X142600000Y-92250000D03*
X141850000Y-92250000D03*
X144850000Y-93750000D03*
X138850000Y-92250000D03*
X132100000Y-93000000D03*
X135850000Y-92250000D03*
X138850000Y-91500000D03*
X146350000Y-93750000D03*
X140350000Y-90750000D03*
X149350000Y-93750000D03*
X148600000Y-91500000D03*
X130600000Y-90750000D03*
X144100000Y-93000000D03*
X137350000Y-90750000D03*
X129100000Y-90750000D03*
X147100000Y-91500000D03*
X143350000Y-93000000D03*
X148600000Y-90750000D03*
X142600000Y-93000000D03*
X133600000Y-90750000D03*
X135850000Y-91500000D03*
D46*
X150600000Y-93500000D03*
D47*
X132100000Y-91500000D03*
X147850000Y-92250000D03*
X144100000Y-90750000D03*
X145600000Y-93750000D03*
X135100000Y-90750000D03*
X129850000Y-90750000D03*
X131350000Y-91500000D03*
X149350000Y-90750000D03*
X143350000Y-92250000D03*
X145600000Y-90750000D03*
X132100000Y-92250000D03*
X135100000Y-92250000D03*
X146350000Y-90750000D03*
X141850000Y-93000000D03*
X145600000Y-93000000D03*
X134350000Y-92250000D03*
X134350000Y-91500000D03*
X145600000Y-91500000D03*
D46*
X150600000Y-90500000D03*
D47*
X144100000Y-91500000D03*
X137350000Y-91500000D03*
X147100000Y-93000000D03*
X128100000Y-93800000D03*
X129850000Y-91500000D03*
X133600000Y-92250000D03*
X133600000Y-91500000D03*
X134350000Y-90750000D03*
X137350000Y-92250000D03*
X143350000Y-93750000D03*
X138100000Y-91500000D03*
X142600000Y-91500000D03*
X140350000Y-91500000D03*
D46*
X150600000Y-92500000D03*
D47*
X147100000Y-93750000D03*
X132100000Y-90750000D03*
X128800000Y-93800000D03*
X139600000Y-92250000D03*
X146350000Y-92250000D03*
X143350000Y-91500000D03*
X147850000Y-93000000D03*
X132850000Y-91500000D03*
X129100000Y-91500000D03*
X140350000Y-92250000D03*
X142600000Y-93750000D03*
X149350000Y-91500000D03*
X148600000Y-92250000D03*
X144850000Y-93000000D03*
X149350000Y-93000000D03*
X141850000Y-90750000D03*
X146350000Y-91500000D03*
X143350000Y-90750000D03*
X141100000Y-91500000D03*
X142600000Y-90750000D03*
X141850000Y-91500000D03*
X148600000Y-93000000D03*
X139600000Y-90750000D03*
X146350000Y-93000000D03*
X131350000Y-90750000D03*
X147100000Y-90750000D03*
X139600000Y-91500000D03*
X147850000Y-91500000D03*
X129500000Y-93800000D03*
X141100000Y-90750000D03*
X144850000Y-92250000D03*
X130600000Y-91500000D03*
X138100000Y-90750000D03*
X135100000Y-91500000D03*
X136600000Y-91500000D03*
X147100000Y-92250000D03*
D46*
X150600000Y-91500000D03*
D47*
X147850000Y-90750000D03*
X132850000Y-92250000D03*
%TO.N,+3.3V*%
X118500000Y-102500000D03*
X118500000Y-94700000D03*
X119130000Y-110660000D03*
D46*
X116600000Y-104000000D03*
D47*
X123790000Y-106300000D03*
X121200000Y-93200000D03*
X123100000Y-98790000D03*
X123742333Y-102953937D03*
D46*
X116600000Y-104000000D03*
D47*
%TO.N,I2C0_SCL*%
X123809998Y-101226361D03*
X120200000Y-107900000D03*
D46*
X116600000Y-111500000D03*
%TO.N,UART_TXD*%
X116600000Y-105500000D03*
%TO.N,UART_RXD*%
X116600000Y-107000000D03*
D47*
%TO.N,I2C0_SDA*%
X123224500Y-101609109D03*
X120711349Y-108434212D03*
D46*
X116600000Y-113000000D03*
D47*
%TO.N,Net-(U3-Vin-)*%
X147300000Y-107400000D03*
X122200000Y-112700000D03*
%TO.N,Net-(U3-Vin+)*%
X148100000Y-107400000D03*
X122899503Y-112700000D03*
%TO.N,/VOUT*%
X148600000Y-104000000D03*
X148600000Y-104750000D03*
X148600000Y-106250000D03*
X149350000Y-103250000D03*
X147850000Y-102500000D03*
D46*
X150600000Y-103000000D03*
D47*
X147850000Y-104750000D03*
X147850000Y-105500000D03*
X147850000Y-101750000D03*
X147850000Y-104000000D03*
X149350000Y-102500000D03*
D46*
X150600000Y-106000000D03*
D47*
X149350000Y-104750000D03*
X148600000Y-102500000D03*
D46*
X150600000Y-105000000D03*
D47*
X148600000Y-103250000D03*
X147950497Y-101000000D03*
X149350000Y-104000000D03*
X147850000Y-106250000D03*
X149350000Y-106250000D03*
D46*
X150600000Y-101000000D03*
D47*
X147850000Y-103250000D03*
D46*
X150600000Y-102000000D03*
D47*
X149350000Y-105500000D03*
X148600000Y-101000000D03*
X149350000Y-101000000D03*
X148600000Y-101750000D03*
X148600000Y-105500000D03*
D46*
X150600000Y-104000000D03*
D47*
X149350000Y-101750000D03*
D46*
%TO.N,GPIO2*%
X116600000Y-108500000D03*
%TO.N,GPIO3*%
X116600000Y-110000000D03*
D47*
%TO.N,SWDIO*%
X122300000Y-98700000D03*
D46*
X116600000Y-95000000D03*
%TO.N,SWCLK*%
X116600000Y-96500000D03*
D47*
X121617128Y-98549500D03*
%TD*%
D48*
%TO.N,Net-(U1-NRST)*%
X120100000Y-99660000D02*
X119950000Y-99510000D01*
X120100000Y-101800000D02*
X120100000Y-99660000D01*
X119950000Y-99510000D02*
X119500000Y-99510000D01*
X120200000Y-101900000D02*
X120100000Y-101800000D01*
%TO.N,GNDA*%
X120600000Y-96110000D02*
X121780000Y-96110000D01*
X144100000Y-99500000D02*
X150475000Y-99500000D01*
X121990000Y-95900000D02*
X121990000Y-97400000D01*
X135525000Y-97150000D02*
X135525000Y-99200000D01*
X122000000Y-109810000D02*
X120840000Y-109810000D01*
D49*
X117325000Y-101975000D02*
X116800000Y-102500000D01*
D48*
X126000000Y-101275000D02*
X125645000Y-101630000D01*
D50*
X119100000Y-94268000D02*
X119100000Y-94890000D01*
D48*
X143500000Y-100100000D02*
X144100000Y-99500000D01*
D51*
X124100000Y-91400000D02*
X122300000Y-93200000D01*
D48*
X123900000Y-109810000D02*
X122000000Y-109810000D01*
X121990000Y-96490000D02*
X121990000Y-95000000D01*
X125645000Y-103900000D02*
X125395000Y-104150000D01*
X135525000Y-105300000D02*
X135525000Y-99200000D01*
X120050000Y-97100000D02*
X121690000Y-97100000D01*
X144000000Y-105950000D02*
X144000000Y-100600000D01*
X123400000Y-96600000D02*
X122100000Y-96600000D01*
D51*
X132525000Y-95075000D02*
X132211600Y-94761600D01*
D48*
X144250000Y-105700000D02*
X145400000Y-105700000D01*
X121780000Y-96110000D02*
X121990000Y-95900000D01*
X124494800Y-96200760D02*
X123799240Y-96200760D01*
X122300000Y-91800000D02*
X122300000Y-93200000D01*
X137300000Y-108475000D02*
X138000000Y-107775000D01*
X136500000Y-96175000D02*
X135525000Y-97150000D01*
X122200000Y-109610000D02*
X122000000Y-109810000D01*
X124494800Y-96200760D02*
X124926720Y-96200760D01*
X119510000Y-95300000D02*
X119790000Y-95300000D01*
X117325000Y-102000000D02*
X117325000Y-92175000D01*
X133700000Y-96175000D02*
X133000000Y-95475000D01*
D51*
X122300000Y-93200000D02*
X121990000Y-93510000D01*
D49*
X123799240Y-96200760D02*
X123400000Y-96600000D01*
D48*
X122100000Y-96600000D02*
X121990000Y-96490000D01*
X122200000Y-107100000D02*
X122200000Y-109610000D01*
D51*
X133000000Y-95075000D02*
X132525000Y-95075000D01*
D52*
X119100000Y-94890000D02*
X119510000Y-95300000D01*
D48*
X144000000Y-107775000D02*
X144000000Y-105950000D01*
X135000000Y-108475000D02*
X136250000Y-108475000D01*
X136250000Y-108475000D02*
X137300000Y-108475000D01*
X125645000Y-101630000D02*
X125645000Y-103900000D01*
X128400000Y-101275000D02*
X126000000Y-101275000D01*
X144000000Y-105950000D02*
X144250000Y-105700000D01*
X139500000Y-96175000D02*
X136500000Y-96175000D01*
D51*
X132211600Y-94761600D02*
X132211600Y-94730100D01*
D49*
X117325000Y-101500000D02*
X117325000Y-101975000D01*
D51*
X121990000Y-93510000D02*
X121990000Y-95000000D01*
D48*
X144000000Y-107775000D02*
X138000000Y-107775000D01*
D51*
X120625000Y-110025000D02*
X121200000Y-110600000D01*
D48*
X119790000Y-95300000D02*
X120600000Y-96110000D01*
X133000000Y-95475000D02*
X134250000Y-95475000D01*
X121690000Y-97100000D02*
X121990000Y-97400000D01*
X123500000Y-93600497D02*
X123598363Y-93698860D01*
X144000000Y-100600000D02*
X143500000Y-100100000D01*
D51*
X121200000Y-110600000D02*
X121200000Y-111500000D01*
D48*
X120840000Y-109810000D02*
X120625000Y-110025000D01*
X123598363Y-93698860D02*
X124494800Y-93698860D01*
X138000000Y-107775000D02*
X135525000Y-105300000D01*
D51*
X125600000Y-91400000D02*
X124100000Y-91400000D01*
D48*
X136500000Y-96175000D02*
X133700000Y-96175000D01*
%TO.N,Net-(U2-PVCC)*%
X127779020Y-97776900D02*
X127779020Y-98579020D01*
X127779020Y-98579020D02*
X128250000Y-99050000D01*
X128250000Y-99050000D02*
X128250000Y-99500000D01*
%TO.N,+5VA*%
X126780800Y-98459920D02*
X126780800Y-98639560D01*
X118590000Y-93487000D02*
X118635000Y-93532000D01*
X125785000Y-99725000D02*
X125000000Y-100510000D01*
X125920360Y-99500000D02*
X125750000Y-99500000D01*
D53*
X119675000Y-91300000D02*
X118460000Y-91300000D01*
D48*
X126780800Y-98639560D02*
X125920360Y-99500000D01*
D49*
X118590000Y-91710000D02*
X118590000Y-92400000D01*
D48*
X125975000Y-99725000D02*
X126000000Y-99725000D01*
X126000000Y-99725000D02*
X125785000Y-99725000D01*
D53*
X124800000Y-100510000D02*
X125190000Y-100510000D01*
D49*
X118560000Y-92430000D02*
X118560000Y-93532000D01*
D48*
X126780800Y-97701900D02*
X126780800Y-98384920D01*
D53*
X118460000Y-91300000D02*
X118410000Y-91250000D01*
D49*
X118590000Y-92400000D02*
X118560000Y-92430000D01*
D48*
X125300000Y-100400000D02*
X125975000Y-99725000D01*
D53*
X125190000Y-100510000D02*
X125300000Y-100400000D01*
D49*
X118950000Y-91350000D02*
X118590000Y-91710000D01*
D51*
%TO.N,Net-(C4-Pad1)*%
X127800000Y-90520000D02*
X126730000Y-90520000D01*
X126730000Y-90520000D02*
X126700000Y-90490000D01*
%TO.N,Net-(U2-PH)*%
X127779020Y-92698100D02*
X127779020Y-91500980D01*
X127779020Y-91500980D02*
X127800000Y-91480000D01*
D48*
%TO.N,Net-(U2-VSEN+)*%
X136250000Y-110025000D02*
X137300000Y-110025000D01*
D49*
X146144500Y-109514500D02*
X147115000Y-110485000D01*
D48*
X137300000Y-110025000D02*
X138000000Y-110725000D01*
D51*
X121700000Y-111500000D02*
X121700000Y-110600000D01*
D49*
X146144500Y-106100000D02*
X146144500Y-109514500D01*
D48*
X123623023Y-94199240D02*
X123607193Y-94215070D01*
X124494800Y-94199240D02*
X123623023Y-94199240D01*
D51*
X121800000Y-110491391D02*
X121770332Y-110461723D01*
D48*
X130250000Y-111550000D02*
X133475000Y-111550000D01*
X144235000Y-110725000D02*
X144000000Y-110725000D01*
D51*
X121700000Y-110600000D02*
X121800000Y-110500000D01*
D48*
X146875000Y-110725000D02*
X147115000Y-110485000D01*
X133475000Y-111550000D02*
X135000000Y-110025000D01*
D51*
X121800000Y-110500000D02*
X121800000Y-110491391D01*
D48*
X138000000Y-110725000D02*
X146875000Y-110725000D01*
X135000000Y-110025000D02*
X136250000Y-110025000D01*
%TO.N,VCC*%
X139500000Y-93225000D02*
X134950000Y-93225000D01*
D49*
X127400000Y-99200000D02*
X127200000Y-99400000D01*
X127200000Y-99400000D02*
X127200000Y-99725000D01*
D48*
X134250000Y-93925000D02*
X133000000Y-93925000D01*
X133000000Y-93925000D02*
X132525000Y-93925000D01*
D54*
X127400000Y-99200000D02*
X127281180Y-99081180D01*
D48*
X134950000Y-93225000D02*
X134250000Y-93925000D01*
D54*
X127281180Y-99081180D02*
X127281180Y-97701900D01*
D53*
%TO.N,+3.3V*%
X118450000Y-99975000D02*
X118875000Y-100400000D01*
D49*
X123925000Y-103700000D02*
X123925000Y-103136604D01*
D48*
X123300000Y-106000000D02*
X123840000Y-106000000D01*
D53*
X118875000Y-100400000D02*
X118875000Y-101500000D01*
D49*
X118600000Y-111190000D02*
X119130000Y-110660000D01*
D48*
X124110000Y-102900000D02*
X124200000Y-102810000D01*
X118600000Y-111425000D02*
X118675000Y-111500000D01*
X118875000Y-101500000D02*
X118875000Y-101775000D01*
X121190000Y-93190000D02*
X121200000Y-93200000D01*
X123790000Y-106880000D02*
X123900000Y-106990000D01*
X118490000Y-97090000D02*
X118500000Y-97100000D01*
D53*
X118500000Y-97100000D02*
X118450000Y-97150000D01*
D48*
X122900000Y-105600000D02*
X123300000Y-106000000D01*
D49*
X123925000Y-103136604D02*
X123742333Y-102953937D01*
D54*
X118875000Y-101775000D02*
X119500000Y-102400000D01*
D49*
X123925000Y-102807462D02*
X124111231Y-102621231D01*
D48*
X122710000Y-105600000D02*
X122900000Y-105600000D01*
D54*
X119220000Y-97820000D02*
X119220000Y-98290000D01*
D48*
X118875000Y-100275000D02*
X118875000Y-101300000D01*
X123790000Y-106300000D02*
X123790000Y-106880000D01*
D53*
X118875000Y-101500000D02*
X118875000Y-102125000D01*
X118875000Y-102125000D02*
X118500000Y-102500000D01*
D49*
X118490000Y-94413000D02*
X118635000Y-94268000D01*
X118600000Y-111425000D02*
X118600000Y-111190000D01*
D48*
X122900000Y-102900000D02*
X124110000Y-102900000D01*
D53*
X118490000Y-95300000D02*
X118490000Y-97090000D01*
D48*
X120600000Y-93190000D02*
X121190000Y-93190000D01*
X123840000Y-106250000D02*
X123790000Y-106300000D01*
D53*
X118450000Y-97150000D02*
X118450000Y-99975000D01*
D48*
X123840000Y-106000000D02*
X123840000Y-106250000D01*
D49*
X123925000Y-103700000D02*
X123925000Y-102807462D01*
D54*
X119500000Y-102400000D02*
X120300000Y-102400000D01*
D48*
X118675000Y-111500000D02*
X120700000Y-111500000D01*
D54*
X118500000Y-97100000D02*
X119220000Y-97820000D01*
D49*
X118490000Y-95300000D02*
X118490000Y-94413000D01*
D48*
%TO.N,Net-(C21-Pad1)*%
X133525000Y-98900000D02*
X132710000Y-98900000D01*
%TO.N,Net-(L1-Pad1)*%
X131740000Y-99200000D02*
X131740000Y-102460000D01*
X131740000Y-99200000D02*
X131740000Y-98416760D01*
X131740000Y-98416760D02*
X131521650Y-98198410D01*
X131740000Y-102460000D02*
X130250000Y-103950000D01*
%TO.N,~{PWR_EN}*%
X125495000Y-105400000D02*
X125295000Y-105600000D01*
D51*
X123630000Y-105380000D02*
X124590000Y-105380000D01*
X123000000Y-103900000D02*
X123100000Y-104000000D01*
X124760000Y-105610000D02*
X124760000Y-105750000D01*
X123100000Y-104000000D02*
X123100000Y-104850000D01*
D48*
X124810000Y-105600000D02*
X124635000Y-105425000D01*
D51*
X123100000Y-104850000D02*
X123630000Y-105380000D01*
D48*
X125295000Y-105600000D02*
X124810000Y-105600000D01*
D51*
X124590000Y-105380000D02*
X124635000Y-105425000D01*
%TO.N,Net-(Q1-D)*%
X124300000Y-100874462D02*
X124720000Y-101294462D01*
D48*
X126280420Y-98503544D02*
X125883964Y-98900000D01*
D51*
X124720000Y-101294462D02*
X124720000Y-103096304D01*
X124300000Y-100100000D02*
X124300000Y-100874462D01*
X124720000Y-103096304D02*
X124750000Y-103126304D01*
D48*
X126280420Y-97701900D02*
X126280420Y-98503544D01*
X125400000Y-98900000D02*
X125000948Y-99299052D01*
D51*
X124910000Y-99490000D02*
X124300000Y-100100000D01*
D48*
X125883964Y-98900000D02*
X125400000Y-98900000D01*
D51*
X124750000Y-104355000D02*
X124405000Y-104700000D01*
X125000000Y-99490000D02*
X124910000Y-99490000D01*
X124750000Y-103126304D02*
X124750000Y-104355000D01*
D48*
X125000948Y-99299052D02*
X125000948Y-99465000D01*
%TO.N,Net-(U1-BOOT0)*%
X121600000Y-101600000D02*
X121600000Y-100780000D01*
X121600000Y-100780000D02*
X121510000Y-100690000D01*
%TO.N,Net-(U2-RT{slash}SYNC)*%
X123300000Y-97400000D02*
X123010000Y-97400000D01*
X124494800Y-96701140D02*
X123998860Y-96701140D01*
X123998860Y-96701140D02*
X123300000Y-97400000D01*
%TO.N,Net-(U2-VSET)*%
X123084280Y-96100000D02*
X123010000Y-96100000D01*
X123483900Y-95700380D02*
X123084280Y-96100000D01*
X124494800Y-95700380D02*
X123483900Y-95700380D01*
%TO.N,Net-(U2-ADDR)*%
X124494800Y-95200000D02*
X123010000Y-95200000D01*
D51*
%TO.N,Net-(U2-BOOT)*%
X126780800Y-91590800D02*
X126700000Y-91510000D01*
X126780800Y-92698100D02*
X126780800Y-91590800D01*
D48*
%TO.N,~{SENSOR_ALERT}*%
X122600000Y-104925000D02*
X122600000Y-104300000D01*
X121700000Y-105825000D02*
X122600000Y-104925000D01*
X121700000Y-107100000D02*
X121700000Y-105825000D01*
%TO.N,Net-(U4-EN)*%
X119610000Y-93487000D02*
X119565000Y-93532000D01*
X119610000Y-92400000D02*
X119610000Y-93487000D01*
%TO.N,Net-(U4-ADJ)*%
X120600000Y-94210000D02*
X120600000Y-94890000D01*
X120600000Y-94210000D02*
X119623000Y-94210000D01*
X119623000Y-94210000D02*
X119565000Y-94268000D01*
%TO.N,I2C0_SCL*%
X123705000Y-99695000D02*
X123705000Y-100800000D01*
X120700000Y-107550000D02*
X120350000Y-107900000D01*
X123705000Y-100800000D02*
X123705000Y-101295000D01*
X125780040Y-98219960D02*
X125550000Y-98450000D01*
D51*
X123385124Y-102400000D02*
X124100000Y-101685124D01*
D48*
X124950000Y-98450000D02*
X123705000Y-99695000D01*
X116800000Y-111300000D02*
X116725000Y-111375000D01*
D55*
X124100000Y-101685124D02*
X124100000Y-101590000D01*
D51*
X122900000Y-102400000D02*
X123385124Y-102400000D01*
D48*
X125780040Y-97701900D02*
X125780040Y-98219960D01*
X120700000Y-107100000D02*
X120700000Y-107550000D01*
D51*
X124100000Y-101590000D02*
X124100000Y-101671076D01*
D48*
X119300000Y-108800000D02*
X116725000Y-111375000D01*
X120200000Y-107900000D02*
X119300000Y-108800000D01*
D54*
X116750000Y-111400000D02*
X116750000Y-111500000D01*
D48*
X116725000Y-111375000D02*
X116725000Y-111500000D01*
X120350000Y-107900000D02*
X120200000Y-107900000D01*
D51*
X122900000Y-102400000D02*
X123250000Y-102400000D01*
D48*
X125550000Y-98450000D02*
X124950000Y-98450000D01*
D51*
%TO.N,UART_TXD*%
X117600000Y-105500000D02*
X116700000Y-105500000D01*
X120200000Y-103900000D02*
X119200000Y-103900000D01*
X119200000Y-103900000D02*
X117600000Y-105500000D01*
%TO.N,UART_RXD*%
X116700000Y-106500000D02*
X116700000Y-107000000D01*
X120600000Y-104300000D02*
X120400000Y-104500000D01*
X119300000Y-104500000D02*
X117700000Y-106100000D01*
X117100000Y-106100000D02*
X116700000Y-106500000D01*
X117700000Y-106100000D02*
X117100000Y-106100000D01*
X120400000Y-104500000D02*
X119300000Y-104500000D01*
D48*
%TO.N,PWR_ALERT*%
X124494800Y-97198980D02*
X124301020Y-97198980D01*
D55*
X121090500Y-98009500D02*
X120750000Y-98350000D01*
D48*
X124494800Y-97198980D02*
X124494800Y-97355200D01*
X124494800Y-97355200D02*
X123805000Y-98045000D01*
D55*
X120750000Y-98350000D02*
X120750000Y-100764876D01*
D48*
X123805000Y-98045000D02*
X122250000Y-98045000D01*
D55*
X120750000Y-100764876D02*
X121100000Y-101114876D01*
X123309500Y-98009500D02*
X121090500Y-98009500D01*
X121100000Y-101114876D02*
X121100000Y-101600000D01*
D48*
%TO.N,I2C0_SDA*%
X123000000Y-101900000D02*
X123200000Y-101700000D01*
X123200000Y-99563604D02*
X124763604Y-98000000D01*
X125279660Y-97820340D02*
X125279660Y-97701900D01*
X123200000Y-101700000D02*
X123200000Y-99563604D01*
X117600000Y-112125000D02*
X116725000Y-113000000D01*
X120617764Y-108475000D02*
X120261396Y-108475000D01*
X120261396Y-108475000D02*
X117600000Y-111136396D01*
X121200000Y-107100000D02*
X121200000Y-107892764D01*
X121200000Y-107892764D02*
X120617764Y-108475000D01*
X117600000Y-111136396D02*
X117600000Y-112125000D01*
X125100000Y-98000000D02*
X125279660Y-97820340D01*
X124763604Y-98000000D02*
X125100000Y-98000000D01*
%TO.N,Net-(U3-Vin-)*%
X122200000Y-111500000D02*
X122200000Y-112672356D01*
X146800000Y-104950000D02*
X146480000Y-104630000D01*
X147300000Y-107200000D02*
X146800000Y-106700000D01*
X147300000Y-107400000D02*
X147300000Y-107200000D01*
X146480000Y-104630000D02*
X146480000Y-104070000D01*
X122200000Y-112672356D02*
X122188419Y-112683937D01*
X146800000Y-106700000D02*
X146800000Y-104950000D01*
D54*
%TO.N,Net-(U3-Vin+)*%
X122700000Y-111500000D02*
X122700000Y-112328120D01*
X122700000Y-112328120D02*
X122899503Y-112527623D01*
D48*
X148100000Y-107400000D02*
X149020000Y-108320000D01*
D54*
X122899503Y-112527623D02*
X122899503Y-112700000D01*
D48*
X149020000Y-108320000D02*
X149020000Y-110930000D01*
%TO.N,Net-(U3-A1)*%
X122700000Y-107800000D02*
X122910000Y-108010000D01*
X122700000Y-107100000D02*
X122700000Y-107800000D01*
X123900000Y-108790000D02*
X123900000Y-108010000D01*
X122910000Y-108010000D02*
X123900000Y-108010000D01*
%TO.N,GPIO2*%
X117334620Y-108500000D02*
X116725000Y-108500000D01*
X121100000Y-104200000D02*
X121100000Y-104734620D01*
X121100000Y-104734620D02*
X117334620Y-108500000D01*
%TO.N,GPIO3*%
X116725000Y-109746016D02*
X116725000Y-109875000D01*
X116725000Y-109875000D02*
X116725000Y-110000000D01*
X121600000Y-104200000D02*
X121600000Y-104871016D01*
X121600000Y-104871016D02*
X116725000Y-109746016D01*
D51*
%TO.N,SWDIO*%
X122480000Y-98880000D02*
X122300000Y-98700000D01*
X122600000Y-100248924D02*
X122480000Y-100128924D01*
D48*
X122400000Y-98800000D02*
X122300000Y-98700000D01*
D51*
X122600000Y-101500000D02*
X122600000Y-100248924D01*
X122480000Y-100128924D02*
X122480000Y-98880000D01*
%TO.N,SWCLK*%
X122080000Y-99257818D02*
X122080000Y-101580000D01*
X121617128Y-98549500D02*
X121617128Y-98794946D01*
X121617128Y-98794946D02*
X122080000Y-99257818D01*
X122080000Y-101580000D02*
X122100000Y-101600000D01*
%TD*%
%TA.AperFunction,Conductor*%
%TO.N,Net-(U2-VSEN+)*%
G36*
X148143039Y-109419685D02*
G01*
X148188794Y-109472489D01*
X148200000Y-109524000D01*
X148200000Y-113676000D01*
X148180315Y-113743039D01*
X148127511Y-113788794D01*
X148076000Y-113800000D01*
X128124000Y-113800000D01*
X128056961Y-113780315D01*
X128011206Y-113727511D01*
X128000000Y-113676000D01*
X128000000Y-109524000D01*
X128019685Y-109456961D01*
X128072489Y-109411206D01*
X128124000Y-109400000D01*
X148076000Y-109400000D01*
X148143039Y-109419685D01*
G37*
%TD.AperFunction*%
%TD*%
%TA.AperFunction,Conductor*%
%TO.N,/VOUT*%
G36*
X150542386Y-100594768D02*
G01*
X150588218Y-100647505D01*
X150599500Y-100699182D01*
X150599500Y-106376000D01*
X150579815Y-106443039D01*
X150527011Y-106488794D01*
X150475500Y-106500000D01*
X147324000Y-106500000D01*
X147256961Y-106480315D01*
X147211206Y-106427511D01*
X147200000Y-106376000D01*
X147200000Y-100703817D01*
X147219685Y-100636778D01*
X147272489Y-100591023D01*
X147323813Y-100579817D01*
X150475322Y-100575183D01*
X150542386Y-100594768D01*
G37*
%TD.AperFunction*%
%TD*%
%TA.AperFunction,Conductor*%
%TO.N,GNDA*%
G36*
X128887539Y-100519685D02*
G01*
X128933294Y-100572489D01*
X128944500Y-100624000D01*
X128944500Y-101876000D01*
X128924815Y-101943039D01*
X128872011Y-101988794D01*
X128820500Y-102000000D01*
X126000000Y-102000000D01*
X126000000Y-100500000D01*
X127199999Y-100500000D01*
X128820500Y-100500000D01*
X128887539Y-100519685D01*
G37*
%TD.AperFunction*%
%TD*%
%TA.AperFunction,Conductor*%
%TO.N,GNDA*%
G36*
X126643330Y-100260927D02*
G01*
X126687681Y-100289429D01*
X126696780Y-100298528D01*
X126816874Y-100359719D01*
X126816876Y-100359719D01*
X126816878Y-100359720D01*
X126916507Y-100375500D01*
X127075990Y-100375500D01*
X127143029Y-100395185D01*
X127188784Y-100447989D01*
X127199983Y-100498318D01*
X127200000Y-100500000D01*
X126000000Y-100500000D01*
X126000000Y-102000000D01*
X126520000Y-102000000D01*
X126520000Y-113866124D01*
X126500315Y-113933163D01*
X126447511Y-113978918D01*
X126396125Y-113990124D01*
X117324125Y-113999269D01*
X117257066Y-113979652D01*
X117211258Y-113926894D01*
X117200000Y-113875269D01*
X117200000Y-113047225D01*
X117200531Y-113039125D01*
X117203274Y-113018288D01*
X117231539Y-112954392D01*
X117238520Y-112946804D01*
X117818204Y-112367120D01*
X117822166Y-112363489D01*
X117853194Y-112337455D01*
X117873438Y-112302390D01*
X117876335Y-112297841D01*
X117899554Y-112264684D01*
X117899554Y-112264681D01*
X117901819Y-112259824D01*
X117908747Y-112243099D01*
X117910584Y-112238050D01*
X117910588Y-112238045D01*
X117917619Y-112198162D01*
X117918777Y-112192940D01*
X117929264Y-112153807D01*
X117926726Y-112124796D01*
X117940492Y-112056297D01*
X117989107Y-112006114D01*
X118057136Y-111990180D01*
X118106542Y-112003502D01*
X118216874Y-112059719D01*
X118216876Y-112059719D01*
X118216878Y-112059720D01*
X118316507Y-112075500D01*
X118316512Y-112075500D01*
X118883493Y-112075500D01*
X118983121Y-112059720D01*
X118983121Y-112059719D01*
X118983126Y-112059719D01*
X119093708Y-112003374D01*
X119162374Y-111990479D01*
X119206289Y-112003373D01*
X119316874Y-112059719D01*
X119316876Y-112059719D01*
X119316878Y-112059720D01*
X119416507Y-112075500D01*
X119416512Y-112075500D01*
X119983493Y-112075500D01*
X120083121Y-112059720D01*
X120083121Y-112059719D01*
X120083126Y-112059719D01*
X120169209Y-112015857D01*
X120237875Y-112002962D01*
X120302616Y-112029238D01*
X120342873Y-112086345D01*
X120349501Y-112126343D01*
X120349501Y-112177132D01*
X120361617Y-112238047D01*
X120365485Y-112257495D01*
X120426375Y-112348624D01*
X120448250Y-112363240D01*
X120517505Y-112409515D01*
X120517508Y-112409515D01*
X120517509Y-112409516D01*
X120544533Y-112414891D01*
X120597867Y-112425500D01*
X120802132Y-112425499D01*
X120882495Y-112409515D01*
X120973624Y-112348624D01*
X121034515Y-112257495D01*
X121050500Y-112177133D01*
X121050499Y-110822868D01*
X121034515Y-110742505D01*
X121007458Y-110702011D01*
X120973624Y-110651375D01*
X120918995Y-110614874D01*
X120882495Y-110590485D01*
X120882493Y-110590484D01*
X120882490Y-110590483D01*
X120802135Y-110574500D01*
X120597870Y-110574500D01*
X120517504Y-110590485D01*
X120426375Y-110651375D01*
X120365485Y-110742505D01*
X120365483Y-110742508D01*
X120362829Y-110755854D01*
X120330443Y-110817764D01*
X120269727Y-110852338D01*
X120199958Y-110848597D01*
X120184918Y-110842146D01*
X120083123Y-110790279D01*
X119983493Y-110774500D01*
X119983488Y-110774500D01*
X119709042Y-110774500D01*
X119642003Y-110754815D01*
X119596248Y-110702011D01*
X119586304Y-110668147D01*
X119575602Y-110593714D01*
X119566697Y-110531774D01*
X119534705Y-110461723D01*
X121315199Y-110461723D01*
X121333634Y-110589948D01*
X121361050Y-110649979D01*
X121370994Y-110719138D01*
X121367858Y-110730571D01*
X121349500Y-110822862D01*
X121349500Y-112177129D01*
X121365485Y-112257495D01*
X121426375Y-112348624D01*
X121448250Y-112363240D01*
X121517505Y-112409515D01*
X121517508Y-112409515D01*
X121517509Y-112409516D01*
X121557686Y-112417507D01*
X121597867Y-112425500D01*
X121641229Y-112425499D01*
X121708267Y-112445182D01*
X121754023Y-112497985D01*
X121763968Y-112567144D01*
X121763968Y-112567146D01*
X121744867Y-112699999D01*
X121763302Y-112828225D01*
X121817117Y-112946061D01*
X121817118Y-112946063D01*
X121901951Y-113043967D01*
X122010931Y-113114004D01*
X122135225Y-113150499D01*
X122135227Y-113150500D01*
X122135228Y-113150500D01*
X122264773Y-113150500D01*
X122264773Y-113150499D01*
X122389069Y-113114004D01*
X122482713Y-113053822D01*
X122549752Y-113034139D01*
X122616790Y-113053823D01*
X122710434Y-113114004D01*
X122834728Y-113150499D01*
X122834730Y-113150500D01*
X122834731Y-113150500D01*
X122964276Y-113150500D01*
X122964276Y-113150499D01*
X123088572Y-113114004D01*
X123197552Y-113043967D01*
X123282385Y-112946063D01*
X123336200Y-112828226D01*
X123354636Y-112700000D01*
X123336200Y-112571774D01*
X123282385Y-112453937D01*
X123226969Y-112389983D01*
X123209283Y-112363240D01*
X123188705Y-112321145D01*
X123184422Y-112315147D01*
X123179922Y-112309366D01*
X123142227Y-112274664D01*
X123086819Y-112219256D01*
X123053334Y-112157933D01*
X123050500Y-112131575D01*
X123050500Y-111466796D01*
X123050499Y-111466778D01*
X123050499Y-110822870D01*
X123050499Y-110822868D01*
X123034515Y-110742505D01*
X123007458Y-110702011D01*
X122973624Y-110651375D01*
X122918995Y-110614874D01*
X122882495Y-110590485D01*
X122882493Y-110590484D01*
X122882490Y-110590483D01*
X122802135Y-110574500D01*
X122597870Y-110574500D01*
X122537867Y-110586434D01*
X122517505Y-110590485D01*
X122517504Y-110590485D01*
X122517501Y-110590486D01*
X122506220Y-110595159D01*
X122505621Y-110593714D01*
X122452204Y-110610436D01*
X122394061Y-110594481D01*
X122393781Y-110595159D01*
X122388383Y-110592923D01*
X122384825Y-110591947D01*
X122382648Y-110590547D01*
X122382495Y-110590484D01*
X122325273Y-110579102D01*
X122263362Y-110546717D01*
X122228788Y-110486001D01*
X122226977Y-110470464D01*
X122226727Y-110470501D01*
X122207029Y-110333497D01*
X122193029Y-110302841D01*
X122153214Y-110215660D01*
X122068381Y-110117756D01*
X121959401Y-110047719D01*
X121959397Y-110047717D01*
X121959396Y-110047717D01*
X121835106Y-110011223D01*
X121835104Y-110011223D01*
X121705560Y-110011223D01*
X121705558Y-110011223D01*
X121581267Y-110047717D01*
X121581264Y-110047718D01*
X121581263Y-110047719D01*
X121530009Y-110080657D01*
X121472282Y-110117756D01*
X121387450Y-110215660D01*
X121387449Y-110215661D01*
X121333634Y-110333497D01*
X121315199Y-110461723D01*
X119534705Y-110461723D01*
X119512882Y-110413937D01*
X119428049Y-110316033D01*
X119319069Y-110245996D01*
X119319065Y-110245994D01*
X119319064Y-110245994D01*
X119234857Y-110221269D01*
X119176079Y-110183495D01*
X119147053Y-110119940D01*
X119156996Y-110050781D01*
X119182107Y-110014614D01*
X120345836Y-108850886D01*
X120407157Y-108817403D01*
X120476849Y-108822387D01*
X120500549Y-108834250D01*
X120522280Y-108848216D01*
X120646574Y-108884711D01*
X120646576Y-108884712D01*
X120646577Y-108884712D01*
X120776122Y-108884712D01*
X120776122Y-108884711D01*
X120900418Y-108848216D01*
X121009398Y-108778179D01*
X121094231Y-108680275D01*
X121148046Y-108562438D01*
X121166482Y-108434212D01*
X121166481Y-108434211D01*
X121167744Y-108425433D01*
X121170065Y-108425766D01*
X121186167Y-108370930D01*
X121202801Y-108350288D01*
X121243537Y-108309552D01*
X121418215Y-108134873D01*
X121422166Y-108131253D01*
X121453194Y-108105219D01*
X121464952Y-108084852D01*
X121515518Y-108036636D01*
X121584125Y-108023412D01*
X121596530Y-108025234D01*
X121597867Y-108025500D01*
X121802132Y-108025499D01*
X121882495Y-108009515D01*
X121973624Y-107948624D01*
X122034515Y-107857495D01*
X122050500Y-107777133D01*
X122050499Y-106422868D01*
X122037410Y-106357061D01*
X122043639Y-106287471D01*
X122086502Y-106232294D01*
X122106624Y-106220490D01*
X122120404Y-106214065D01*
X122204065Y-106130404D01*
X122204065Y-106130403D01*
X122211736Y-106122733D01*
X122214564Y-106125561D01*
X122252977Y-106094843D01*
X122322474Y-106087635D01*
X122384835Y-106119143D01*
X122388093Y-106122903D01*
X122388264Y-106122733D01*
X122390679Y-106125148D01*
X122391771Y-106127147D01*
X122401590Y-106138480D01*
X122402173Y-106139313D01*
X122399453Y-106141216D01*
X122424164Y-106186471D01*
X122419180Y-106256163D01*
X122406101Y-106281719D01*
X122365484Y-106342506D01*
X122365483Y-106342509D01*
X122349500Y-106422862D01*
X122349500Y-107777130D01*
X122365484Y-107857493D01*
X122365484Y-107857494D01*
X122365485Y-107857495D01*
X122370196Y-107864546D01*
X122385591Y-107902890D01*
X122385702Y-107902850D01*
X122386925Y-107906212D01*
X122389211Y-107911904D01*
X122389411Y-107913042D01*
X122391241Y-107918070D01*
X122398197Y-107934861D01*
X122400445Y-107939681D01*
X122400446Y-107939684D01*
X122406706Y-107948624D01*
X122423655Y-107972831D01*
X122426561Y-107977392D01*
X122446806Y-108012455D01*
X122477815Y-108038475D01*
X122481805Y-108042131D01*
X122667863Y-108228189D01*
X122671518Y-108232178D01*
X122697541Y-108263190D01*
X122697543Y-108263191D01*
X122697545Y-108263194D01*
X122697547Y-108263195D01*
X122697548Y-108263196D01*
X122732599Y-108283433D01*
X122737162Y-108286339D01*
X122770316Y-108309554D01*
X122770319Y-108309554D01*
X122775176Y-108311820D01*
X122791933Y-108318760D01*
X122796953Y-108320587D01*
X122796955Y-108320588D01*
X122832806Y-108326909D01*
X122836808Y-108327615D01*
X122842080Y-108328783D01*
X122881193Y-108339264D01*
X122921522Y-108335735D01*
X122926924Y-108335500D01*
X123299161Y-108335500D01*
X123366200Y-108355185D01*
X123411955Y-108407989D01*
X123421899Y-108477147D01*
X123411543Y-108511905D01*
X123385931Y-108566828D01*
X123379500Y-108615683D01*
X123379500Y-108964316D01*
X123385931Y-109013171D01*
X123385932Y-109013173D01*
X123435935Y-109120404D01*
X123519596Y-109204065D01*
X123626827Y-109254068D01*
X123675683Y-109260500D01*
X123675684Y-109260500D01*
X124124317Y-109260500D01*
X124140601Y-109258356D01*
X124173173Y-109254068D01*
X124280404Y-109204065D01*
X124364065Y-109120404D01*
X124414068Y-109013173D01*
X124420500Y-108964316D01*
X124420500Y-108615684D01*
X124414068Y-108566827D01*
X124364065Y-108459596D01*
X124364063Y-108459594D01*
X124360711Y-108452405D01*
X124350219Y-108383328D01*
X124360711Y-108347595D01*
X124364063Y-108340405D01*
X124364065Y-108340404D01*
X124414068Y-108233173D01*
X124420500Y-108184316D01*
X124420500Y-107835684D01*
X124414068Y-107786827D01*
X124364065Y-107679596D01*
X124280404Y-107595935D01*
X124272733Y-107588264D01*
X124275561Y-107585435D01*
X124244843Y-107547023D01*
X124237635Y-107477526D01*
X124269143Y-107415165D01*
X124272903Y-107411906D01*
X124272733Y-107411736D01*
X124291930Y-107392539D01*
X124364065Y-107320404D01*
X124414068Y-107213173D01*
X124420500Y-107164316D01*
X124420500Y-106815684D01*
X124414068Y-106766827D01*
X124364065Y-106659596D01*
X124280404Y-106575935D01*
X124280401Y-106575933D01*
X124272822Y-106570627D01*
X124229196Y-106516051D01*
X124222002Y-106446553D01*
X124224964Y-106434127D01*
X124226279Y-106429647D01*
X124249492Y-106390529D01*
X124247803Y-106389348D01*
X124248387Y-106388513D01*
X124252770Y-106385004D01*
X124257599Y-106376869D01*
X124261756Y-106372714D01*
X124264588Y-106375547D01*
X124302940Y-106344858D01*
X124372434Y-106337627D01*
X124434806Y-106369116D01*
X124438091Y-106372905D01*
X124438264Y-106372733D01*
X124445935Y-106380404D01*
X124529596Y-106464065D01*
X124636827Y-106514068D01*
X124685683Y-106520500D01*
X124685684Y-106520500D01*
X125034317Y-106520500D01*
X125050601Y-106518356D01*
X125083173Y-106514068D01*
X125190404Y-106464065D01*
X125274065Y-106380404D01*
X125324068Y-106273173D01*
X125330500Y-106224316D01*
X125330500Y-106025637D01*
X125350185Y-105958598D01*
X125398868Y-105916413D01*
X125398640Y-105916018D01*
X125400693Y-105914831D01*
X125402989Y-105912843D01*
X125412093Y-105909114D01*
X125413102Y-105908746D01*
X125429824Y-105901819D01*
X125434681Y-105899554D01*
X125434684Y-105899554D01*
X125467841Y-105876335D01*
X125472390Y-105873438D01*
X125507455Y-105853194D01*
X125533476Y-105822181D01*
X125537128Y-105818197D01*
X125568508Y-105786817D01*
X125629832Y-105753333D01*
X125656188Y-105750500D01*
X125769750Y-105750500D01*
X125769751Y-105750499D01*
X125784568Y-105747552D01*
X125828229Y-105738868D01*
X125828229Y-105738867D01*
X125828231Y-105738867D01*
X125894552Y-105694552D01*
X125938867Y-105628231D01*
X125938867Y-105628229D01*
X125938868Y-105628229D01*
X125950499Y-105569752D01*
X125950500Y-105569750D01*
X125950500Y-105130249D01*
X125950499Y-105130247D01*
X125938868Y-105071770D01*
X125938867Y-105071769D01*
X125894552Y-105005447D01*
X125828230Y-104961132D01*
X125828229Y-104961131D01*
X125769752Y-104949500D01*
X125769748Y-104949500D01*
X125220252Y-104949500D01*
X125220247Y-104949500D01*
X125161770Y-104961131D01*
X125161769Y-104961132D01*
X125095447Y-105005447D01*
X125051132Y-105071769D01*
X125044970Y-105102747D01*
X125012584Y-105164658D01*
X124951868Y-105199231D01*
X124882098Y-105195490D01*
X124849935Y-105177132D01*
X124849463Y-105177807D01*
X124774686Y-105125447D01*
X124774685Y-105125446D01*
X124774684Y-105125446D01*
X124754828Y-105120125D01*
X124716837Y-105102643D01*
X124714410Y-105100980D01*
X124670234Y-105046848D01*
X124660500Y-104998689D01*
X124660500Y-104920832D01*
X124680185Y-104853793D01*
X124696815Y-104833155D01*
X124918059Y-104611910D01*
X124924532Y-104606279D01*
X124934224Y-104598959D01*
X124934228Y-104598958D01*
X124966459Y-104563600D01*
X124968367Y-104561602D01*
X124982174Y-104547797D01*
X124983684Y-104545592D01*
X124989023Y-104538851D01*
X124990489Y-104537242D01*
X125009916Y-104515933D01*
X125012416Y-104509478D01*
X125025750Y-104484183D01*
X125029656Y-104478481D01*
X125029655Y-104478481D01*
X125029657Y-104478480D01*
X125036757Y-104448291D01*
X125039291Y-104440106D01*
X125050500Y-104411173D01*
X125050500Y-104404248D01*
X125053795Y-104375855D01*
X125055378Y-104369123D01*
X125055379Y-104369119D01*
X125051095Y-104338408D01*
X125050500Y-104329833D01*
X125050500Y-103189142D01*
X125051095Y-103180566D01*
X125052771Y-103168543D01*
X125052773Y-103168539D01*
X125050566Y-103120794D01*
X125050500Y-103117931D01*
X125050500Y-103098463D01*
X125050499Y-103098457D01*
X125050009Y-103095837D01*
X125049016Y-103087284D01*
X125047585Y-103056312D01*
X125044786Y-103049974D01*
X125036333Y-103022679D01*
X125035061Y-103015871D01*
X125035059Y-103015867D01*
X125030909Y-103005152D01*
X125033853Y-103004011D01*
X125020500Y-102957072D01*
X125020500Y-101357301D01*
X125021095Y-101348725D01*
X125022771Y-101336702D01*
X125022773Y-101336698D01*
X125020566Y-101288953D01*
X125020500Y-101286090D01*
X125020500Y-101266621D01*
X125020499Y-101266615D01*
X125020009Y-101263995D01*
X125019016Y-101255442D01*
X125017585Y-101224471D01*
X125014788Y-101218138D01*
X125006332Y-101190832D01*
X125005061Y-101184029D01*
X124991019Y-101161351D01*
X124972463Y-101093993D01*
X124993270Y-101027293D01*
X125046835Y-100982431D01*
X125064309Y-100977572D01*
X125064062Y-100976724D01*
X125073167Y-100974068D01*
X125073173Y-100974068D01*
X125077355Y-100972117D01*
X125129759Y-100960500D01*
X125161217Y-100960500D01*
X125168155Y-100960889D01*
X125200050Y-100964483D01*
X125207034Y-100965270D01*
X125207034Y-100965269D01*
X125207035Y-100965270D01*
X125265479Y-100954211D01*
X125324287Y-100945348D01*
X125324290Y-100945346D01*
X125332447Y-100942830D01*
X125340469Y-100940023D01*
X125340472Y-100940023D01*
X125393072Y-100912222D01*
X125446642Y-100886425D01*
X125446642Y-100886424D01*
X125446644Y-100886424D01*
X125453695Y-100881616D01*
X125460538Y-100876566D01*
X125502600Y-100834503D01*
X125541475Y-100798433D01*
X125546194Y-100794055D01*
X125546196Y-100794050D01*
X125551987Y-100786790D01*
X125552643Y-100787313D01*
X125562032Y-100775070D01*
X125574878Y-100762224D01*
X125595519Y-100745592D01*
X125598049Y-100743967D01*
X125628477Y-100708850D01*
X125631497Y-100705607D01*
X125636595Y-100700508D01*
X125642425Y-100694679D01*
X125650567Y-100683645D01*
X125653602Y-100679852D01*
X125682882Y-100646063D01*
X125684950Y-100641532D01*
X125697974Y-100619409D01*
X125702792Y-100612883D01*
X125717443Y-100571011D01*
X125719560Y-100565747D01*
X125736697Y-100528226D01*
X125737968Y-100519382D01*
X125743662Y-100496082D01*
X125747646Y-100484700D01*
X125747646Y-100484695D01*
X125749208Y-100476444D01*
X125781014Y-100414234D01*
X125841405Y-100379095D01*
X125871046Y-100375500D01*
X126283493Y-100375500D01*
X126383121Y-100359720D01*
X126383121Y-100359719D01*
X126383126Y-100359719D01*
X126503220Y-100298528D01*
X126512318Y-100289429D01*
X126573638Y-100255945D01*
X126643330Y-100260927D01*
G37*
%TD.AperFunction*%
%TA.AperFunction,Conductor*%
G36*
X120268834Y-106765021D02*
G01*
X120324767Y-106806893D01*
X120349184Y-106872357D01*
X120349500Y-106881203D01*
X120349500Y-107325500D01*
X120329815Y-107392539D01*
X120277011Y-107438294D01*
X120225500Y-107449500D01*
X120135226Y-107449500D01*
X120010935Y-107485994D01*
X120010932Y-107485995D01*
X120010931Y-107485996D01*
X119959677Y-107518934D01*
X119901950Y-107556033D01*
X119817118Y-107653937D01*
X119817117Y-107653938D01*
X119763303Y-107771772D01*
X119763302Y-107771777D01*
X119751612Y-107853083D01*
X119722587Y-107916639D01*
X119716555Y-107923117D01*
X119089972Y-108549702D01*
X117411681Y-110227993D01*
X117350358Y-110261478D01*
X117280666Y-110256494D01*
X117224733Y-110214622D01*
X117200316Y-110149158D01*
X117200000Y-110140312D01*
X117200000Y-110047225D01*
X117200531Y-110039124D01*
X117205682Y-110000000D01*
X117205682Y-109999999D01*
X117200531Y-109960875D01*
X117200000Y-109952773D01*
X117200000Y-109782703D01*
X117219685Y-109715664D01*
X117236314Y-109695027D01*
X120137819Y-106793521D01*
X120199142Y-106760037D01*
X120268834Y-106765021D01*
G37*
%TD.AperFunction*%
%TA.AperFunction,Conductor*%
G36*
X120341470Y-104820185D02*
G01*
X120387225Y-104872989D01*
X120397169Y-104942147D01*
X120368144Y-105005703D01*
X120362112Y-105012181D01*
X117411681Y-107962612D01*
X117350358Y-107996097D01*
X117280666Y-107991113D01*
X117224733Y-107949241D01*
X117200316Y-107883777D01*
X117200000Y-107874931D01*
X117200000Y-107047225D01*
X117200531Y-107039124D01*
X117205682Y-107000000D01*
X117205682Y-106999999D01*
X117200531Y-106960875D01*
X117200000Y-106952773D01*
X117200000Y-106524500D01*
X117219685Y-106457461D01*
X117272489Y-106411706D01*
X117324000Y-106400500D01*
X117637159Y-106400500D01*
X117645733Y-106401095D01*
X117657761Y-106402772D01*
X117657761Y-106402771D01*
X117657765Y-106402773D01*
X117700920Y-106400778D01*
X117705510Y-106400566D01*
X117708373Y-106400500D01*
X117727843Y-106400500D01*
X117727844Y-106400500D01*
X117730469Y-106400009D01*
X117739021Y-106399016D01*
X117740245Y-106398959D01*
X117769992Y-106397585D01*
X117776322Y-106394789D01*
X117803629Y-106386332D01*
X117810433Y-106385061D01*
X117836797Y-106368736D01*
X117844392Y-106364733D01*
X117872765Y-106352206D01*
X117877661Y-106347309D01*
X117900069Y-106329561D01*
X117905952Y-106325919D01*
X117924649Y-106301158D01*
X117930266Y-106294703D01*
X119388152Y-104836819D01*
X119449475Y-104803334D01*
X119475833Y-104800500D01*
X120274431Y-104800500D01*
X120341470Y-104820185D01*
G37*
%TD.AperFunction*%
%TA.AperFunction,Conductor*%
G36*
X126182521Y-90020185D02*
G01*
X126228276Y-90072989D01*
X126238220Y-90142147D01*
X126227864Y-90176905D01*
X126185931Y-90266828D01*
X126179500Y-90315683D01*
X126179500Y-90664316D01*
X126185931Y-90713171D01*
X126235935Y-90820404D01*
X126327267Y-90911736D01*
X126324443Y-90914559D01*
X126355183Y-90953042D01*
X126362352Y-91022542D01*
X126330808Y-91084886D01*
X126327101Y-91088098D01*
X126327267Y-91088264D01*
X126235935Y-91179595D01*
X126185931Y-91286828D01*
X126179500Y-91335683D01*
X126179500Y-91684315D01*
X126182857Y-91709814D01*
X126172092Y-91778850D01*
X126125712Y-91831106D01*
X126059918Y-91850000D01*
X125150000Y-91850000D01*
X125150000Y-91988676D01*
X125130315Y-92055715D01*
X125084284Y-92095600D01*
X125084583Y-92096048D01*
X125081023Y-92098426D01*
X125077511Y-92101470D01*
X125074518Y-92102772D01*
X125008107Y-92147147D01*
X124963792Y-92213469D01*
X124963791Y-92213470D01*
X124952160Y-92271947D01*
X124952160Y-92749520D01*
X124932475Y-92816559D01*
X124879671Y-92862314D01*
X124828160Y-92873520D01*
X124068647Y-92873520D01*
X124010170Y-92885151D01*
X124010169Y-92885152D01*
X123943847Y-92929467D01*
X123899532Y-92995789D01*
X123899531Y-92995790D01*
X123887900Y-93054267D01*
X123887900Y-93116000D01*
X123868215Y-93183039D01*
X123815411Y-93228794D01*
X123763900Y-93240000D01*
X123000000Y-93240000D01*
X123000000Y-93940000D01*
X123009892Y-93949892D01*
X123043242Y-93959685D01*
X123088997Y-94012489D01*
X123098941Y-94081647D01*
X123088997Y-94115511D01*
X123063303Y-94171772D01*
X123063302Y-94171773D01*
X123044867Y-94300000D01*
X123044867Y-94300001D01*
X123050309Y-94337854D01*
X123040365Y-94407013D01*
X122994609Y-94459816D01*
X122927571Y-94479500D01*
X122835683Y-94479500D01*
X122786828Y-94485931D01*
X122679595Y-94535935D01*
X122595935Y-94619595D01*
X122545931Y-94726828D01*
X122539500Y-94775683D01*
X122539500Y-95224316D01*
X122545931Y-95273171D01*
X122600520Y-95390236D01*
X122598945Y-95390970D01*
X122617193Y-95445092D01*
X122600177Y-95512858D01*
X122596169Y-95519094D01*
X122545931Y-95626828D01*
X122539500Y-95675683D01*
X122539500Y-96124316D01*
X122545931Y-96173171D01*
X122545932Y-96173173D01*
X122595935Y-96280404D01*
X122679596Y-96364065D01*
X122786827Y-96414068D01*
X122835683Y-96420500D01*
X122835684Y-96420500D01*
X122942321Y-96420500D01*
X122963853Y-96422384D01*
X122966827Y-96422908D01*
X122981525Y-96425500D01*
X123067358Y-96425500D01*
X123072761Y-96425735D01*
X123097668Y-96427915D01*
X123113086Y-96429264D01*
X123113086Y-96429263D01*
X123113087Y-96429264D01*
X123123805Y-96426392D01*
X123130027Y-96424725D01*
X123162121Y-96420500D01*
X123184317Y-96420500D01*
X123194087Y-96419213D01*
X123233173Y-96414068D01*
X123308229Y-96379068D01*
X123377303Y-96368577D01*
X123441087Y-96397096D01*
X123479327Y-96455572D01*
X123481522Y-96463858D01*
X123485425Y-96480960D01*
X123492519Y-96503817D01*
X123494056Y-96507694D01*
X123506305Y-96525525D01*
X123515814Y-96541929D01*
X123522803Y-96556442D01*
X123531264Y-96574010D01*
X123530007Y-96574614D01*
X123550421Y-96624624D01*
X123537662Y-96693319D01*
X123514746Y-96724925D01*
X123376793Y-96862878D01*
X123315470Y-96896363D01*
X123245778Y-96891379D01*
X123236713Y-96887582D01*
X123233178Y-96885933D01*
X123233169Y-96885931D01*
X123184317Y-96879500D01*
X123184316Y-96879500D01*
X122835684Y-96879500D01*
X122835683Y-96879500D01*
X122786828Y-96885931D01*
X122679595Y-96935935D01*
X122595935Y-97019595D01*
X122545931Y-97126828D01*
X122539500Y-97175683D01*
X122539500Y-97595000D01*
X122519815Y-97662039D01*
X122467011Y-97707794D01*
X122415500Y-97719000D01*
X121151406Y-97719000D01*
X121142833Y-97718405D01*
X121131331Y-97716801D01*
X121131330Y-97716801D01*
X121122525Y-97717208D01*
X121085200Y-97718934D01*
X121082336Y-97719000D01*
X121063578Y-97719000D01*
X121061156Y-97719452D01*
X121052634Y-97720439D01*
X121022840Y-97721817D01*
X121022835Y-97721818D01*
X121017148Y-97724330D01*
X120989859Y-97732781D01*
X120983742Y-97733924D01*
X120983740Y-97733925D01*
X120958375Y-97749630D01*
X120950774Y-97753636D01*
X120923485Y-97765686D01*
X120923478Y-97765691D01*
X120919082Y-97770087D01*
X120896692Y-97787822D01*
X120891405Y-97791095D01*
X120891399Y-97791100D01*
X120873419Y-97814909D01*
X120867778Y-97821392D01*
X120587647Y-98101523D01*
X120581166Y-98107163D01*
X120571903Y-98114158D01*
X120540799Y-98148277D01*
X120538824Y-98150345D01*
X120525547Y-98163623D01*
X120525547Y-98163624D01*
X120524158Y-98165651D01*
X120518830Y-98172376D01*
X120498735Y-98194419D01*
X120498734Y-98194422D01*
X120496485Y-98200226D01*
X120483164Y-98225498D01*
X120479649Y-98230629D01*
X120472818Y-98259666D01*
X120470277Y-98267873D01*
X120459500Y-98295692D01*
X120459500Y-98301910D01*
X120456206Y-98330301D01*
X120454783Y-98336348D01*
X120454783Y-98336351D01*
X120458512Y-98363085D01*
X120458905Y-98365898D01*
X120459500Y-98374474D01*
X120459500Y-98725967D01*
X120439815Y-98793006D01*
X120387011Y-98838761D01*
X120327390Y-98849702D01*
X120324323Y-98849501D01*
X120324316Y-98849500D01*
X119875684Y-98849500D01*
X119875683Y-98849500D01*
X119826827Y-98855931D01*
X119826826Y-98855931D01*
X119755358Y-98889258D01*
X119686281Y-98899750D01*
X119622497Y-98871230D01*
X119584258Y-98812753D01*
X119583704Y-98742886D01*
X119615270Y-98689198D01*
X119684065Y-98620404D01*
X119734068Y-98513173D01*
X119740500Y-98464316D01*
X119740500Y-98115684D01*
X119734068Y-98066827D01*
X119684065Y-97959596D01*
X119607407Y-97882938D01*
X119573922Y-97821615D01*
X119572040Y-97810592D01*
X119570976Y-97802059D01*
X119570500Y-97794384D01*
X119570500Y-97790960D01*
X119566912Y-97769458D01*
X119566121Y-97763119D01*
X119560573Y-97718607D01*
X119560571Y-97718603D01*
X119558502Y-97711653D01*
X119558470Y-97711559D01*
X119558446Y-97711478D01*
X119556092Y-97704622D01*
X119556092Y-97704619D01*
X119531702Y-97659550D01*
X119509198Y-97613517D01*
X119509197Y-97613516D01*
X119509197Y-97613515D01*
X119504926Y-97607534D01*
X119500417Y-97601741D01*
X119462713Y-97567031D01*
X119186819Y-97291137D01*
X119153334Y-97229814D01*
X119150500Y-97203456D01*
X119150500Y-96816506D01*
X119134720Y-96716878D01*
X119134719Y-96716876D01*
X119134719Y-96716874D01*
X119073528Y-96596780D01*
X119073526Y-96596778D01*
X119073523Y-96596774D01*
X118976819Y-96500070D01*
X118943334Y-96438747D01*
X118940500Y-96412389D01*
X118940500Y-95629759D01*
X118952118Y-95577354D01*
X118952173Y-95577236D01*
X118954068Y-95573173D01*
X118960500Y-95524316D01*
X118960500Y-95075684D01*
X118954068Y-95026827D01*
X118923652Y-94961600D01*
X118913161Y-94892527D01*
X118923241Y-94857688D01*
X118936697Y-94828226D01*
X118948089Y-94748991D01*
X118977114Y-94685437D01*
X118983146Y-94678958D01*
X118984548Y-94677555D01*
X118984548Y-94677554D01*
X118984552Y-94677552D01*
X118996899Y-94659073D01*
X119050508Y-94614271D01*
X119119833Y-94605563D01*
X119182861Y-94635717D01*
X119203100Y-94659074D01*
X119215446Y-94677551D01*
X119281769Y-94721867D01*
X119281770Y-94721868D01*
X119340247Y-94733499D01*
X119340250Y-94733500D01*
X119340252Y-94733500D01*
X119659750Y-94733500D01*
X119659751Y-94733499D01*
X119674568Y-94730552D01*
X119718229Y-94721868D01*
X119718229Y-94721867D01*
X119718231Y-94721867D01*
X119784552Y-94677552D01*
X119791718Y-94666827D01*
X119835652Y-94601077D01*
X119836768Y-94601822D01*
X119872370Y-94557644D01*
X119938664Y-94535579D01*
X119943090Y-94535500D01*
X119961827Y-94535500D01*
X120028866Y-94555185D01*
X120074621Y-94607989D01*
X120084766Y-94675686D01*
X120079500Y-94715684D01*
X120079500Y-95064316D01*
X120085931Y-95113171D01*
X120085932Y-95113173D01*
X120135935Y-95220404D01*
X120219596Y-95304065D01*
X120326827Y-95354068D01*
X120375683Y-95360500D01*
X120375684Y-95360500D01*
X120824317Y-95360500D01*
X120840601Y-95358356D01*
X120873173Y-95354068D01*
X120980404Y-95304065D01*
X121064065Y-95220404D01*
X121114068Y-95113173D01*
X121120500Y-95064316D01*
X121120500Y-94715684D01*
X121114068Y-94666827D01*
X121084026Y-94602404D01*
X121073535Y-94533328D01*
X121084027Y-94497595D01*
X121114068Y-94433173D01*
X121120500Y-94384316D01*
X121120500Y-94035684D01*
X121114068Y-93986827D01*
X121064065Y-93879596D01*
X121046650Y-93862181D01*
X121013165Y-93800858D01*
X121018149Y-93731166D01*
X121060021Y-93675233D01*
X121125485Y-93650816D01*
X121134331Y-93650500D01*
X121264773Y-93650500D01*
X121264773Y-93650499D01*
X121389069Y-93614004D01*
X121498049Y-93543967D01*
X121582882Y-93446063D01*
X121636697Y-93328226D01*
X121655133Y-93200000D01*
X121636697Y-93071774D01*
X121582882Y-92953937D01*
X121498049Y-92856033D01*
X121389069Y-92785996D01*
X121389065Y-92785994D01*
X121389064Y-92785994D01*
X121264774Y-92749500D01*
X121264772Y-92749500D01*
X121135228Y-92749500D01*
X121050350Y-92774421D01*
X120980480Y-92774420D01*
X120963012Y-92767825D01*
X120904433Y-92740509D01*
X120873173Y-92725932D01*
X120873171Y-92725931D01*
X120873172Y-92725931D01*
X120824317Y-92719500D01*
X120824316Y-92719500D01*
X120375684Y-92719500D01*
X120375683Y-92719500D01*
X120326827Y-92725931D01*
X120326826Y-92725932D01*
X120256904Y-92758537D01*
X120187827Y-92769029D01*
X120124043Y-92740509D01*
X120085804Y-92682032D01*
X120080500Y-92646155D01*
X120080500Y-92375683D01*
X120074068Y-92326828D01*
X120048476Y-92271947D01*
X120024065Y-92219596D01*
X120024064Y-92219595D01*
X120019480Y-92209764D01*
X120021334Y-92208899D01*
X120003428Y-92155808D01*
X120020436Y-92088040D01*
X120071033Y-92040403D01*
X120153220Y-91998528D01*
X120248528Y-91903220D01*
X120309719Y-91783126D01*
X120317631Y-91733173D01*
X120325500Y-91683493D01*
X120325500Y-91116506D01*
X120309720Y-91016878D01*
X120309719Y-91016876D01*
X120309719Y-91016874D01*
X120248528Y-90896780D01*
X120248526Y-90896778D01*
X120248523Y-90896774D01*
X120153225Y-90801476D01*
X120153221Y-90801473D01*
X120153220Y-90801472D01*
X120033126Y-90740281D01*
X120033124Y-90740280D01*
X120033121Y-90740279D01*
X119933493Y-90724500D01*
X119933488Y-90724500D01*
X119416512Y-90724500D01*
X119416507Y-90724500D01*
X119316878Y-90740279D01*
X119196778Y-90801473D01*
X119196774Y-90801476D01*
X119185070Y-90813181D01*
X119123747Y-90846666D01*
X119097389Y-90849500D01*
X118650504Y-90849500D01*
X118609550Y-90842542D01*
X118494697Y-90802353D01*
X118358991Y-90797275D01*
X118227816Y-90832423D01*
X118227813Y-90832424D01*
X118112826Y-90904676D01*
X118105781Y-90910739D01*
X118104443Y-90909184D01*
X118075819Y-90930857D01*
X118041685Y-90946774D01*
X117956776Y-91031683D01*
X117906027Y-91140514D01*
X117899500Y-91190098D01*
X117899500Y-91609894D01*
X117899501Y-91609900D01*
X117906028Y-91659487D01*
X117906029Y-91659489D01*
X117906029Y-91659490D01*
X117956776Y-91768316D01*
X118041684Y-91853224D01*
X118117904Y-91888766D01*
X118170344Y-91934938D01*
X118189500Y-92001148D01*
X118189500Y-92163016D01*
X118177882Y-92215421D01*
X118125931Y-92326828D01*
X118119500Y-92375683D01*
X118119500Y-92824316D01*
X118125931Y-92873171D01*
X118147882Y-92920244D01*
X118159500Y-92972649D01*
X118159500Y-93563524D01*
X118174352Y-93657301D01*
X118174354Y-93657304D01*
X118231950Y-93770342D01*
X118231952Y-93770344D01*
X118231954Y-93770347D01*
X118311425Y-93849818D01*
X118344910Y-93911141D01*
X118339926Y-93980833D01*
X118311425Y-94025180D01*
X118184516Y-94152091D01*
X118184513Y-94152094D01*
X118161949Y-94174659D01*
X118161948Y-94174660D01*
X118151891Y-94194397D01*
X118141731Y-94210977D01*
X118128706Y-94228905D01*
X118128703Y-94228910D01*
X118121854Y-94249988D01*
X118114413Y-94267952D01*
X118104354Y-94287695D01*
X118100887Y-94309582D01*
X118096347Y-94328491D01*
X118089500Y-94349567D01*
X118089500Y-94487436D01*
X118078295Y-94538946D01*
X118063303Y-94571773D01*
X118063302Y-94571778D01*
X118044867Y-94700000D01*
X118063302Y-94828222D01*
X118063304Y-94828230D01*
X118066862Y-94836020D01*
X118076806Y-94905178D01*
X118066450Y-94939935D01*
X118025931Y-95026826D01*
X118025931Y-95026827D01*
X118019500Y-95075683D01*
X118019500Y-95524316D01*
X118025931Y-95573171D01*
X118027882Y-95577354D01*
X118039500Y-95629759D01*
X118039500Y-96432389D01*
X118019815Y-96499428D01*
X118003181Y-96520070D01*
X117926476Y-96596774D01*
X117926473Y-96596778D01*
X117865279Y-96716878D01*
X117849500Y-96816506D01*
X117849500Y-97383493D01*
X117865279Y-97483121D01*
X117865280Y-97483124D01*
X117865281Y-97483126D01*
X117925719Y-97601742D01*
X117926473Y-97603221D01*
X117926475Y-97603224D01*
X117963180Y-97639928D01*
X117996666Y-97701251D01*
X117999500Y-97727610D01*
X117999500Y-99946217D01*
X117999110Y-99953155D01*
X117999008Y-99954068D01*
X117994729Y-99992034D01*
X118005788Y-100050479D01*
X118014652Y-100109290D01*
X118017162Y-100117427D01*
X118019978Y-100125475D01*
X118047777Y-100178072D01*
X118073576Y-100231644D01*
X118078383Y-100238696D01*
X118083432Y-100245536D01*
X118083433Y-100245537D01*
X118083434Y-100245538D01*
X118125495Y-100287598D01*
X118165945Y-100331194D01*
X118173207Y-100336985D01*
X118172686Y-100337637D01*
X118184913Y-100347017D01*
X118188170Y-100350273D01*
X118221662Y-100411588D01*
X118224500Y-100437965D01*
X118224500Y-100683493D01*
X118240279Y-100783123D01*
X118296624Y-100893706D01*
X118309520Y-100962375D01*
X118296624Y-101006294D01*
X118240279Y-101116876D01*
X118224500Y-101216506D01*
X118224500Y-101783493D01*
X118240279Y-101883121D01*
X118240280Y-101883124D01*
X118240281Y-101883126D01*
X118280218Y-101961507D01*
X118293114Y-102030174D01*
X118266838Y-102094915D01*
X118257414Y-102105481D01*
X118225124Y-102137771D01*
X118204492Y-102154400D01*
X118201951Y-102156032D01*
X118201945Y-102156037D01*
X118171509Y-102191162D01*
X118168498Y-102194396D01*
X118157572Y-102205324D01*
X118157569Y-102205328D01*
X118149432Y-102216353D01*
X118146406Y-102220134D01*
X118117117Y-102253937D01*
X118115046Y-102258473D01*
X118102029Y-102280583D01*
X118097207Y-102287117D01*
X118097207Y-102287118D01*
X118084127Y-102324500D01*
X118082557Y-102328986D01*
X118080432Y-102334267D01*
X118063302Y-102371776D01*
X118062031Y-102380617D01*
X118056338Y-102403911D01*
X118052354Y-102415298D01*
X118052353Y-102415303D01*
X118050825Y-102456134D01*
X118050237Y-102462641D01*
X118044867Y-102499996D01*
X118044867Y-102499999D01*
X118046699Y-102512745D01*
X118047873Y-102535020D01*
X118047275Y-102551006D01*
X118047275Y-102551007D01*
X118056947Y-102587103D01*
X118058430Y-102594333D01*
X118063302Y-102628225D01*
X118065438Y-102632902D01*
X118068986Y-102640671D01*
X118070281Y-102643505D01*
X118077261Y-102662923D01*
X118082421Y-102682180D01*
X118082423Y-102682186D01*
X118100444Y-102710865D01*
X118104347Y-102718101D01*
X118111544Y-102733858D01*
X118117118Y-102746063D01*
X118130697Y-102761734D01*
X118141975Y-102776961D01*
X118154677Y-102797175D01*
X118166296Y-102807174D01*
X118174251Y-102814019D01*
X118187085Y-102826810D01*
X118201951Y-102843967D01*
X118226341Y-102859641D01*
X118233264Y-102864805D01*
X118257612Y-102885758D01*
X118265825Y-102889341D01*
X118277684Y-102894515D01*
X118295144Y-102903858D01*
X118310927Y-102914002D01*
X118310928Y-102914003D01*
X118310930Y-102914003D01*
X118310931Y-102914004D01*
X118342118Y-102923161D01*
X118349432Y-102925819D01*
X118382084Y-102940065D01*
X118384871Y-102940378D01*
X118399939Y-102942077D01*
X118420992Y-102946320D01*
X118435227Y-102950500D01*
X118435228Y-102950500D01*
X118471217Y-102950500D01*
X118478155Y-102950889D01*
X118510050Y-102954483D01*
X118517034Y-102955270D01*
X118517034Y-102955269D01*
X118517035Y-102955270D01*
X118530820Y-102952661D01*
X118553872Y-102950500D01*
X118564772Y-102950500D01*
X118602661Y-102939374D01*
X118608595Y-102937945D01*
X118650472Y-102930023D01*
X118659388Y-102925310D01*
X118682396Y-102915963D01*
X118689069Y-102914004D01*
X118725225Y-102890766D01*
X118729773Y-102888110D01*
X118770538Y-102866566D01*
X118774870Y-102862233D01*
X118795523Y-102845590D01*
X118798049Y-102843967D01*
X118828484Y-102808842D01*
X118831488Y-102805614D01*
X119033029Y-102604072D01*
X119094352Y-102570588D01*
X119164044Y-102575572D01*
X119208391Y-102604073D01*
X119217362Y-102613044D01*
X119233489Y-102632902D01*
X119238563Y-102640669D01*
X119238565Y-102640671D01*
X119264505Y-102660860D01*
X119270268Y-102665950D01*
X119272693Y-102668375D01*
X119272695Y-102668377D01*
X119290437Y-102681044D01*
X119330874Y-102712517D01*
X119330878Y-102712518D01*
X119337314Y-102716000D01*
X119337339Y-102716013D01*
X119337371Y-102716030D01*
X119343930Y-102719237D01*
X119343933Y-102719239D01*
X119393037Y-102733858D01*
X119441512Y-102750500D01*
X119441514Y-102750500D01*
X119448754Y-102751708D01*
X119456046Y-102752617D01*
X119507231Y-102750500D01*
X119575500Y-102750500D01*
X119642539Y-102770185D01*
X119688294Y-102822989D01*
X119699500Y-102874500D01*
X119699500Y-103094749D01*
X119705678Y-103125812D01*
X119705678Y-103174188D01*
X119699500Y-103205250D01*
X119699500Y-103475500D01*
X119679815Y-103542539D01*
X119627011Y-103588294D01*
X119575500Y-103599500D01*
X119262842Y-103599500D01*
X119254268Y-103598905D01*
X119242239Y-103597227D01*
X119242236Y-103597227D01*
X119217220Y-103598383D01*
X119194491Y-103599434D01*
X119191628Y-103599500D01*
X119172156Y-103599500D01*
X119172151Y-103599500D01*
X119172149Y-103599501D01*
X119169515Y-103599993D01*
X119160985Y-103600982D01*
X119130008Y-103602415D01*
X119130006Y-103602415D01*
X119123665Y-103605215D01*
X119096379Y-103613664D01*
X119089572Y-103614936D01*
X119089566Y-103614939D01*
X119063202Y-103631261D01*
X119055603Y-103635266D01*
X119027237Y-103647792D01*
X119022336Y-103652693D01*
X118999942Y-103670431D01*
X118994048Y-103674080D01*
X118975359Y-103698827D01*
X118969717Y-103705310D01*
X118225529Y-104449500D01*
X117511848Y-105163181D01*
X117450525Y-105196666D01*
X117424167Y-105199500D01*
X117324000Y-105199500D01*
X117256961Y-105179815D01*
X117211206Y-105127011D01*
X117200000Y-105075500D01*
X117200000Y-104047225D01*
X117200531Y-104039124D01*
X117205682Y-104000000D01*
X117205682Y-103999999D01*
X117200531Y-103960875D01*
X117200000Y-103952773D01*
X117200000Y-103200000D01*
X116724500Y-103200000D01*
X116657461Y-103180315D01*
X116611706Y-103127511D01*
X116600500Y-103076000D01*
X116600500Y-98714360D01*
X116620185Y-98647321D01*
X116672989Y-98601566D01*
X116708311Y-98591422D01*
X116756762Y-98585044D01*
X116902841Y-98524536D01*
X117028282Y-98428282D01*
X117124536Y-98302841D01*
X117185044Y-98156762D01*
X117205682Y-98000000D01*
X117185044Y-97843238D01*
X117124536Y-97697159D01*
X117028282Y-97571718D01*
X116902841Y-97475464D01*
X116756762Y-97414956D01*
X116743399Y-97413196D01*
X116708313Y-97408577D01*
X116644417Y-97380309D01*
X116605946Y-97321984D01*
X116600500Y-97285638D01*
X116600500Y-97214360D01*
X116620185Y-97147321D01*
X116672989Y-97101566D01*
X116708311Y-97091422D01*
X116756762Y-97085044D01*
X116902841Y-97024536D01*
X117028282Y-96928282D01*
X117124536Y-96802841D01*
X117185044Y-96656762D01*
X117203040Y-96520070D01*
X117205682Y-96500001D01*
X117205682Y-96499998D01*
X117185044Y-96343239D01*
X117185044Y-96343238D01*
X117124536Y-96197159D01*
X117028282Y-96071718D01*
X116902841Y-95975464D01*
X116756762Y-95914956D01*
X116743399Y-95913196D01*
X116708313Y-95908577D01*
X116644417Y-95880309D01*
X116605946Y-95821984D01*
X116600500Y-95785638D01*
X116600500Y-95714360D01*
X116620185Y-95647321D01*
X116672989Y-95601566D01*
X116708311Y-95591422D01*
X116756762Y-95585044D01*
X116902841Y-95524536D01*
X117028282Y-95428282D01*
X117124536Y-95302841D01*
X117185044Y-95156762D01*
X117199002Y-95050739D01*
X117205682Y-95000001D01*
X117205682Y-94999998D01*
X117185044Y-94843239D01*
X117185044Y-94843238D01*
X117124536Y-94697159D01*
X117028282Y-94571718D01*
X116902841Y-94475464D01*
X116756762Y-94414956D01*
X116743399Y-94413196D01*
X116708313Y-94408577D01*
X116644417Y-94380309D01*
X116605946Y-94321984D01*
X116600500Y-94285638D01*
X116600500Y-90124500D01*
X116620185Y-90057461D01*
X116672989Y-90011706D01*
X116724500Y-90000500D01*
X126115482Y-90000500D01*
X126182521Y-90020185D01*
G37*
%TD.AperFunction*%
%TA.AperFunction,Conductor*%
G36*
X121381620Y-102195799D02*
G01*
X121405249Y-102200500D01*
X121405252Y-102200500D01*
X121794751Y-102200500D01*
X121818379Y-102195799D01*
X121825805Y-102194322D01*
X121874195Y-102194322D01*
X121881620Y-102195799D01*
X121905249Y-102200500D01*
X122175500Y-102200500D01*
X122242539Y-102220185D01*
X122288294Y-102272989D01*
X122299500Y-102324500D01*
X122299500Y-102594749D01*
X122305678Y-102625812D01*
X122305678Y-102674188D01*
X122299500Y-102705250D01*
X122299500Y-103094752D01*
X122311131Y-103153229D01*
X122311132Y-103153230D01*
X122355447Y-103219552D01*
X122421769Y-103263867D01*
X122421770Y-103263868D01*
X122480247Y-103275499D01*
X122480250Y-103275500D01*
X123225500Y-103275500D01*
X123292539Y-103295185D01*
X123338294Y-103347989D01*
X123349500Y-103399500D01*
X123349500Y-103400500D01*
X123329815Y-103467539D01*
X123277011Y-103513294D01*
X123225500Y-103524500D01*
X122680247Y-103524500D01*
X122621770Y-103536131D01*
X122621769Y-103536132D01*
X122555448Y-103580447D01*
X122547745Y-103591975D01*
X122494131Y-103636778D01*
X122424805Y-103645483D01*
X122375754Y-103626182D01*
X122353230Y-103611132D01*
X122353229Y-103611131D01*
X122294752Y-103599500D01*
X122294748Y-103599500D01*
X121905252Y-103599500D01*
X121905251Y-103599500D01*
X121874188Y-103605678D01*
X121825812Y-103605678D01*
X121794749Y-103599500D01*
X121794748Y-103599500D01*
X121405252Y-103599500D01*
X121405251Y-103599500D01*
X121374188Y-103605678D01*
X121325812Y-103605678D01*
X121294749Y-103599500D01*
X121294748Y-103599500D01*
X121024500Y-103599500D01*
X120957461Y-103579815D01*
X120911706Y-103527011D01*
X120900500Y-103475500D01*
X120900500Y-103205248D01*
X120894322Y-103174196D01*
X120894322Y-103125804D01*
X120900500Y-103094751D01*
X120900500Y-102705248D01*
X120894322Y-102674196D01*
X120894322Y-102625804D01*
X120900500Y-102594751D01*
X120900500Y-102324500D01*
X120920185Y-102257461D01*
X120972989Y-102211706D01*
X121024500Y-102200500D01*
X121294751Y-102200500D01*
X121318379Y-102195799D01*
X121325805Y-102194322D01*
X121374195Y-102194322D01*
X121381620Y-102195799D01*
G37*
%TD.AperFunction*%
%TA.AperFunction,Conductor*%
G36*
X121245703Y-98810712D02*
G01*
X121258207Y-98823216D01*
X121319079Y-98893467D01*
X121319080Y-98893468D01*
X121324887Y-98900169D01*
X121324503Y-98900501D01*
X121341137Y-98920028D01*
X121346361Y-98928466D01*
X121348391Y-98931745D01*
X121352395Y-98939343D01*
X121364922Y-98967712D01*
X121369817Y-98972607D01*
X121387563Y-98995011D01*
X121391205Y-99000894D01*
X121391208Y-99000897D01*
X121415954Y-99019585D01*
X121422439Y-99025228D01*
X121743181Y-99345970D01*
X121776666Y-99407293D01*
X121779500Y-99433651D01*
X121779500Y-99965500D01*
X121759815Y-100032539D01*
X121707011Y-100078294D01*
X121655500Y-100089500D01*
X121275683Y-100089500D01*
X121226828Y-100095931D01*
X121220501Y-100098882D01*
X121216904Y-100100559D01*
X121147827Y-100111051D01*
X121084043Y-100082531D01*
X121045804Y-100024055D01*
X121040500Y-99988177D01*
X121040500Y-98904425D01*
X121060185Y-98837386D01*
X121112989Y-98791631D01*
X121182147Y-98781687D01*
X121245703Y-98810712D01*
G37*
%TD.AperFunction*%
%TD*%
M02*
