G04 ================== begin FILE IDENTIFICATION RECORD ==================*
G04 Layout Name:  D:/Vishay/PCB/sic431/REF BOARD V4/SiC43x REF PCB.brd*
G04 Film Name:    Layer5*
G04 File Format:  Gerber RS274X*
G04 File Origin:  Cadence Allegro 17.2-S002*
G04 Origin Date:  Wed Nov 29 17:49:48 2017*
G04 *
G04 Layer:  VIA CLASS/LAYER5*
G04 Layer:  PIN/LAYER5*
G04 Layer:  ETCH/LAYER5*
G04 *
G04 Offset:    (0.000 0.000)*
G04 Mirror:    No*
G04 Mode:      Positive*
G04 Rotation:  0*
G04 FullContactRelief:  No*
G04 UndefLineWidth:     2.000*
G04 ================== end FILE IDENTIFICATION RECORD ====================*
%FSLAX25Y25*MOIN*%
%IR0*IPPOS*OFA0.00000B0.00000*MIA0B0*SFA1.00000B1.00000*%
%ADD10C,.1*%
%ADD13C,.02*%
%ADD11C,.06*%
%ADD14C,.016*%
%ADD12C,.055*%
G75*
%LPD*%
G75*
G36*
G01X6750Y-73250D02*
X17800Y-62200D01*
X47000D01*
X47100Y-62300D01*
Y-95300D01*
X46500Y-95900D01*
X-110100D01*
X-111000Y-95000D01*
Y-58500D01*
X-110900Y-58400D01*
X-64200D01*
X-49350Y-73250D01*
X6750D01*
G37*
G36*
G01X58800Y-15300D02*
X59000Y-15500D01*
Y-23700D01*
X58800Y-23900D01*
X25300D01*
X24100Y-25100D01*
Y-51500D01*
X5100Y-70500D01*
X-47800D01*
X-64500Y-53800D01*
X-110700D01*
X-111000Y-53500D01*
Y-20700D01*
X-110900Y-20600D01*
X-86800D01*
X-72200Y-35200D01*
X-30200D01*
X-30000Y-35000D01*
Y-32100D01*
X-30200Y-31900D01*
X-71400D01*
X-87400Y-15900D01*
X-110900D01*
X-111000Y-15800D01*
Y1400D01*
X-110900Y1500D01*
X-83900D01*
X-67100Y-15300D01*
X-60049D01*
X-59949Y-15400D01*
X33349D01*
X33449Y-15300D01*
X44606D01*
G03X45500Y-15622I894J1078D01*
G02X45900Y-16016I0J-400D01*
G03X48681Y-15765I1400J22D01*
G02X49076Y-15300I395J65D01*
G01X58800D01*
G37*
G36*
G01X-54850Y8150D02*
X11850D01*
X26100Y-6100D01*
X33100D01*
X33200Y-6200D01*
Y-14700D01*
X33100Y-14800D01*
X-59700D01*
X-79700Y5200D01*
X-110800D01*
X-111000Y5400D01*
Y23500D01*
X-110700Y23800D01*
X-70500D01*
X-54850Y8150D01*
G37*
G54D10*
X-94400Y-85825D03*
Y-66140D03*
Y-46455D03*
Y-26770D03*
Y-7085D03*
Y12600D03*
G54D11*
X-40800Y-88100D03*
X-42300Y-58900D03*
X16500Y-24200D03*
X18000Y-7700D03*
X29100Y-27800D03*
X73900Y-71200D03*
X73600Y-50000D03*
X73700Y-31600D03*
X73600Y-13000D03*
G54D12*
X-36300Y15000D03*
X-46300D03*
X-36300Y25300D03*
X-46300D03*
X-36300Y45900D03*
X-46300D03*
X-36300Y35600D03*
X-46300D03*
X-26300Y15000D03*
Y25300D03*
Y45900D03*
Y35600D03*
X39900Y15100D03*
X29900D03*
X39900Y25400D03*
X29900D03*
X30000Y46100D03*
X40000D03*
X29900Y35700D03*
X39900D03*
X63600Y3200D03*
X49900Y15100D03*
Y25400D03*
X50000Y46100D03*
X49900Y35700D03*
X73600Y3200D03*
G54D13*
X-26159Y-92551D03*
X-31159D03*
X-21196Y-92515D03*
X-21301Y-88788D03*
X-31264Y-88823D03*
X-26264D03*
X-27543Y-57086D03*
X-27438Y-60813D03*
X-17581Y-57051D03*
X-17476Y-60778D03*
X-22581Y-57051D03*
X-22476Y-60778D03*
X-32543Y-57086D03*
X-32438Y-60813D03*
X-19603Y-28601D03*
X-24603D03*
X-24498Y-32328D03*
X-19498D03*
X-21203Y-5252D03*
X-21308Y-1525D03*
X-1597Y-92496D03*
X3403D03*
X-6197Y-92515D03*
X-11196D03*
X-16196D03*
X-1752Y-88688D03*
X3248D03*
X-16301Y-88788D03*
X-11301D03*
X-6301D03*
X-7581Y-57051D03*
X-7476Y-60778D03*
X1969Y-56951D03*
X2124Y-60758D03*
X-3031Y-56951D03*
X-2877Y-60758D03*
X-12581Y-57051D03*
X-12476Y-60778D03*
X359Y-28566D03*
X-4641D03*
X-9641D03*
X-9536Y-32293D03*
X-4536D03*
X464D03*
X-14641Y-28566D03*
X-14536Y-32293D03*
X3358Y-5197D03*
X-16241Y-5217D03*
X-16346Y-1490D03*
X-1241Y-5217D03*
X-6241D03*
X-11241D03*
X3204Y-1390D03*
X-11346Y-1490D03*
X-6346D03*
X-1346D03*
X13096Y-84923D03*
X8133Y-84958D03*
X18096Y-84923D03*
X8112Y-81231D03*
X18112Y-81031D03*
X13112D03*
X13365Y-92460D03*
X18365D03*
X8365D03*
X13211Y-88653D03*
X18211D03*
X8211D03*
X9909Y-28466D03*
X10063Y-32273D03*
X4909Y-28466D03*
X5063Y-32273D03*
X8358Y-5197D03*
X8204Y-1390D03*
X33419Y-67651D03*
X38419D03*
X28419D03*
X33264Y-63843D03*
X38264D03*
X28264D03*
X33900Y-26000D03*
G54D14*
X29500Y-16800D03*
X37800Y-16700D03*
X33500Y-16800D03*
X45500Y-14222D03*
X33400Y-19900D03*
X29400Y-19800D03*
X45800Y0D03*
X30000Y-12800D03*
X36668Y-12746D03*
X36964Y-4950D03*
X34700Y-3600D03*
X64000Y-31572D03*
X66700Y-25500D03*
X56100Y-20200D03*
X54200D03*
X52200D03*
X56100Y-18400D03*
X54200D03*
X52200D03*
X47300Y-15994D03*
M02*
