G04 ================== begin FILE IDENTIFICATION RECORD ==================*
G04 Layout Name:  D:/Vishay/PCB/sic431/REF BOARD V4/SiC43x REF PCB.brd*
G04 Film Name:    Layer4*
G04 File Format:  Gerber RS274X*
G04 File Origin:  Cadence Allegro 17.2-S002*
G04 Origin Date:  Wed Nov 29 17:49:48 2017*
G04 *
G04 Layer:  VIA CLASS/LAYER4*
G04 Layer:  PIN/LAYER4*
G04 Layer:  ETCH/LAYER4*
G04 *
G04 Offset:    (0.000 0.000)*
G04 Mirror:    No*
G04 Mode:      Positive*
G04 Rotation:  0*
G04 FullContactRelief:  No*
G04 UndefLineWidth:     2.000*
G04 ================== end FILE IDENTIFICATION RECORD ====================*
%FSLAX25Y25*MOIN*%
%IR0*IPPOS*OFA0.00000B0.00000*MIA0B0*SFA1.00000B1.00000*%
%ADD10C,.1*%
%ADD13C,.02*%
%ADD11C,.06*%
%ADD14C,.016*%
%ADD12C,.055*%
%ADD17C,.112004*%
%ADD15C,.032004*%
%ADD16C,.072004*%
%ADD18C,.028004*%
G75*
%LPD*%
G75*
G36*
G01X-16346Y110D02*
G03Y-3090I0J-1600D01*
G01X-1346D01*
G03X205Y-1882I0J1600D01*
G02X876Y-1697I388J-98D01*
G01X2471Y-3292D01*
G02X2422Y-3899I-283J-283D01*
G03X4656Y-6133I936J-1298D01*
G02X5264Y-6084I324J-234D01*
G01X15003Y-15824D01*
X45896D01*
X45900Y-16020D01*
G03X48700I1400J26D01*
G01X48704Y-15824D01*
X60824D01*
X62500Y-17500D01*
Y-29821D01*
X63134Y-30454D01*
X62996Y-30596D01*
G03X64976Y-32576I1004J-976D01*
G01X65117Y-32438D01*
X80803Y-48124D01*
Y-91397D01*
X76300Y-95900D01*
X-110200D01*
X-111000Y-95100D01*
Y-20800D01*
X-110824Y-20624D01*
X-86697D01*
X-72121Y-35200D01*
X-30200D01*
X-30000Y-35000D01*
Y-32100D01*
X-30176Y-31924D01*
X-71297D01*
X-87121Y-16100D01*
X-110600D01*
X-111000Y-15700D01*
Y1300D01*
X-110824Y1476D01*
X-2297D01*
X-1614Y793D01*
G02X-1897Y110I-283J-283D01*
G01X-16346D01*
G37*
G36*
G01X3204Y210D02*
G03X2289Y-77I0J-1600D01*
G01X2152Y-173D01*
X-1397Y3376D01*
X-54697D01*
X-57197Y5876D01*
Y47676D01*
X-55197Y49676D01*
X-44497D01*
X-43097Y48276D01*
Y12376D01*
X-40497Y9776D01*
X-14397D01*
X-11197Y12976D01*
Y49776D01*
X32503D01*
X34503Y47776D01*
Y8176D01*
X40703Y1976D01*
Y-13824D01*
X39903Y-14624D01*
X16603D01*
X9148Y-7168D01*
G02X9216Y-6548I283J283D01*
G03X7008Y-4339I-858J1351D01*
G02X6387Y-4408I-338J214D01*
G01X5652Y-3673D01*
G02X5935Y-2990I283J283D01*
G01X8204D01*
G03Y210I0J1600D01*
G01X3204D01*
G37*
%LPC*%
G75*
G36*
G01X-16241Y-6817D02*
G02Y-3617I0J1600D01*
G01X-1241D01*
G02Y-6817I0J-1600D01*
G01X-16241D01*
G37*
G36*
G01X28264Y-65443D02*
G02Y-62243I0J1600D01*
G01X38264D01*
G02Y-65443I0J-1600D01*
G01X28264D01*
G37*
G36*
G01X28419Y-69251D02*
G02Y-66051I0J1600D01*
G01X38419D01*
G02Y-69251I0J-1600D01*
G01X28419D01*
G37*
G36*
G01X13112Y-82631D02*
G02Y-79431I0J1600D01*
G01X18112D01*
G02Y-82631I0J-1600D01*
G01X13112D01*
G37*
G36*
G01X13096Y-86523D02*
G02Y-83323I0J1600D01*
G01X18096D01*
G02Y-86523I0J-1600D01*
G01X13096D01*
G37*
G36*
G01X8211Y-90253D02*
G02Y-87053I0J1600D01*
G01X18211D01*
G02Y-90253I0J-1600D01*
G01X8211D01*
G37*
G36*
G01X-1752Y-90288D02*
G02Y-87088I0J1600D01*
G01X3248D01*
G02Y-90288I0J-1600D01*
G01X-1752D01*
G37*
G36*
G01X-21301Y-90388D02*
G02Y-87188I0J1600D01*
G01X-6301D01*
G02Y-90388I0J-1600D01*
G01X-21301D01*
G37*
G36*
G01X-31264Y-90423D02*
G02Y-87223I0J1600D01*
G01X-26264D01*
G02Y-90423I0J-1600D01*
G01X-31264D01*
G37*
G36*
G01X8365Y-94060D02*
G02Y-90860I0J1600D01*
G01X18365D01*
G02Y-94060I0J-1600D01*
G01X8365D01*
G37*
G36*
G01X-1597Y-94096D02*
G02Y-90895I0J1600D01*
G01X3403D01*
G02Y-94096I0J-1600D01*
G01X-1597D01*
G37*
G36*
G01X-21196Y-94115D02*
G02Y-90915I0J1600D01*
G01X-6197D01*
G02Y-94115I0J-1600D01*
G01X-21196D01*
G37*
G36*
G01X-31159Y-94151D02*
G02Y-90950I0J1600D01*
G01X-26159D01*
G02Y-94151I0J-1600D01*
G01X-31159D01*
G37*
G36*
G01X33260Y-27467D02*
G03X32700Y-27830I-160J-367D01*
G02X31793Y-25410I-3600J30D01*
G03X32454Y-25316I299J266D01*
G02X33260Y-27467I1447J-684D01*
G37*
G36*
G01X36069Y-3306D02*
G03X36572Y-3605I391J84D01*
G02X35595Y-5244I392J-1344D01*
G03X35092Y-4944I-391J-84D01*
G02X36069Y-3306I-392J1344D01*
G37*
G54D17*
X-94400Y-85825D03*
Y-66140D03*
G54D15*
X8112Y-81231D03*
X8133Y-84958D03*
X-21308Y-1525D03*
X-21203Y-5252D03*
G54D16*
X-40800Y-88100D03*
X73900Y-71200D03*
X18000Y-7700D03*
G54D18*
X30000Y-12800D03*
%LPD*%
G75*
G54D10*
X-94400Y-85825D03*
Y-66140D03*
Y-46455D03*
Y-26770D03*
Y-7085D03*
Y12600D03*
G54D11*
X-40800Y-88100D03*
X-42300Y-58900D03*
X16500Y-24200D03*
X18000Y-7700D03*
X29100Y-27800D03*
X73900Y-71200D03*
X73600Y-50000D03*
X73700Y-31600D03*
X73600Y-13000D03*
G54D12*
X-36300Y15000D03*
X-46300D03*
X-36300Y25300D03*
X-46300D03*
X-36300Y45900D03*
X-46300D03*
X-36300Y35600D03*
X-46300D03*
X-26300Y15000D03*
Y25300D03*
Y45900D03*
Y35600D03*
X39900Y15100D03*
X29900D03*
X39900Y25400D03*
X29900D03*
X30000Y46100D03*
X40000D03*
X29900Y35700D03*
X39900D03*
X63600Y3200D03*
X49900Y15100D03*
Y25400D03*
X50000Y46100D03*
X49900Y35700D03*
X73600Y3200D03*
G54D13*
X-26159Y-92551D03*
X-31159D03*
X-21196Y-92515D03*
X-21301Y-88788D03*
X-31264Y-88823D03*
X-26264D03*
X-27543Y-57086D03*
X-27438Y-60813D03*
X-17581Y-57051D03*
X-17476Y-60778D03*
X-22581Y-57051D03*
X-22476Y-60778D03*
X-32543Y-57086D03*
X-32438Y-60813D03*
X-19603Y-28601D03*
X-24603D03*
X-24498Y-32328D03*
X-19498D03*
X-21203Y-5252D03*
X-21308Y-1525D03*
X-1597Y-92496D03*
X3403D03*
X-6197Y-92515D03*
X-11196D03*
X-16196D03*
X-1752Y-88688D03*
X3248D03*
X-16301Y-88788D03*
X-11301D03*
X-6301D03*
X-7581Y-57051D03*
X-7476Y-60778D03*
X1969Y-56951D03*
X2124Y-60758D03*
X-3031Y-56951D03*
X-2877Y-60758D03*
X-12581Y-57051D03*
X-12476Y-60778D03*
X359Y-28566D03*
X-4641D03*
X-9641D03*
X-9536Y-32293D03*
X-4536D03*
X464D03*
X-14641Y-28566D03*
X-14536Y-32293D03*
X3358Y-5197D03*
X-16241Y-5217D03*
X-16346Y-1490D03*
X-1241Y-5217D03*
X-6241D03*
X-11241D03*
X3204Y-1390D03*
X-11346Y-1490D03*
X-6346D03*
X-1346D03*
X13096Y-84923D03*
X8133Y-84958D03*
X18096Y-84923D03*
X8112Y-81231D03*
X18112Y-81031D03*
X13112D03*
X13365Y-92460D03*
X18365D03*
X8365D03*
X13211Y-88653D03*
X18211D03*
X8211D03*
X9909Y-28466D03*
X10063Y-32273D03*
X4909Y-28466D03*
X5063Y-32273D03*
X8358Y-5197D03*
X8204Y-1390D03*
X33419Y-67651D03*
X38419D03*
X28419D03*
X33264Y-63843D03*
X38264D03*
X28264D03*
X33900Y-26000D03*
G54D14*
X29500Y-16800D03*
X37800Y-16700D03*
X33500Y-16800D03*
X45500Y-14222D03*
X33400Y-19900D03*
X29400Y-19800D03*
X45800Y0D03*
X30000Y-12800D03*
X36668Y-12746D03*
X36964Y-4950D03*
X34700Y-3600D03*
X64000Y-31572D03*
X66700Y-25500D03*
X56100Y-20200D03*
X54200D03*
X52200D03*
X56100Y-18400D03*
X54200D03*
X52200D03*
X47300Y-15994D03*
M02*
